<?xml version="1.0" standalone="no"?>
<!DOCTYPE svg PUBLIC "-//W3C//DTD SVG 20010904//EN"
 "http://www.w3.org/TR/2001/REC-SVG-20010904/DTD/svg10.dtd">
<svg version="1.0" xmlns="http://www.w3.org/2000/svg"
 width="16.000000pt" height="16.000000pt" viewBox="0 0 16.000000 16.000000"
 preserveAspectRatio="xMidYMid meet">
<metadata>
Created by potrace 1.11, written by Peter Selinger 2001-2013
</metadata>
<g transform="translate(0.000000,16.000000) scale(0.001600,-0.001600)"
fill="#000000" stroke="none">
<path d="M0 5000 l0 -5000 5000 0 5000 0 0 5000 0 5000 -5000 0 -5000 0 0
-5000z m7825 3170 c154 -49 242 -117 299 -231 85 -169 70 -342 -45 -514 -233
-349 -730 -492 -1849 -535 -546 -21 -843 -53 -1088 -116 -135 -35 -163 -50
-189 -104 -43 -90 -78 -399 -90 -794 l-6 -239 64 50 c174 136 449 293 514 293
36 0 55 -15 55 -44 0 -17 -59 -236 -113 -421 l-12 -40 -65 -2 c-136 -5 -298
-24 -372 -44 l-76 -21 -8 -146 c-8 -160 8 -620 28 -791 11 -101 11 -104 -10
-121 -56 -46 -302 -84 -376 -58 -64 22 -74 45 -86 198 -19 260 -8 1146 20
1550 20 290 27 323 86 438 l53 104 -57 -32 c-216 -121 -371 -290 -424 -463
-45 -147 0 -314 113 -425 60 -59 61 -81 4 -100 -61 -21 -234 -11 -307 17 -181
70 -275 197 -286 386 -7 131 44 251 163 383 183 201 495 371 963 522 417 135
738 199 1687 336 469 67 629 96 780 139 346 98 553 228 620 388 21 50 19 142
-4 193 -22 49 -79 98 -140 120 -68 24 -246 30 -356 10 -337 -58 -634 -200
-892 -426 -91 -80 -132 -110 -149 -110 -14 0 -44 27 -44 39 0 34 162 184 290
270 275 185 576 308 869 356 128 21 346 13 436 -15z m715 -170 c0 -16 -7 -20
-35 -20 l-35 0 0 -105 c0 -98 -1 -105 -20 -105 -19 0 -20 7 -20 105 l0 105
-35 0 c-28 0 -35 4 -35 20 0 19 7 20 90 20 83 0 90 -1 90 -20z m125 -51 l38
-72 18 24 c10 13 28 45 40 72 17 36 28 47 46 47 23 0 23 -1 23 -125 0 -117 -1
-125 -20 -125 -17 0 -19 8 -22 81 l-3 81 -30 -54 c-41 -70 -56 -72 -92 -8
l-28 50 -5 -72 c-5 -66 -7 -73 -27 -76 -23 -3 -23 -2 -23 122 0 126 0 126 24
126 19 0 31 -13 61 -71z m-1334 -1250 c47 -12 100 -48 117 -79 17 -32 11 -265
-18 -621 -22 -287 -29 -551 -16 -650 l8 -67 -53 -18 c-36 -13 -83 -19 -141
-19 -78 0 -90 3 -110 23 -21 21 -23 33 -26 150 -2 71 6 285 18 478 24 379 30
636 17 726 -8 53 -7 57 15 69 52 28 101 30 189 8z m-433 -186 c31 -16 63 -40
70 -53 16 -31 11 -288 -12 -570 -30 -358 -37 -568 -25 -669 14 -112 15 -112
-98 -137 -76 -17 -145 -14 -183 6 -35 19 -43 81 -36 290 3 107 13 301 22 430
15 211 22 598 13 675 -3 26 1 33 31 48 51 26 145 18 218 -20z m-489 -766 c25
-12 54 -34 64 -49 19 -26 19 -33 7 -180 -22 -257 -7 -395 52 -480 10 -14 18
-33 18 -41 0 -25 -60 -42 -150 -42 -68 1 -96 5 -139 25 l-54 24 -20 -30 c-41
-59 -157 -162 -213 -190 -147 -72 -271 -29 -311 106 -13 46 -14 82 -7 255 10
228 9 311 -7 367 -13 50 3 71 68 87 58 15 117 6 178 -27 95 -52 110 -100 95
-300 -15 -193 -3 -243 54 -228 51 13 93 99 117 240 15 90 7 291 -16 379 -21
79 -18 84 52 103 62 17 155 9 212 -19z m-2561 -1083 c2 -11 -16 -42 -44 -74
-109 -127 -156 -235 -157 -360 -2 -150 75 -312 174 -369 97 -55 206 -61 372
-20 193 48 343 126 722 375 421 277 504 325 695 397 139 53 203 68 320 74 184
9 324 -42 438 -161 72 -75 116 -158 149 -285 22 -82 26 -118 26 -246 0 -105
-5 -174 -17 -230 -126 -586 -570 -1036 -1021 -1037 -193 0 -303 85 -351 272
-14 54 -16 101 -12 285 6 251 1 285 -41 285 -55 0 -120 -102 -154 -240 -44
-180 -52 -307 -35 -575 l3 -40 -55 -19 c-71 -23 -219 -33 -259 -16 -17 7 -37
27 -48 48 -20 41 -22 145 -13 557 4 159 2 223 -9 263 -12 50 -12 55 5 73 27
26 130 51 179 43 55 -9 105 -36 146 -78 l35 -36 48 69 c63 93 179 201 251 235
138 66 237 47 294 -53 33 -60 37 -138 16 -347 -27 -275 -9 -404 66 -476 65
-62 158 -64 281 -6 211 101 353 341 388 658 36 317 -94 633 -297 728 -86 39
-231 43 -364 9 -203 -53 -323 -113 -704 -354 -438 -276 -595 -360 -815 -434
-216 -72 -407 -61 -551 32 -157 101 -231 305 -184 506 47 200 261 461 450 549
56 27 69 26 73 -2z m-917 -244 c148 -50 234 -151 246 -291 14 -152 -118 -385
-281 -493 -44 -29 -97 -34 -117 -10 -8 10 -14 49 -15 107 -5 165 -30 290 -75
363 -36 59 -112 72 -197 34 -62 -28 -99 -64 -128 -125 -53 -112 -10 -272 103
-380 25 -24 120 -94 211 -156 371 -251 473 -354 536 -548 60 -185 59 -326 -4
-506 -88 -252 -352 -475 -658 -557 -107 -28 -293 -35 -392 -14 -98 20 -212 77
-267 133 -165 164 -126 441 91 659 123 123 267 187 290 128 3 -8 -3 -50 -14
-92 -37 -142 -22 -294 43 -415 70 -133 197 -176 337 -115 154 66 198 250 109
447 -61 134 -148 218 -434 415 -335 230 -406 314 -442 523 -36 209 44 435 216
616 121 126 232 197 396 250 121 40 150 45 273 46 89 1 125 -3 173 -19z m1366
-972 c65 -24 103 -66 103 -115 0 -19 -7 -108 -16 -197 -26 -253 -7 -401 63
-507 29 -44 25 -65 -14 -80 -91 -34 -202 -29 -298 15 l-55 25 -60 -74 c-172
-210 -393 -282 -510 -165 -75 75 -82 137 -67 540 7 179 6 224 -6 270 -19 67
-12 83 48 105 87 34 229 1 292 -67 51 -54 56 -86 49 -308 -8 -226 -3 -252 45
-258 57 -7 115 92 145 246 18 96 18 317 -1 407 -30 140 -30 141 -2 160 57 37
188 38 284 3z"/>
</g>
</svg>
