<svg version="1.1" id="Layer_1" xmlns="http://www.w3.org/2000/svg" xmlns:xlink="http://www.w3.org/1999/xlink" x="0px" y="0px"
	 viewBox="0 0 342.7 345.6" style="enable-background:new 0 0 342.7 345.6;" xml:space="preserve">
<path id="logoRaysOff" d="M134.7,235.9c-1.6,0-3.2,0.3-4.7,0.8c-1.5,0.5-2,1.4-1.6,2.5c0.9,2.8,1.5,5.7,1.6,8.6c0.3,3.2,0.2,6.4-0.2,9.6
	c-0.3,2.8-1,5.5-2,8.1c-0.9,2.3-2.2,3.8-3.7,4.3c-0.9,0.4-1.9,0-2.3-0.8c-0.1-0.1-0.1-0.3-0.1-0.4c-0.5-1.4-0.7-2.9-0.5-4.4
	c0.1-1.6,0.2-3.3,0.4-5s0.3-3.4,0.3-5.1c0.1-1.6-0.1-3.1-0.6-4.6c-0.4-1.1-1.1-2.1-2-2.9c-1-0.9-2.1-1.6-3.3-2.1
	c-1.3-0.5-2.6-0.8-4-0.9c-1.4-0.1-2.7,0.1-4,0.5c-2,0.7-2.8,1.6-2.4,2.8c0.7,2.3,1.1,4.8,1,7.2c0,2.7-0.1,5.5-0.4,8.4
	c-0.2,2.8-0.4,5.6-0.4,8.2c-0.1,2.3,0.2,4.6,0.9,6.8c0.7,2.4,2.4,4.3,4.7,5.3c2.2,0.8,4.7,0.8,6.9-0.1c2-0.7,3.9-1.7,5.6-2.9
	c1.4-1.1,2.8-2.3,4-3.6c0.9-1,1.8-2,2.5-3.1c0.6-0.9,1.1-1.4,1.3-1.5c0.3-0.1,0.7,0.1,1.4,0.6c0.9,0.5,1.9,1,2.9,1.3
	c1.4,0.4,2.9,0.7,4.4,0.7c1.9,0,3.9-0.3,5.7-1c1-0.4,1.4-1,1.1-1.8c-0.1-0.3-0.2-0.6-0.4-0.9c-0.1-0.2-0.3-0.5-0.6-0.7
	c-0.3-0.4-0.5-0.8-0.7-1.2c-0.3-0.7-0.6-1.4-0.8-2.1c-0.8-2.4-1.2-5-1.3-7.5c0-2.7,0.1-5.3,0.4-8c0.2-2.5,0.5-4.8,0.7-6.7
	c0.2-1.4,0.2-2.8-0.1-4.2c-0.4-0.9-1.1-1.7-1.9-2.2c-1.1-0.7-2.3-1.2-3.6-1.5C137.7,236,136.2,235.8,134.7,235.9L134.7,235.9
	 M78.1,196.7c-3.8,0.2-7.6,0.9-11.2,2.3c-4.4,1.5-8.5,3.8-12.1,6.8c-3.3,2.7-6,6-8.1,9.7c-2,3.4-3.3,7.2-3.8,11.1
	c-0.5,3.7-0.1,7.5,1.1,11c1.3,3.9,3.8,7.4,7,10c3.3,2.7,6.8,5.2,10.5,7.6c3.7,2.4,7.2,5,10.6,7.8c3.3,2.8,5.8,6.4,7.2,10.5
	c1.3,3.3,1.4,7,0.2,10.4c-1,2.9-3.3,5.2-6.2,6.2c-2.8,1.2-6,1-8.7-0.4c-2.5-1.4-4.4-3.8-5.6-7.3c-0.8-2.2-1.3-4.5-1.4-6.9
	c0-1.7,0.1-3.4,0.4-5.1c0.2-1.2,0.5-2.4,0.9-3.5c0.3-0.7,0.4-1.5,0.2-2.2c-0.2-0.5-0.6-0.9-1.2-1c-0.6-0.1-1.3,0-1.8,0.2
	c-2.6,0.9-4.9,2.3-7,4.1c-2.3,1.9-4.2,4.1-5.8,6.6c-1.5,2.5-2.7,5.2-3.3,8c-0.7,2.8-0.5,5.6,0.4,8.3c0.9,2.7,2.6,5,4.8,6.6
	c2.4,1.8,5.1,3,8,3.7c3.2,0.8,6.6,1.1,9.9,0.8c3.6-0.2,7.1-0.9,10.5-2.1c4.5-1.5,8.6-3.8,12.3-6.7c3.5-2.7,6.4-6.1,8.6-9.9
	c2.2-3.7,3.5-7.8,4-12.1c0.5-4.5,0-9.1-1.5-13.4c-1.4-4.4-4-8.3-7.4-11.4c-3.3-2.9-6.8-5.6-10.5-8c-3.6-2.4-7-4.7-10.1-6.9
	c-2.9-2-5.1-4.9-6.3-8.2c-1.3-3.6-1.3-6.7,0-9.3c1.3-2.6,3.6-4.5,6.3-5.3c1.5-0.6,3.2-0.7,4.8-0.1c1.4,0.6,2.5,2,3.2,4.3
	c0.7,1.9,1.2,4,1.6,6c0.2,1.5,0.4,3,0.4,4.6c0.1,1.1,0.1,2.1,0,3.2c-0.1,0.7,0,1.4,0.2,2.1c0.2,1.1,1.2,1.8,2.3,1.6
	c0.2,0,0.4-0.1,0.6-0.2c1.9-0.8,3.6-1.9,5-3.3c1.9-1.8,3.5-3.8,4.8-6c1.4-2.3,2.5-4.7,3.1-7.3c0.7-2.4,0.6-5-0.2-7.4
	c-0.7-1.8-1.7-3.5-3-4.8c-1.6-1.6-3.5-2.8-5.6-3.6c-2.5-0.9-5.1-1.3-7.8-1.2L78.1,196.7 M207.1,186.8c-3.6,0.1-7.2,0.8-10.7,2.1
	c-5.4,1.8-10.5,4.2-15.4,7.1c-4.7,2.8-9.3,5.8-13.7,8.8s-8.8,5.9-13.1,8.6c-4.3,2.7-8.9,4.9-13.7,6.5c-3.2,1.2-6.6,2-10.1,2.3
	c-2.4,0.2-4.9-0.1-7.2-0.9c-1.9-0.7-3.6-1.9-4.8-3.5c-1.3-1.7-2.3-3.7-3-5.7c-0.9-2.4-1.3-5.1-1.1-7.7c0.2-2.2,0.7-4.3,1.6-6.3
	c0.8-1.8,1.7-3.4,2.9-4.9c1.1-1.4,2.1-2.5,2.9-3.5c0.8-0.9,1.1-1.6,0.9-2.2c-0.2-0.6-0.8-0.7-1.8-0.3c-1.3,0.5-2.5,1.2-3.7,2
	c-1.8,1.2-3.4,2.5-4.9,3.9c-1.8,1.7-3.5,3.6-5,5.5c-1.6,2.1-3,4.3-4.1,6.7c-1.1,2.4-1.8,5.1-2.1,7.7c-0.3,2.8,0,5.7,1,8.4
	c0.9,2.6,2.4,5,4.4,6.9c1.9,1.8,4.2,3.2,6.8,4c2.7,0.9,5.6,1.3,8.4,1.1c3.2-0.2,6.4-0.8,9.4-1.9c5.6-1.9,11.1-4.4,16.2-7.3
	c4.9-2.8,9.6-5.7,14.2-8.6s8.9-5.7,13.3-8.3c4.3-2.6,8.9-4.8,13.6-6.4c3.1-1.1,6.3-1.8,9.6-2.2c2.8-0.3,5.6,0,8.2,0.9
	c2.6,1,4.8,2.6,6.6,4.7c2.2,2.6,3.8,5.6,4.8,8.8c1.3,3.9,2,8.1,1.9,12.2c0,4.5-0.7,8.9-2,13.1c-1.3,4.2-3.4,8.1-6.1,11.5
	c-2.7,3.4-6.3,5.9-10.4,7.3c-2.2,0.9-4.7,0.9-6.9,0c-1.9-0.7-3.3-2.3-4-4.2c-0.9-2.5-1.3-5.2-1.3-7.9c0-2.7,0.2-5.3,0.5-8
	c0.3-2.6,0.5-5,0.7-7.4c0.2-2.1,0-4.2-0.7-6.2c-0.6-1.9-1.9-3.5-3.7-4.3c-1.8-0.8-4-0.7-6.6,0.2c-2.2,0.7-4.3,1.9-6.1,3.5
	c-1.6,1.3-3,2.8-4.3,4.4c-1,1.2-1.9,2.5-2.7,3.9c-0.3,0.6-0.6,1.2-1,1.7c-0.1,0-0.4-0.3-0.9-1c-0.6-0.9-1.3-1.6-2.1-2.2
	c-1.2-0.8-2.5-1.3-3.9-1.6c-2-0.3-4-0.1-5.8,0.7c-1.9,0.7-2.7,1.6-2.3,2.8c0.8,2.5,1.1,5.2,1.1,7.8c0,3.1-0.1,6.3-0.4,9.6
	s-0.4,6.4-0.4,9.4c-0.1,2.5,0.2,5,0.9,7.3c0.3,0.9,1.1,1.7,2,2c1.1,0.4,2.2,0.6,3.4,0.5c1.3,0,2.7-0.2,4-0.5c1.4-0.3,2.7-0.6,4-1.1
	c0.8-0.3,1.3-0.7,1.4-1.2c0.1-0.7,0-1.3-0.3-2c-0.4-1.4-0.7-2.9-0.7-4.3c-0.1-1.9,0-3.8,0.1-5.7c0.2-2,0.4-4.1,0.7-6.2
	s0.7-4,1.1-5.8c0.5-2.4,1.4-4.7,2.8-6.9c1.1-1.7,2.1-2.6,2.8-2.9c0.8-0.4,1.7-0.1,2.1,0.7c0.1,0.1,0.1,0.3,0.1,0.4
	c0.4,1.4,0.5,2.9,0.4,4.4c-0.1,1.9-0.2,3.9-0.3,6.1s-0.1,4.6,0,7c0.1,2.3,0.5,4.6,1.2,6.8c0.7,2.1,1.9,4,3.5,5.5
	c1.5,1.4,3.4,2.4,5.4,2.9c2.2,0.5,4.6,0.7,6.9,0.4c2.7-0.3,5.3-0.9,7.8-1.8c3.6-1.3,7-3.1,10.1-5.5c3.3-2.5,6.3-5.4,8.9-8.6
	c2.7-3.4,5.1-7,7-10.9c1.9-3.9,3.5-8,4.5-12.3c1.1-4.2,1.6-8.5,1.5-12.8c0-4.2-0.8-8.4-2.1-12.4c-1-3.2-2.7-6-5-8.5
	c-2.1-2.2-4.7-3.9-7.6-5c-2.8-1-5.7-1.5-8.7-1.5h-0.8 M220.3,143c-1.4,0-2.8,0.2-4.1,0.7c-1.3,0.4-1.7,1.2-1.4,2.2
	c0.8,2.4,1.3,5,1.4,7.5c0.2,2.8,0.2,5.6-0.1,8.4c-0.3,2.4-0.8,4.8-1.7,7.1c-0.8,2-1.9,3.3-3.2,3.8c-0.7,0.4-1.6,0-2-0.7
	c-0.1-0.1-0.1-0.3-0.1-0.4c-0.4-1.2-0.6-2.5-0.5-3.9c0.1-1.4,0.2-2.9,0.3-4.4c0.1-1.5,0.2-3,0.3-4.4c0.1-1.4-0.1-2.7-0.5-4
	c-0.4-1-1-1.8-1.7-2.5c-0.8-0.8-1.8-1.4-2.9-1.8c-1.1-0.5-2.3-0.7-3.5-0.8c-1.2-0.1-2.4,0.1-3.5,0.4c-1.8,0.6-2.5,1.4-2.1,2.4
	c0.7,2,1,4.1,0.9,6.3c0,2.4-0.1,4.8-0.3,7.3s-0.3,4.9-0.4,7.1c-0.1,2,0.2,4,0.8,5.9c0.6,2.1,2.1,3.8,4.1,4.6c1.9,0.7,4.1,0.7,6-0.1
	c1.8-0.6,3.4-1.5,4.9-2.6c1.3-0.9,2.4-2,3.5-3.1c0.8-0.9,1.5-1.8,2.2-2.7c0.5-0.8,0.9-1.2,1.2-1.3c0.2-0.1,0.6,0.1,1.2,0.5
	c0.8,0.5,1.7,0.8,2.6,1.1c1.2,0.4,2.5,0.6,3.8,0.6c1.7,0,3.4-0.3,4.9-0.9c0.9-0.3,1.2-0.8,1-1.6c-0.1-0.3-0.2-0.5-0.4-0.7l-0.5-0.6
	c-0.2-0.3-0.4-0.6-0.6-1c-0.3-0.6-0.5-1.2-0.7-1.8c-0.7-2.1-1.1-4.3-1.1-6.6c-0.1-2.3,0-4.6,0.2-6.9c0.2-2.2,0.4-4.2,0.6-5.9
	c0.2-1.2,0.2-2.4-0.1-3.6c-0.3-0.8-0.9-1.5-1.7-2c-1-0.6-2-1-3.1-1.3C222.9,143,221.6,142.9,220.3,143L220.3,143 M237.4,112.1
	c-1.7,0.6-2.4,1.4-2,2.4c0.5,2,0.7,4.1,0.6,6.1c0,2.9-0.1,6.1-0.3,9.8c-0.2,3.7-0.4,7.5-0.7,11.6c-0.3,4.1-0.5,8-0.7,11.6
	s-0.3,6.8-0.3,9.6c-0.1,2,0.1,3.9,0.5,5.8c0.3,0.8,0.9,1.5,1.7,1.7c1,0.3,2,0.5,3,0.4c1.2,0,2.4-0.2,3.5-0.4c1.2-0.3,2.3-0.6,3.5-1
	c0.7-0.3,1.1-0.6,1.2-1.1c0.1-0.6,0-1.2-0.2-1.7c-0.5-1.9-0.7-3.9-0.6-5.8c0-2.7,0.1-5.9,0.3-9.4c0.2-3.5,0.5-7.2,0.8-11.1
	c0.3-3.9,0.6-7.5,0.8-11c0.2-3.5,0.4-6.5,0.4-9c0.1-1.7,0-3.5-0.4-5.2c-0.3-0.7-0.9-1.4-1.6-1.8c-0.9-0.6-1.9-1.1-2.9-1.4
	c-1.1-0.4-2.3-0.6-3.4-0.7c-0.3,0-0.5,0-0.8,0C239.1,111.6,238.2,111.7,237.4,112.1 M256.8,105.3c-1.7,0.6-2.4,1.4-2,2.4
	c0.5,2,0.7,4.1,0.6,6.1c0,2.9-0.1,6.1-0.3,9.8c-0.2,3.7-0.4,7.5-0.7,11.6c-0.3,4.1-0.5,8-0.7,11.6c-0.2,3.6-0.3,6.8-0.3,9.6
	c-0.1,2,0.1,3.9,0.5,5.8c0.3,0.8,0.9,1.5,1.7,1.7c1,0.3,2,0.5,3,0.4c1.2,0,2.4-0.2,3.5-0.4c1.2-0.3,2.3-0.6,3.5-1
	c0.7-0.2,1.1-0.6,1.2-1.1c0.1-0.6,0-1.2-0.2-1.7c-0.5-1.9-0.7-3.9-0.6-5.8c0-2.7,0.1-5.9,0.3-9.4c0.2-3.5,0.5-7.2,0.8-11.1
	c0.3-3.9,0.6-7.5,0.8-11c0.2-3.5,0.4-6.5,0.4-9c0.1-1.7,0-3.5-0.4-5.2c-0.3-0.7-0.9-1.4-1.6-1.8c-0.9-0.6-1.9-1.1-2.9-1.4
	c-1.1-0.4-2.3-0.6-3.4-0.7c-0.3,0-0.5,0-0.8,0C258.5,104.8,257.6,105,256.8,105.3 M266.3,45.4c-4.6,0.7-9.1,1.7-13.4,3.2
	c-4.2,1.4-8.3,3.1-12.2,5.2c-3.2,1.7-6.4,3.5-9.4,5.5c-2.4,1.5-4.6,3.2-6.7,5.1c-1.5,1.3-2.9,2.7-4.2,4.1c-1.1,1.2-1.5,2.1-1.3,2.7
	c0.2,0.4,0.5,0.8,1,0.9c0.5,0.2,1,0.2,1.5,0c1-0.6,2-1.3,2.8-2.2c1.4-1.3,3.3-2.9,5.6-4.8c2.7-2.1,5.6-4.1,8.6-5.8
	c3.7-2.2,7.7-4,11.8-5.4c3.9-1.4,7.9-2.4,12-3.2c3.2-0.6,6.5-0.8,9.8-0.5c2.5,0.2,4.9,0.8,7.1,2c1.8,1,3.1,2.6,3.8,4.5
	c1.3,3.8,0.4,7.6-2.8,11.3s-8.7,7-16.6,9.7c-7.3,2.4-14.7,4.2-22.3,5.3c-8.3,1.2-17.1,2.5-26.5,3.8c-9.4,1.3-19.4,3-29.8,5.2
	c-10.9,2.1-21.6,5-32.1,8.7c-5.8,2-11.4,4.4-16.9,7.2c-5,2.5-9.6,5.6-13.8,9.2c-3.5,3-6.4,6.8-8.3,11c-1.7,4-1.8,8.6-0.2,12.7
	c0.8,2.6,2.4,5,4.5,6.8c1.9,1.6,4.1,2.8,6.5,3.6c2.2,0.7,4.5,1.1,6.8,1.1c1.8,0.1,3.7-0.2,5.5-0.7c1.3-0.4,1.8-1.1,1.5-1.8
	c-0.2-0.4-0.5-0.8-0.9-1c-0.6-0.4-1.1-0.9-1.6-1.4c-0.7-0.8-1.4-1.6-2-2.6c-0.9-1.4-1.6-2.9-2.1-4.5c-1-2.7-1.1-5.7-0.4-8.5
	c0.7-3,2-5.8,3.8-8.3c2-2.8,4.4-5.3,7.1-7.4c2.9-2.3,6-4.2,9.3-5.8c-0.3,0.4-0.6,0.8-0.8,1.2l-1.4,2.3c-0.6,0.9-1.1,1.9-1.5,2.9
	c-0.4,1-0.8,2-1,3c-0.4,2.5-0.8,6.2-1.2,11s-0.6,10-0.9,15.7c-0.2,5.7-0.3,11.5-0.4,17.5s-0.1,11.6-0.1,16.8c0,5.2,0.1,9.6,0.3,13.2
	c0,2.3,0.3,4.5,0.8,6.8c0.4,1.1,1.3,1.9,2.5,2.2c1.4,0.4,2.9,0.5,4.4,0.4c1.7-0.1,3.5-0.3,5.2-0.7c1.6-0.3,3.2-0.8,4.7-1.3
	c0.8-0.2,1.5-0.8,1.7-1.6c0.2-0.9,0.2-1.9-0.1-2.8c-0.5-3.5-0.8-7.4-1-11.8s-0.3-8.6-0.3-12.7c0-4.7,0.1-9.5,0.2-14.4
	c2.3-0.8,4.7-1.4,7.2-1.8c2-0.3,4.1-0.5,6.2-0.6c1.8-0.1,3.3-0.1,4.5,0c0.7,0.1,1.5,0,2.2-0.1c0.4-0.1,0.8-0.4,1-0.8
	c0.2-0.5,0.4-1.1,0.5-1.7c0.3-1.4,0.7-3.1,1.2-4.9s1-3.5,1.5-5.2s0.9-3.1,1.2-4.3c0.3-0.8,0.4-1.6,0.3-2.5c-0.2-0.5-0.6-0.9-1.1-1.1
	c-0.8-0.2-1.7-0.2-2.5,0.2c-2.3,0.8-4.5,1.9-6.7,3.2c-2.5,1.4-4.8,2.9-7,4.4s-4.1,2.8-5.7,4.1c-1,0.7-1.9,1.5-2.6,2.5
	c0.1-2.2,0.2-4.8,0.2-7.8c0-3,0.1-6.3,0.3-9.8c0.2-3.5,0.5-7.2,0.8-11c0.4-3.9,0.9-7.7,1.7-11.6c0.6-2.7,1.5-4.2,2.9-4.7
	c5.1-1.7,10.3-3,15.6-3.8c5.5-0.8,11.2-1.4,17.1-1.8c5.9-0.4,11.9-0.7,18-0.9c6.1-0.2,12.3-0.5,18.4-1c6.1-0.5,12.2-1.2,18.3-2.2
	c6-1,12-2.5,17.8-4.5c3.8-1.3,7.4-3.1,10.7-5.4c3-2.1,5.7-4.7,7.9-7.7c2-2.7,3.4-5.8,4.1-9.1c0.7-3.3,0.4-6.8-0.7-10
	c-1.1-3.6-3.4-6.6-6.5-8.7c-3.2-2.1-6.8-3.4-10.6-3.8c-1.9-0.3-3.8-0.4-5.7-0.4c-2.4,0-4.8,0.2-7.2,0.5"/>
<path d="M307.5,53.9h-2.8v-1.5h7.3v1.5h-2.9v8.4h-1.7L307.5,53.9z"/>
<path d="M323.6,52.4v9.9h-1.7v-6.6l0,0l-2.7,4.7h-1.1l-2.7-4.7l0,0v6.7h-1.7v-9.9h1.7l3.3,5.9l0,0l3.3-5.9H323.6z"/>
</svg>
