<svg version="1.1"  xmlns="http://www.w3.org/2000/svg" xmlns:xlink="http://www.w3.org/1999/xlink" x="0px" y="0px"
	 viewBox="0 0 342.7 345.6" style="enable-background:new 0 0 342.7 345.6;" xml:space="preserve">
<path class="u1" d="M134.7,235.9c-1.6,0-3.2,0.3-4.7,0.8c-1.5,0.5-2,1.4-1.6,2.5c0.9,2.8,1.5,5.7,1.6,8.6c0.3,3.2,0.2,6.4-0.2,9.6
	c-0.3,2.8-1,5.5-2,8.1c-0.9,2.3-2.2,3.8-3.7,4.3c-0.9,0.4-1.9,0-2.3-0.8c-0.1-0.1-0.1-0.3-0.1-0.4c-0.5-1.4-0.7-2.9-0.5-4.4
	c0.1-1.6,0.2-3.3,0.4-5s0.3-3.4,0.3-5.1c0.1-1.6-0.1-3.1-0.6-4.6c-0.4-1.1-1.1-2.1-2-2.9c-1-0.9-2.1-1.6-3.3-2.1
	c-1.3-0.5-2.6-0.8-4-0.9c-1.4-0.1-2.7,0.1-4,0.5c-2,0.7-2.8,1.6-2.4,2.8c0.7,2.3,1.1,4.8,1,7.2c0,2.7-0.1,5.5-0.4,8.4
	c-0.2,2.8-0.4,5.6-0.4,8.2c-0.1,2.3,0.2,4.6,0.9,6.8c0.7,2.4,2.4,4.3,4.7,5.3c2.2,0.8,4.7,0.8,6.9-0.1c2-0.7,3.9-1.7,5.6-2.9
	c1.4-1.1,2.8-2.3,4-3.6c0.9-1,1.8-2,2.5-3.1c0.6-0.9,1.1-1.4,1.3-1.5c0.3-0.1,0.7,0.1,1.4,0.6c0.9,0.5,1.9,1,2.9,1.3
	c1.4,0.4,2.9,0.7,4.4,0.7c1.9,0,3.9-0.3,5.7-1c1-0.4,1.4-1,1.1-1.8c-0.1-0.3-0.2-0.6-0.4-0.9c-0.1-0.2-0.3-0.5-0.6-0.7
	c-0.3-0.4-0.5-0.8-0.7-1.2c-0.3-0.7-0.6-1.4-0.8-2.1c-0.8-2.4-1.2-5-1.3-7.5c0-2.7,0.1-5.3,0.4-8c0.2-2.5,0.5-4.8,0.7-6.7
	c0.2-1.4,0.2-2.8-0.1-4.2c-0.4-0.9-1.1-1.7-1.9-2.2c-1.1-0.7-2.3-1.2-3.6-1.5C137.7,236,136.2,235.8,134.7,235.9L134.7,235.9"/>
<path class="s" d="M78.1,196.7c-3.8,0.2-7.6,0.9-11.2,2.3c-4.4,1.5-8.5,3.8-12.1,6.8c-3.3,2.7-6,6-8.1,9.7c-2,3.4-3.3,7.2-3.8,11.1
	c-0.5,3.7-0.1,7.5,1.1,11c1.3,3.9,3.8,7.4,7,10c3.3,2.7,6.8,5.2,10.5,7.6c3.7,2.4,7.2,5,10.6,7.8c3.3,2.8,5.8,6.4,7.2,10.5
	c1.3,3.3,1.4,7,0.2,10.4c-1,2.9-3.3,5.2-6.2,6.2c-2.8,1.2-6,1-8.7-0.4c-2.5-1.4-4.4-3.8-5.6-7.3c-0.8-2.2-1.3-4.5-1.4-6.9
	c0-1.7,0.1-3.4,0.4-5.1c0.2-1.2,0.5-2.4,0.9-3.5c0.3-0.7,0.4-1.5,0.2-2.2c-0.2-0.5-0.6-0.9-1.2-1c-0.6-0.1-1.3,0-1.8,0.2
	c-2.6,0.9-4.9,2.3-7,4.1c-2.3,1.9-4.2,4.1-5.8,6.6c-1.5,2.5-2.7,5.2-3.3,8c-0.7,2.8-0.5,5.6,0.4,8.3c0.9,2.7,2.6,5,4.8,6.6
	c2.4,1.8,5.1,3,8,3.7c3.2,0.8,6.6,1.1,9.9,0.8c3.6-0.2,7.1-0.9,10.5-2.1c4.5-1.5,8.6-3.8,12.3-6.7c3.5-2.7,6.4-6.1,8.6-9.9
	c2.2-3.7,3.5-7.8,4-12.1c0.5-4.5,0-9.1-1.5-13.4c-1.4-4.4-4-8.3-7.4-11.4c-3.3-2.9-6.8-5.6-10.5-8c-3.6-2.4-7-4.7-10.1-6.9
	c-2.9-2-5.1-4.9-6.3-8.2c-1.3-3.6-1.3-6.7,0-9.3c1.3-2.6,3.6-4.5,6.3-5.3c1.5-0.6,3.2-0.7,4.8-0.1c1.4,0.6,2.5,2,3.2,4.3
	c0.7,1.9,1.2,4,1.6,6c0.2,1.5,0.4,3,0.4,4.6c0.1,1.1,0.1,2.1,0,3.2c-0.1,0.7,0,1.4,0.2,2.1c0.2,1.1,1.2,1.8,2.3,1.6
	c0.2,0,0.4-0.1,0.6-0.2c1.9-0.8,3.6-1.9,5-3.3c1.9-1.8,3.5-3.8,4.8-6c1.4-2.3,2.5-4.7,3.1-7.3c0.7-2.4,0.6-5-0.2-7.4
	c-0.7-1.8-1.7-3.5-3-4.8c-1.6-1.6-3.5-2.8-5.6-3.6c-2.5-0.9-5.1-1.3-7.8-1.2L78.1,196.7"/>
<path class="n" d="M207.1,186.8c-3.6,0.1-7.2,0.8-10.7,2.1c-5.4,1.8-10.5,4.2-15.4,7.1c-4.7,2.8-9.3,5.8-13.7,8.8s-8.8,5.9-13.1,8.6
	c-4.3,2.7-8.9,4.9-13.7,6.5c-3.2,1.2-6.6,2-10.1,2.3c-2.4,0.2-4.9-0.1-7.2-0.9c-1.9-0.7-3.6-1.9-4.8-3.5c-1.3-1.7-2.3-3.7-3-5.7
	c-0.9-2.4-1.3-5.1-1.1-7.7c0.2-2.2,0.7-4.3,1.6-6.3c0.8-1.8,1.7-3.4,2.9-4.9c1.1-1.4,2.1-2.5,2.9-3.5c0.8-0.9,1.1-1.6,0.9-2.2
	c-0.2-0.6-0.8-0.7-1.8-0.3c-1.3,0.5-2.5,1.2-3.7,2c-1.8,1.2-3.4,2.5-4.9,3.9c-1.8,1.7-3.5,3.6-5,5.5c-1.6,2.1-3,4.3-4.1,6.7
	c-1.1,2.4-1.8,5.1-2.1,7.7c-0.3,2.8,0,5.7,1,8.4c0.9,2.6,2.4,5,4.4,6.9c1.9,1.8,4.2,3.2,6.8,4c2.7,0.9,5.6,1.3,8.4,1.1
	c3.2-0.2,6.4-0.8,9.4-1.9c5.6-1.9,11.1-4.4,16.2-7.3c4.9-2.8,9.6-5.7,14.2-8.6s8.9-5.7,13.3-8.3c4.3-2.6,8.9-4.8,13.6-6.4
	c3.1-1.1,6.3-1.8,9.6-2.2c2.8-0.3,5.6,0,8.2,0.9c2.6,1,4.8,2.6,6.6,4.7c2.2,2.6,3.8,5.6,4.8,8.8c1.3,3.9,2,8.1,1.9,12.2
	c0,4.5-0.7,8.9-2,13.1c-1.3,4.2-3.4,8.1-6.1,11.5c-2.7,3.4-6.3,5.9-10.4,7.3c-2.2,0.9-4.7,0.9-6.9,0c-1.9-0.7-3.3-2.3-4-4.2
	c-0.9-2.5-1.3-5.2-1.3-7.9c0-2.7,0.2-5.3,0.5-8c0.3-2.6,0.5-5,0.7-7.4c0.2-2.1,0-4.2-0.7-6.2c-0.6-1.9-1.9-3.5-3.7-4.3
	c-1.8-0.8-4-0.7-6.6,0.2c-2.2,0.7-4.3,1.9-6.1,3.5c-1.6,1.3-3,2.8-4.3,4.4c-1,1.2-1.9,2.5-2.7,3.9c-0.3,0.6-0.6,1.2-1,1.7
	c-0.1,0-0.4-0.3-0.9-1c-0.6-0.9-1.3-1.6-2.1-2.2c-1.2-0.8-2.5-1.3-3.9-1.6c-2-0.3-4-0.1-5.8,0.7c-1.9,0.7-2.7,1.6-2.3,2.8
	c0.8,2.5,1.1,5.2,1.1,7.8c0,3.1-0.1,6.3-0.4,9.6s-0.4,6.4-0.4,9.4c-0.1,2.5,0.2,5,0.9,7.3c0.3,0.9,1.1,1.7,2,2
	c1.1,0.4,2.2,0.6,3.4,0.5c1.3,0,2.7-0.2,4-0.5c1.4-0.3,2.7-0.6,4-1.1c0.8-0.3,1.3-0.7,1.4-1.2c0.1-0.7,0-1.3-0.3-2
	c-0.4-1.4-0.7-2.9-0.7-4.3c-0.1-1.9,0-3.8,0.1-5.7c0.2-2,0.4-4.1,0.7-6.2s0.7-4,1.1-5.8c0.5-2.4,1.4-4.7,2.8-6.9
	c1.1-1.7,2.1-2.6,2.8-2.9c0.8-0.4,1.7-0.1,2.1,0.7c0.1,0.1,0.1,0.3,0.1,0.4c0.4,1.4,0.5,2.9,0.4,4.4c-0.1,1.9-0.2,3.9-0.3,6.1
	s-0.1,4.6,0,7c0.1,2.3,0.5,4.6,1.2,6.8c0.7,2.1,1.9,4,3.5,5.5c1.5,1.4,3.4,2.4,5.4,2.9c2.2,0.5,4.6,0.7,6.9,0.4
	c2.7-0.3,5.3-0.9,7.8-1.8c3.6-1.3,7-3.1,10.1-5.5c3.3-2.5,6.3-5.4,8.9-8.6c2.7-3.4,5.1-7,7-10.9c1.9-3.9,3.5-8,4.5-12.3
	c1.1-4.2,1.6-8.5,1.5-12.8c0-4.2-0.8-8.4-2.1-12.4c-1-3.2-2.7-6-5-8.5c-2.1-2.2-4.7-3.9-7.6-5c-2.8-1-5.7-1.5-8.7-1.5h-0.8"/>
<path class="u2" d="M220.3,143c-1.4,0-2.8,0.2-4.1,0.7c-1.3,0.4-1.7,1.2-1.4,2.2c0.8,2.4,1.3,5,1.4,7.5c0.2,2.8,0.2,5.6-0.1,8.4
	c-0.3,2.4-0.8,4.8-1.7,7.1c-0.8,2-1.9,3.3-3.2,3.8c-0.7,0.4-1.6,0-2-0.7c-0.1-0.1-0.1-0.3-0.1-0.4c-0.4-1.2-0.6-2.5-0.5-3.9
	c0.1-1.4,0.2-2.9,0.3-4.4c0.1-1.5,0.2-3,0.3-4.4c0.1-1.4-0.1-2.7-0.5-4c-0.4-1-1-1.8-1.7-2.5c-0.8-0.8-1.8-1.4-2.9-1.8
	c-1.1-0.5-2.3-0.7-3.5-0.8c-1.2-0.1-2.4,0.1-3.5,0.4c-1.8,0.6-2.5,1.4-2.1,2.4c0.7,2,1,4.1,0.9,6.3c0,2.4-0.1,4.8-0.3,7.3
	s-0.3,4.9-0.4,7.1c-0.1,2,0.2,4,0.8,5.9c0.6,2.1,2.1,3.8,4.1,4.6c1.9,0.7,4.1,0.7,6-0.1c1.8-0.6,3.4-1.5,4.9-2.6
	c1.3-0.9,2.4-2,3.5-3.1c0.8-0.9,1.5-1.8,2.2-2.7c0.5-0.8,0.9-1.2,1.2-1.3c0.2-0.1,0.6,0.1,1.2,0.5c0.8,0.5,1.7,0.8,2.6,1.1
	c1.2,0.4,2.5,0.6,3.8,0.6c1.7,0,3.4-0.3,4.9-0.9c0.9-0.3,1.2-0.8,1-1.6c-0.1-0.3-0.2-0.5-0.4-0.7l-0.5-0.6c-0.2-0.3-0.4-0.6-0.6-1
	c-0.3-0.6-0.5-1.2-0.7-1.8c-0.7-2.1-1.1-4.3-1.1-6.6c-0.1-2.3,0-4.6,0.2-6.9c0.2-2.2,0.4-4.2,0.6-5.9c0.2-1.2,0.2-2.4-0.1-3.6
	c-0.3-0.8-0.9-1.5-1.7-2c-1-0.6-2-1-3.1-1.3C222.9,143,221.6,142.9,220.3,143L220.3,143"/>
<path class="l1" d="M237.4,112.1c-1.7,0.6-2.4,1.4-2,2.4c0.5,2,0.7,4.1,0.6,6.1c0,2.9-0.1,6.1-0.3,9.8c-0.2,3.7-0.4,7.5-0.7,11.6
	c-0.3,4.1-0.5,8-0.7,11.6s-0.3,6.8-0.3,9.6c-0.1,2,0.1,3.9,0.5,5.8c0.3,0.8,0.9,1.5,1.7,1.7c1,0.3,2,0.5,3,0.4
	c1.2,0,2.4-0.2,3.5-0.4c1.2-0.3,2.3-0.6,3.5-1c0.7-0.3,1.1-0.6,1.2-1.1c0.1-0.6,0-1.2-0.2-1.7c-0.5-1.9-0.7-3.9-0.6-5.8
	c0-2.7,0.1-5.9,0.3-9.4c0.2-3.5,0.5-7.2,0.8-11.1c0.3-3.9,0.6-7.5,0.8-11c0.2-3.5,0.4-6.5,0.4-9c0.1-1.7,0-3.5-0.4-5.2
	c-0.3-0.7-0.9-1.4-1.6-1.8c-0.9-0.6-1.9-1.1-2.9-1.4c-1.1-0.4-2.3-0.6-3.4-0.7c-0.3,0-0.5,0-0.8,0
	C239.1,111.6,238.2,111.7,237.4,112.1"/>
<path class="l2" d="M256.8,105.3c-1.7,0.6-2.4,1.4-2,2.4c0.5,2,0.7,4.1,0.6,6.1c0,2.9-0.1,6.1-0.3,9.8c-0.2,3.7-0.4,7.5-0.7,11.6
	c-0.3,4.1-0.5,8-0.7,11.6c-0.2,3.6-0.3,6.8-0.3,9.6c-0.1,2,0.1,3.9,0.5,5.8c0.3,0.8,0.9,1.5,1.7,1.7c1,0.3,2,0.5,3,0.4
	c1.2,0,2.4-0.2,3.5-0.4c1.2-0.3,2.3-0.6,3.5-1c0.7-0.2,1.1-0.6,1.2-1.1c0.1-0.6,0-1.2-0.2-1.7c-0.5-1.9-0.7-3.9-0.6-5.8
	c0-2.7,0.1-5.9,0.3-9.4c0.2-3.5,0.5-7.2,0.8-11.1c0.3-3.9,0.6-7.5,0.8-11c0.2-3.5,0.4-6.5,0.4-9c0.1-1.7,0-3.5-0.4-5.2
	c-0.3-0.7-0.9-1.4-1.6-1.8c-0.9-0.6-1.9-1.1-2.9-1.4c-1.1-0.4-2.3-0.6-3.4-0.7c-0.3,0-0.5,0-0.8,0
	C258.5,104.8,257.6,105,256.8,105.3"/>
<path class="f" d="M266.3,45.4c-4.6,0.7-9.1,1.7-13.4,3.2c-4.2,1.4-8.3,3.1-12.2,5.2c-3.2,1.7-6.4,3.5-9.4,5.5c-2.4,1.5-4.6,3.2-6.7,5.1
	c-1.5,1.3-2.9,2.7-4.2,4.1c-1.1,1.2-1.5,2.1-1.3,2.7c0.2,0.4,0.5,0.8,1,0.9c0.5,0.2,1,0.2,1.5,0c1-0.6,2-1.3,2.8-2.2
	c1.4-1.3,3.3-2.9,5.6-4.8c2.7-2.1,5.6-4.1,8.6-5.8c3.7-2.2,7.7-4,11.8-5.4c3.9-1.4,7.9-2.4,12-3.2c3.2-0.6,6.5-0.8,9.8-0.5
	c2.5,0.2,4.9,0.8,7.1,2c1.8,1,3.1,2.6,3.8,4.5c1.3,3.8,0.4,7.6-2.8,11.3s-8.7,7-16.6,9.7c-7.3,2.4-14.7,4.2-22.3,5.3
	c-8.3,1.2-17.1,2.5-26.5,3.8c-9.4,1.3-19.4,3-29.8,5.2c-10.9,2.1-21.6,5-32.1,8.7c-5.8,2-11.4,4.4-16.9,7.2c-5,2.5-9.6,5.6-13.8,9.2
	c-3.5,3-6.4,6.8-8.3,11c-1.7,4-1.8,8.6-0.2,12.7c0.8,2.6,2.4,5,4.5,6.8c1.9,1.6,4.1,2.8,6.5,3.6c2.2,0.7,4.5,1.1,6.8,1.1
	c1.8,0.1,3.7-0.2,5.5-0.7c1.3-0.4,1.8-1.1,1.5-1.8c-0.2-0.4-0.5-0.8-0.9-1c-0.6-0.4-1.1-0.9-1.6-1.4c-0.7-0.8-1.4-1.6-2-2.6
	c-0.9-1.4-1.6-2.9-2.1-4.5c-1-2.7-1.1-5.7-0.4-8.5c0.7-3,2-5.8,3.8-8.3c2-2.8,4.4-5.3,7.1-7.4c2.9-2.3,6-4.2,9.3-5.8
	c-0.3,0.4-0.6,0.8-0.8,1.2l-1.4,2.3c-0.6,0.9-1.1,1.9-1.5,2.9c-0.4,1-0.8,2-1,3c-0.4,2.5-0.8,6.2-1.2,11s-0.6,10-0.9,15.7
	c-0.2,5.7-0.3,11.5-0.4,17.5s-0.1,11.6-0.1,16.8c0,5.2,0.1,9.6,0.3,13.2c0,2.3,0.3,4.5,0.8,6.8c0.4,1.1,1.3,1.9,2.5,2.2
	c1.4,0.4,2.9,0.5,4.4,0.4c1.7-0.1,3.5-0.3,5.2-0.7c1.6-0.3,3.2-0.8,4.7-1.3c0.8-0.2,1.5-0.8,1.7-1.6c0.2-0.9,0.2-1.9-0.1-2.8
	c-0.5-3.5-0.8-7.4-1-11.8s-0.3-8.6-0.3-12.7c0-4.7,0.1-9.5,0.2-14.4c2.3-0.8,4.7-1.4,7.2-1.8c2-0.3,4.1-0.5,6.2-0.6
	c1.8-0.1,3.3-0.1,4.5,0c0.7,0.1,1.5,0,2.2-0.1c0.4-0.1,0.8-0.4,1-0.8c0.2-0.5,0.4-1.1,0.5-1.7c0.3-1.4,0.7-3.1,1.2-4.9
	s1-3.5,1.5-5.2s0.9-3.1,1.2-4.3c0.3-0.8,0.4-1.6,0.3-2.5c-0.2-0.5-0.6-0.9-1.1-1.1c-0.8-0.2-1.7-0.2-2.5,0.2
	c-2.3,0.8-4.5,1.9-6.7,3.2c-2.5,1.4-4.8,2.9-7,4.4s-4.1,2.8-5.7,4.1c-1,0.7-1.9,1.5-2.6,2.5c0.1-2.2,0.2-4.8,0.2-7.8
	c0-3,0.1-6.3,0.3-9.8c0.2-3.5,0.5-7.2,0.8-11c0.4-3.9,0.9-7.7,1.7-11.6c0.6-2.7,1.5-4.2,2.9-4.7c5.1-1.7,10.3-3,15.6-3.8
	c5.5-0.8,11.2-1.4,17.1-1.8c5.9-0.4,11.9-0.7,18-0.9c6.1-0.2,12.3-0.5,18.4-1c6.1-0.5,12.2-1.2,18.3-2.2c6-1,12-2.5,17.8-4.5
	c3.8-1.3,7.4-3.1,10.7-5.4c3-2.1,5.7-4.7,7.9-7.7c2-2.7,3.4-5.8,4.1-9.1c0.7-3.3,0.4-6.8-0.7-10c-1.1-3.6-3.4-6.6-6.5-8.7
	c-3.2-2.1-6.8-3.4-10.6-3.8c-1.9-0.3-3.8-0.4-5.7-0.4c-2.4,0-4.8,0.2-7.2,0.5"/>
<path class="line" d="M122.5,296.9l-8.7,19.6c-0.4,0.9-1.4,1.5-2.4,1.5c-0.4,0-0.9-0.1-1.3-0.3l-1.3-0.6c-0.6-0.3-1.1-0.7-1.3-1.4
	c-0.3-0.8-0.2-1.6,0.1-2.4l8.7-19.6c0.4-0.9,1.4-1.5,2.4-1.5c0.5,0,0.9,0.1,1.3,0.3l1.3,0.6c0.6,0.3,1.1,0.8,1.4,1.4
	c0.2,0.6,0.2,1.2,0,1.8C122.6,296.6,122.6,296.8,122.5,296.9z"/>
<path class="line" d="M172,304.6c0.6,0.5,1,1.3,0.9,2.1l-0.3,11.1c0,1.5-1.3,2.7-2.8,2.7h-0.1h-1.4c-0.7,0-1.4-0.3-1.9-0.9
	c-0.5-0.5-0.8-1.3-0.8-2l0.3-11.1c0-1.5,1.2-2.7,2.7-2.7l1.5,0C170.9,303.9,171.5,304.2,172,304.6z"/>
<path class="line" d="M159.8,305.5l-3.8,36c-0.1,1.4-1.2,2.5-2.6,2.6h-0.2l-1.4-0.1c-0.8-0.1-1.5-0.5-2.1-1.1c-0.4-0.5-0.6-1.2-0.5-1.8l3.8-36
	c0.1-1.5,1.4-2.7,2.9-2.6l1.4,0.2c0.2,0,0.3,0,0.5,0.1C159,303,159.9,304.2,159.8,305.5L159.8,305.5z"/>
<path class="line" d="M134,298.4c0.7,0.7,1,1.7,0.6,2.7l-7.8,23.9c-0.3,1.2-1.4,2-2.6,2c-0.3,0-0.5,0-0.8-0.1l-1.3-0.4c-0.7-0.2-1.3-0.7-1.7-1.4
	c-0.3-0.6-0.4-1.3-0.2-2l7.8-23.9c0.3-1.2,1.4-2,2.6-2c0.2,0,0.5,0,0.7,0.1l1.3,0.4C133.2,297.7,133.6,298,134,298.4z"/>
<path class="line" d="M147.2,304.1l-4.2,19.9c-0.2,0.8-0.7,1.4-1.4,1.8c-0.4,0.2-0.9,0.3-1.3,0.4c-0.3,0-0.6,0-0.8-0.1l-1.4-0.5
	c-0.5-0.2-1-0.5-1.3-1c-0.5-0.6-0.7-1.5-0.5-2.3l4.2-19.7c0.3-1.2,1.4-2.1,2.7-2.1c0.2,0,0.4,0,0.6,0.1l1.3,0.3
	C146.6,301.1,147.5,302.6,147.2,304.1C147.2,304.1,147.2,304.1,147.2,304.1L147.2,304.1z"/>
<path class="line" d="M273,124.5c0.5,0.8,1.4,1.4,2.4,1.3c0.5,0,0.9-0.1,1.4-0.4l38.4-22.2c0.7-0.4,1.1-1,1.3-1.7c0.2-0.7,0.1-1.4-0.3-2l-0.7-1.3
	c-0.8-1.3-2.4-1.7-3.8-1l-38.4,22.2c-1.3,0.8-1.7,2.4-1,3.8L273,124.5z"/>
<path class="line" d="M284.6,142.5l37.1-12c1.5-0.4,3,0.4,3.4,1.9l0.5,1.4c0.2,0.7,0.1,1.5-0.3,2.2c-0.4,0.6-0.9,1-1.6,1.2l-37.1,12
	c-0.3,0.1-0.5,0.1-0.8,0.1c-0.4,0-0.8-0.1-1.2-0.3c-0.7-0.3-1.2-1-1.4-1.7l-0.5-1.4c-0.4-1.1,0-2.4,1-3
	C284.1,142.8,284.4,142.6,284.6,142.5L284.6,142.5z"/>
<path class="line" d="M278.1,232.7l0.6-1.3c0.4-0.9,1.4-1.5,2.4-1.5c0.5,0,0.9,0.1,1.3,0.3l23.1,10.2c1.3,0.7,1.9,2.3,1.2,3.7c0,0,0,0,0,0
	l-0.6,1.4c-0.2,0.6-0.7,1.1-1.4,1.4c-0.3,0.1-0.6,0.2-0.9,0.2c-0.3,0-0.7-0.1-1-0.2c-0.2,0-0.3-0.1-0.5-0.2l-23-10.3
	C278,235.7,277.5,234.1,278.1,232.7L278.1,232.7z"/>
<path class="line" d="M286.2,156c-0.4,0.7-0.6,1.4-0.4,2.2l0.3,1.4c0.2,0.8,0.7,1.4,1.4,1.8c0.4,0.2,0.9,0.3,1.4,0.3c0.2,0,0.4,0,0.6-0.1
	l38.6-8.2c1.3-0.2,2.2-1.4,2.1-2.8c0-0.2,0-0.3,0-0.5l-0.2-1.4c-0.3-1.5-1.8-2.4-3.3-2.1c0,0,0,0,0,0l-38.6,8.2
	C287.2,155,286.6,155.4,286.2,156L286.2,156z"/>
<path class="line" d="M305.1,231.3c-0.3,0-0.5,0-0.8-0.1l-19.7-6.3c-1.4-0.4-2.3-1.9-1.9-3.4l0.4-1.4c0.1-0.4,0.3-0.8,0.6-1.1
	c0.7-0.8,1.8-1.2,2.8-0.8l19.7,6.4c1.4,0.4,2.3,2,1.8,3.4l-0.4,1.3C307.4,230.5,306.3,231.3,305.1,231.3L305.1,231.3z"/>
<path class="line" d="M278.6,135.9l-0.6-1.3c-0.3-0.7-0.4-1.6-0.1-2.4c0.2-0.6,0.7-1.1,1.3-1.4l27.9-12.4c0.4-0.2,0.9-0.3,1.3-0.3
	c1,0,2,0.5,2.4,1.5l0.6,1.3c0.1,0.2,0.1,0.3,0.2,0.5c0.5,1.3-0.1,2.7-1.3,3.2c0,0,0,0,0,0L282.3,137c-0.4,0.2-0.9,0.3-1.3,0.3
	c-0.3,0-0.7-0.1-1-0.2C279.4,136.9,278.9,136.4,278.6,135.9L278.6,135.9z"/>
<path class="line" d="M285.2,266l-0.8,1.3c-0.4,0.7-1.1,1.1-1.9,1.3c-0.2,0-0.4,0.1-0.5,0.1c-0.5,0-0.9-0.1-1.3-0.4l-13.7-9
	c-0.7-0.4-1.2-1.1-1.3-1.9c-0.1-0.6,0-1.3,0.4-1.9l0.8-1.2c0.1-0.1,0.2-0.3,0.3-0.4c0.8-1.1,2.3-1.3,3.4-0.6l13.7,9
	C285.5,263.1,285.9,264.7,285.2,266z"/>
<path class="line" d="M317,214.6l-0.3,1.4c-0.2,1.2-1.2,2-2.4,2c-0.2,0-0.3,0-0.5,0c-0.2,0-0.3,0-0.5-0.1l-24.6-5.6c-1.5-0.4-2.3-1.9-1.9-3.4
	c0,0,0,0,0,0l0.3-1.4c0.3-1.2,1.4-2.1,2.7-2c0.2,0,0.5,0,0.7,0.1l24.6,5.6C316.6,211.7,317.4,213.2,317,214.6
	C317,214.6,317,214.6,317,214.6z"/>
<path class="line" d="M277.9,277.1c1.1,1,1.1,2.8,0.1,3.9l-1,1.1c-0.5,0.5-1.1,0.8-1.8,0.9h-0.2c-0.7,0-1.5-0.3-2-0.8l-14.7-13.2
	c-1.1-1-1.1-2.8-0.1-3.9l1-1.1c0.8-1,2.2-1.2,3.2-0.6c0.2,0.1,0.5,0.3,0.7,0.5L277.9,277.1z"/>
<path class="line" d="M324.4,199.1l-0.1,1.4c-0.1,0.8-0.5,1.5-1.1,2.1c-0.4,0.4-1,0.6-1.5,0.6h-0.2L291,200c-1.5-0.1-2.7-1.3-2.6-2.8l0.1-1.4
	c0-0.2,0.1-0.4,0.1-0.6c0.2-1.3,1.5-2.2,2.8-2l30.5,3.2C323.3,196.4,324.5,197.7,324.4,199.1L324.4,199.1z"/>
<path class="line" d="M309.1,262.3c0.1,0.9-0.1,1.7-0.7,2.4l-0.9,1.1c-0.7,1-2.1,1.3-3.1,0.7l-0.3-0.2l-30.6-18c-0.6-0.4-1.1-1-1.3-1.7
	c-0.2-0.7-0.1-1.4,0.3-2.1l0.7-1.2c0.8-1.3,2.4-1.7,3.8-1l30.9,18.1C308.5,260.8,309,261.5,309.1,262.3L309.1,262.3z"/>
<path class="line" d="M290.8,174.3c-1.4-0.1-2.5-1.2-2.6-2.6l-0.1-1.4c-0.1-0.8,0.2-1.6,0.9-2.1c0.5-0.4,1.1-0.7,1.7-0.8l49-5.2h0.3
	c1.4,0.1,2.5,1.2,2.6,2.6l0.2,1.4c0.1,0.7-0.1,1.4-0.5,1.9c-0.4,0.5-1,0.8-1.6,0.9c-0.2,0-0.3,0.1-0.5,0.1"/>
<path class="line" d="M289.4,184v-0.6c-0.1-1,0.4-1.9,1.2-2.4c0.4-0.3,1-0.4,1.5-0.4h21.8c1.5,0,2.7,1.2,2.8,2.7v0.6c0,0.7-0.2,1.4-0.8,1.9
	c-0.5,0.5-1.2,0.9-2,0.9h-21.8C290.6,186.7,289.4,185.5,289.4,184z"/>
<path class="line" d="M202.8,325.1c0.2,0.8,0,1.6-0.4,2.2c-0.4,0.6-1,1-1.6,1.1l-1.4,0.3c-0.2,0-0.4,0-0.6,0h-0.1c-1.2,0-2.3-0.9-2.5-2.1
	l-4.8-22.6c-0.4-1.5,0.5-2.9,2-3.3l1.4-0.3c1.5-0.4,3,0.5,3.3,2L202.8,325.1z"/>
<path class="line" d="M215.5,314c0.6,1.4-0.1,3-1.5,3.6c0,0,0,0,0,0l-1.3,0.5c-0.3,0.1-0.7,0.2-1,0.2c-0.4,0-0.9-0.1-1.3-0.3
	c-0.6-0.3-1-0.8-1.2-1.4l-5.1-14.9c-0.3-0.7-0.2-1.6,0.1-2.3c0.4-0.7,1-1.2,1.8-1.4l1.3-0.4c0.8-0.3,1.6-0.1,2.3,0.4
	c0.4,0.3,0.7,0.7,0.9,1.2L215.5,314z"/>
<path class="line" d="M264.4,284.9c1,1.1,1,2.8-0.1,3.9l-1,0.9c-0.6,0.5-1.3,0.7-2,0.7H261c-0.6-0.1-1.2-0.4-1.7-0.9l-10.1-12.1
	c-0.5-0.6-0.8-1.4-0.7-2.2c0.1-0.8,0.5-1.5,1.2-2l1.1-0.8c0.6-0.5,1.5-0.7,2.3-0.5c0.5,0.1,0.9,0.4,1.2,0.8L264.4,284.9z"/>
<path class="line" d="M185.3,305.2l3.9,37.5c0.1,1.5-1.1,2.8-2.6,2.9l-1.4,0.1H185c-0.6,0-1.1-0.2-1.5-0.5c-0.6-0.5-1-1.3-1.1-2.1l-4-37.5
	c-0.1-0.6,0.1-1.3,0.5-1.8c0.5-0.6,1.3-1,2.1-1.1l1.4-0.1c1.3-0.2,2.6,0.7,2.8,2.1c0,0,0,0,0,0C185.3,304.8,185.3,305,185.3,305.2
	L185.3,305.2z"/>
<path class="line" d="M231.5,313.9c0.3,0.7,0.4,1.6,0.1,2.3c-0.3,0.7-0.9,1.3-1.7,1.5l-1.4,0.5c-0.3,0.1-0.7,0.2-1,0.2c-1,0-1.9-0.6-2.3-1.5
	l-8.8-19.9c-0.3-0.7-0.4-1.6-0.1-2.4c0.2-0.6,0.7-1.1,1.3-1.3l1.3-0.6c0.4-0.2,0.9-0.3,1.3-0.3c1,0,2,0.5,2.4,1.5L231.5,313.9z"/>
<path class="line" d="M260.9,304c0.4,0.5,0.5,1.2,0.4,1.8c-0.1,0.8-0.6,1.5-1.2,2l-1.2,0.9c-0.4,0.3-1,0.5-1.5,0.5c-0.7,0-1.4-0.3-1.9-0.9
	c-0.1-0.1-0.2-0.3-0.4-0.4L238.4,285c-0.4-0.5-0.5-1.2-0.4-1.8c0.1-0.8,0.6-1.5,1.2-2l1.2-0.9c1.3-0.8,2.9-0.4,3.8,0.8L260.9,304z"
	/>
<path class="line" d="M238.3,295c0.4,0.7,0.6,1.5,0.4,2.3c-0.2,0.6-0.6,1.2-1.1,1.5l-1.2,0.7c-0.5,0.3-1.1,0.4-1.6,0.4c-0.9,0-1.7-0.4-2.2-1.2
	l-4.3-7.1c-0.4-0.7-0.6-1.5-0.4-2.2c0.2-0.8,0.8-1.4,1.5-1.8l1.3-0.7c0.7-0.4,1.5-0.4,2.3-0.1c0.5,0.2,0.9,0.6,1.2,1.1L238.3,295z"
	/>
<path class="line" d="M57.5,139.7l-0.5,1.3c-0.2,0.6-0.6,1.1-1.2,1.5c-0.4,0.3-0.9,0.4-1.4,0.4c-0.3,0-0.6-0.1-0.9-0.2l-30-11.5
	c-1.4-0.5-2.2-2-1.8-3.5l0.5-1.3c0.1-0.2,0.1-0.3,0.2-0.5c0.6-1.2,2-1.8,3.2-1.3l30.1,11.5C57.1,136.7,57.9,138.2,57.5,139.7z"/>
<path class="line" d="M62.8,126.2c0.2,0.7,0.2,1.5-0.2,2.2l-0.7,1.3c-0.4,0.9-1.3,1.4-2.3,1.4c-0.2,0-0.5,0-0.7-0.1c-0.3-0.1-0.5-0.1-0.8-0.3
	L22,112.4c-0.6-0.3-1.1-0.9-1.3-1.5c-0.2-0.7-0.2-1.5,0.2-2.2l0.7-1.3c0.5-0.9,1.4-1.4,2.4-1.4c0.5,0,0.9,0.1,1.3,0.3l36.1,18.4
	C62.1,125,62.6,125.6,62.8,126.2z"/>
<path class="line" d="M76.1,103.8c1.1,1,1.2,2.7,0.2,3.9c0,0,0,0,0,0l-0.9,1.2c-0.4,0.5-1,0.8-1.6,0.9h-0.3c-0.7,0-1.4-0.2-2-0.7L40.7,84.2
	c-1-0.9-1.2-2.4-0.4-3.6l0.9-1.2c1-1.3,2.8-1.5,4.1-0.5L76.1,103.8z"/>
<path class="line" d="M69,117.8l-0.8,1.2c-0.4,0.7-1.1,1.1-1.9,1.2c-0.1,0-0.3,0-0.4,0c-0.5,0-1-0.2-1.5-0.5L16.2,88.4c-1.3-0.8-1.6-2.5-0.8-3.8
	l0.8-1.2c0.8-1.3,2.5-1.6,3.8-0.8l48.1,31.4C69.5,114.7,69.8,116.4,69,117.8C69,117.7,69,117.7,69,117.8L69,117.8z"/>
<path class="line" d="M46.2,180.4l-43.5-2.2c-0.8-0.1-1.5-0.4-2-1C0.2,176.6,0,176,0,175.3l0.1-1.4c0-0.2,0.1-0.5,0.1-0.7c0.3-1.2,1.3-2,2.5-2
	h0.1l43.5,2.2c1.5,0.1,2.7,1.3,2.6,2.9l-0.1,1.4C48.9,179.2,47.7,180.3,46.2,180.4L46.2,180.4z"/>
<path class="line" d="M84.5,93.7c1.2,1,1.3,2.7,0.4,3.8l-1,1.1c-0.1,0.1-0.3,0.3-0.4,0.4c-0.5,0.4-1.1,0.7-1.7,0.7c-0.7,0-1.3-0.3-1.8-0.7
	L53.2,74.5c-1.2-1-1.3-2.7-0.4-3.9c0,0,0,0,0,0l1-1.1c1-1.1,2.7-1.3,3.9-0.4L84.5,93.7z"/>
<path class="line" d="M49.2,188.9l0.1,1.4c0.1,1.2-0.7,2.4-1.8,2.7c-0.3,0.1-0.6,0.2-0.8,0.2L12.8,195h-0.1c-1.5,0-2.7-1.2-2.7-2.7l-0.1-1.4
	c0-0.7,0.2-1.4,0.7-1.9c0.5-0.6,1.2-0.9,2-1l33.9-1.8C48,186.3,49.2,187.5,49.2,188.9z"/>
<path class="line" d="M53.3,151.6L53,153c-0.4,1.2-1.4,2-2.7,2c-0.2,0-0.5,0-0.7-0.1l-30.1-8c-1.5-0.4-2.3-1.9-1.9-3.4l0.4-1.4
	c0.4-1.5,1.9-2.3,3.4-1.9l30.1,8.1C52.8,148.7,53.7,150.2,53.3,151.6z"/>
<path class="line" d="M50.6,164l-0.2,1.4c-0.2,1.2-1.2,2.2-2.5,2.1h-0.3c-0.2,0-0.3,0-0.5,0l-44.9-7.1c-1.5-0.3-2.4-1.8-2.1-3.3c0,0,0,0,0,0
	l0.2-1.4c0.3-1.3,1.4-2.2,2.8-2.1c0.2,0,0.3,0,0.5,0l44.9,7.1C50,161.1,50.9,162.5,50.6,164z"/>
<path class="line" d="M212.9,29.8c-0.3-0.9-1-1.6-1.9-1.8l-1.4-0.3c-1.5-0.3-2.9,0.5-3.3,1.9L197,64.3c-0.2,0.7-0.1,1.5,0.3,2.1
	c0.4,0.6,1,1.1,1.7,1.3l1.4,0.4c0.2,0.1,0.5,0.1,0.7,0.1c1.2,0,2.3-0.8,2.7-2l9.3-34.7C213.1,30.9,213.1,30.3,212.9,29.8z"/>
<path class="line" d="M207.8,29.5L207.8,29.5z"/>
<path class="line" d="M143.6,2.1c-0.3-1.3-1.4-2.2-2.8-2.1c-0.2,0-0.3,0-0.5,0l-1.4,0.2c-1.5,0.3-2.4,1.8-2.1,3.2c0,0,0,0,0,0l9.4,59.3
	c0.1,1.2,1.2,2.2,2.5,2.2h0.3c0.2,0,0.3,0,0.5,0l1.4-0.2c1.5-0.3,2.4-1.8,2.1-3.3c0,0,0,0,0,0L143.6,2.1z"/>
<path class="line" d="M180.6,12.4c0.5,0.5,0.7,1.2,0.7,1.9l-2.4,46.9c-0.1,0.8-0.4,1.5-1,2c-0.5,0.4-1.1,0.6-1.7,0.7H176l-1.4-0.1
	c-0.2,0-0.5-0.1-0.7-0.2c-1.2-0.3-2-1.4-1.9-2.7l2.4-46.9c0-1.5,1.2-2.7,2.7-2.7l1.5,0.1C179.3,11.4,180.1,11.8,180.6,12.4
	L180.6,12.4z"/>
<path class="line" d="M164.2,27.9l1.7,33c0,1.5-1.2,2.8-2.7,2.8l-1.4,0.1h-0.2c-1.2,0-2.2-0.7-2.5-1.9c-0.1-0.3-0.1-0.5-0.2-0.8l-1.7-33
	c0-0.8,0.3-1.5,0.8-2c0.5-0.5,1.2-0.7,1.8-0.8l1.4-0.1l0.1,1.3l0,0l-0.1-1.3h0.1C163,25.3,164.2,26.4,164.2,27.9z"/>
<path class="line" d="M197.2,26.2l-5.8,36.6c-0.1,0.8-0.7,1.5-1.4,1.8c-0.4,0.2-0.9,0.3-1.4,0.3c-0.2,0-0.3,0-0.5,0l-1.4-0.2
	c-1.5-0.3-2.4-1.8-2.1-3.3l5.8-36.6c0.3-1.3,1.4-2.2,2.8-2.1c0.2,0,0.3,0,0.5,0l1.4,0.2c0.7,0.1,1.3,0.4,1.7,1
	c0.4,0.5,0.5,1.2,0.5,1.8C197.2,25.9,197.2,26.1,197.2,26.2L197.2,26.2z"/>
<path class="line" d="M94.5,86c1,1.1,0.9,2.8-0.2,3.9l-1.1,1c-0.2,0.1-0.3,0.3-0.5,0.4c-0.4,0.3-0.9,0.4-1.4,0.4c-0.8,0-1.5-0.4-2-1l-6.9-8.4
	c-1-1.1-0.9-2.8,0.2-3.9l1.1-0.9c1.1-1,2.8-0.9,3.9,0.2L94.5,86z"/>
<path class="line" d="M140.4,64.2c0.4,1.4-0.5,2.9-1.9,3.4l-1.4,0.4c-0.3,0.1-0.5,0.1-0.8,0.1c-0.6,0-1.1-0.2-1.5-0.5c-0.5-0.4-0.9-0.9-1.1-1.6
	l-8.1-29.9c-0.4-1.5,0.5-3,1.9-3.4l1.4-0.4c0.2-0.1,0.5-0.1,0.7-0.1c1.2,0,2.3,0.8,2.7,2L140.4,64.2z"/>
<path class="line" d="M116.2,72.6c0.7,1.3,0.2,3-1.1,3.7l-1.3,0.7c-0.4,0.2-0.9,0.3-1.3,0.3c-0.3,0-0.6,0-0.9-0.1c-0.7-0.2-1.2-0.7-1.5-1.3
	L94.6,45.5c-0.3-0.6-0.4-1.3-0.2-2c0.2-0.8,0.7-1.4,1.3-1.8l1.3-0.7c0.3-0.1,0.5-0.2,0.8-0.3c1.2-0.3,2.4,0.3,2.9,1.4L116.2,72.6z"
	/>
<path class="line" d="M105.3,79c0.8,1.3,0.4,3-0.9,3.8l-1.2,0.8c-0.4,0.3-0.9,0.4-1.5,0.4c-0.6,0-1.2-0.2-1.7-0.7c-0.2-0.2-0.5-0.4-0.6-0.7
	L81.6,55.3c-0.8-1.3-0.4-3,0.9-3.8l1.2-0.8c1.3-0.8,3-0.4,3.8,0.9L105.3,79z"/>
<path class="line" d="M128.2,68c0.5,1.4-0.3,3-1.7,3.5c0,0,0,0,0,0l-1.4,0.5c-0.3,0.1-0.6,0.2-0.9,0.2c-0.3,0-0.7-0.1-1-0.2
	c-0.7-0.3-1.3-1-1.6-1.7l-19-49.3c-0.2-0.6-0.2-1.3,0.1-1.9c0.3-0.7,1-1.3,1.7-1.6l1.4-0.5c1.2-0.5,2.6,0,3.2,1.2
	c0.1,0.2,0.2,0.3,0.2,0.5L128.2,68z"/>
<path class="tm" d="M307.5,53.9h-2.8v-1.5h7.3v1.5h-2.9v8.4h-1.7L307.5,53.9z"/>
<path class="tm" d="M323.6,52.4v9.9h-1.7v-6.6l0,0l-2.7,4.7h-1.1l-2.7-4.7l0,0v6.7h-1.7v-9.9h1.7l3.3,5.9l0,0l3.3-5.9H323.6z"/>
</svg>
