<svg version="1.1" xmlns="http://www.w3.org/2000/svg" xmlns:xlink="http://www.w3.org/1999/xlink" x="0px" y="0px"
	 viewBox="0 0 360 360" style="enable-background:new 0 0 360 360;" xml:space="preserve">
<g>
	<g>
		<defs>
			<path id="SVGID_1_" d="M162.9,114.8c9.4-3.2,18.5-5.7,27.4-7.4c8.9-1.7,17.3-3.1,25.4-4.2c8-1.1,15.6-2.2,22.6-3.2
				c7-1,13.4-2.5,19-4.5c6.7-2.3,11.5-5.1,14.2-8.3c2.7-3.2,3.5-6.4,2.4-9.7c-0.6-1.6-1.6-2.9-3.2-3.8c-1.6-0.9-3.6-1.5-6-1.7
				c-2.4-0.2-5.2-0.1-8.4,0.5c-3.2,0.5-6.6,1.4-10.2,2.7c-3.8,1.3-7.2,2.9-10.1,4.6c-2.9,1.7-5.3,3.4-7.3,5c-2,1.6-3.6,3-4.8,4.1
				c-1.2,1.1-2,1.8-2.4,1.9c-0.4,0.1-0.8,0.1-1.3,0c-0.4-0.2-0.7-0.4-0.8-0.7c-0.2-0.5,0.2-1.3,1.1-2.3c0.9-1,2.1-2.1,3.6-3.5
				c1.5-1.4,3.4-2.8,5.7-4.3c2.3-1.5,5-3.1,8-4.6c3-1.6,6.5-3,10.4-4.4c3.7-1.3,7.5-2.2,11.4-2.8c3.9-0.6,7.6-0.6,11-0.1
				c3.4,0.5,6.4,1.6,9,3.3c2.6,1.7,4.4,4.2,5.6,7.4c1,2.9,1.2,5.7,0.6,8.5c-0.6,2.8-1.7,5.4-3.5,7.8c-1.7,2.4-4,4.6-6.7,6.5
				c-2.8,1.9-5.8,3.5-9.1,4.6c-4.9,1.7-10,3-15.1,3.8c-5.2,0.9-10.4,1.5-15.6,1.9c-5.2,0.4-10.4,0.7-15.7,0.8
				c-5.2,0.2-10.4,0.4-15.4,0.7c-5,0.3-9.9,0.9-14.6,1.5c-4.7,0.7-9.1,1.8-13.3,3.2c-1.1,0.4-2,1.7-2.5,4c-0.7,3.3-1.2,6.5-1.5,9.8
				c-0.3,3.3-0.5,6.4-0.7,9.4c-0.2,3-0.3,5.8-0.3,8.4c0,2.6-0.1,4.8-0.2,6.6c0.1-0.3,0.8-1,2.2-2.1c1.4-1.1,3-2.2,4.8-3.5
				c1.9-1.3,3.9-2.5,6-3.7c2.1-1.2,4-2.1,5.7-2.7c0.9-0.3,1.7-0.4,2.1-0.2c0.5,0.2,0.8,0.5,0.9,0.9c0.1,0.3,0,1-0.2,2.1
				c-0.3,1.1-0.6,2.3-1,3.7c-0.4,1.4-0.9,2.9-1.3,4.4c-0.4,1.6-0.8,2.9-1.1,4.2c-0.2,0.7-0.3,1.1-0.5,1.5c-0.2,0.3-0.4,0.5-0.8,0.7
				c-0.3,0.1-0.9,0.1-1.9,0.1c-1,0-2.3,0-3.8,0c-1.6,0.1-3.3,0.2-5.3,0.5c-1.9,0.3-4,0.8-6.1,1.6c-0.1,4.2-0.2,8.3-0.2,12.3
				c0,3.5,0.1,7.1,0.2,10.8c0.2,3.8,0.5,7.1,0.9,10.1c0.2,1,0.2,1.8,0,2.4c-0.2,0.6-0.6,1.1-1.5,1.4c-1.1,0.4-2.5,0.8-4,1.1
				c-1.5,0.3-3,0.6-4.4,0.6c-1.4,0.1-2.7,0-3.7-0.3c-1.1-0.3-1.8-0.9-2.1-1.9c-0.3-0.7-0.5-2.7-0.6-5.8c-0.2-3.1-0.3-6.9-0.3-11.3
				c0-4.4,0-9.2,0.1-14.3c0.1-5.1,0.2-10.1,0.4-15c0.2-4.8,0.4-9.3,0.7-13.4c0.3-4.1,0.6-7.2,1-9.3c0.2-0.8,0.5-1.7,0.9-2.6
				c0.4-0.9,0.8-1.7,1.3-2.5c0.5-0.8,0.8-1.4,1.2-2c0.3-0.6,0.6-0.9,0.7-1c-2.8,1.4-5.5,3-8,5c-2.5,1.9-4.5,4-6.1,6.3
				c-1.6,2.3-2.7,4.6-3.3,7.1c-0.6,2.5-0.5,4.9,0.4,7.2c0.6,1.6,1.1,2.9,1.8,3.8c0.6,0.9,1.2,1.6,1.7,2.2c0.5,0.5,1,0.9,1.4,1.2
				c0.4,0.3,0.6,0.6,0.7,0.8c0.2,0.7-0.2,1.2-1.3,1.6c-1.2,0.4-2.8,0.6-4.7,0.6c-1.9,0-3.8-0.3-5.8-1c-2-0.6-3.8-1.6-5.5-3.1
				c-1.7-1.4-3-3.3-3.8-5.8c-1.3-3.8-1.3-7.4,0.2-10.8c1.5-3.4,3.8-6.5,7.1-9.4c3.3-2.9,7.2-5.5,11.8-7.9
				C153.1,118.5,157.9,116.5,162.9,114.8z M210.5,161.2c0.4,1,0.5,2.2,0.4,3.4c-0.1,1.2-0.1,2.5-0.3,3.8c-0.1,1.3-0.2,2.5-0.3,3.7
				c-0.1,1.2,0.1,2.3,0.4,3.3c0.3,0.9,0.9,1.2,1.8,0.9c1.1-0.4,2.1-1.5,2.7-3.2c0.7-1.7,1.2-3.8,1.5-6.1c0.3-2.3,0.3-4.7,0.1-7.1
				c-0.2-2.5-0.6-4.6-1.2-6.4c-0.3-0.9,0.1-1.5,1.2-1.9c1.1-0.4,2.3-0.6,3.5-0.6c1.2,0,2.3,0.1,3.3,0.4c1,0.3,1.9,0.6,2.6,1.1
				c0.7,0.5,1.2,1,1.4,1.7c0.2,0.6,0.2,1.6,0.1,3.1c-0.2,1.4-0.3,3.1-0.5,5c-0.2,1.9-0.3,3.8-0.2,5.9c0,2,0.4,3.9,0.9,5.6
				c0.2,0.7,0.4,1.2,0.6,1.6c0.2,0.4,0.4,0.7,0.5,0.9c0.2,0.2,0.3,0.4,0.4,0.6c0.1,0.2,0.2,0.4,0.3,0.6c0.2,0.6-0.1,1.1-0.8,1.3
				c-1.5,0.5-3,0.8-4.2,0.7c-1.3-0.1-2.3-0.2-3.3-0.5c-0.9-0.3-1.6-0.6-2.2-0.9c-0.5-0.3-0.9-0.5-1.1-0.4c-0.2,0.1-0.5,0.4-1,1.1
				c-0.5,0.7-1.1,1.5-1.9,2.3c-0.8,0.9-1.8,1.8-3,2.7c-1.2,0.9-2.6,1.6-4.2,2.2c-1.8,0.6-3.5,0.6-5.1,0c-1.6-0.6-2.8-1.9-3.5-3.9
				c-0.5-1.4-0.7-3.1-0.7-5c0-2,0.2-4,0.3-6.1c0.2-2.1,0.3-4.2,0.3-6.2c0-2-0.2-3.8-0.8-5.4c-0.3-0.9,0.3-1.6,1.8-2.1
				c0.9-0.3,1.9-0.5,3-0.4c1.1,0.1,2,0.3,3,0.7c0.9,0.4,1.7,0.9,2.4,1.5C209.8,159.7,210.3,160.4,210.5,161.2z M244.5,127.7
				c0.3,0.8,0.4,2.3,0.3,4.4c-0.1,2.2-0.2,4.7-0.4,7.7c-0.2,2.9-0.4,6-0.7,9.3c-0.3,3.3-0.5,6.5-0.7,9.5s-0.3,5.7-0.3,8
				c0,2.3,0.2,4,0.5,5c0.2,0.6,0.3,1.1,0.2,1.4c-0.1,0.4-0.4,0.7-1,0.9c-0.9,0.3-1.9,0.6-3,0.8c-1.1,0.2-2.1,0.3-3,0.3
				c-0.9,0-1.8-0.1-2.5-0.4c-0.7-0.3-1.2-0.8-1.5-1.5c-0.3-0.9-0.5-2.6-0.5-5c0-2.4,0.1-5.1,0.3-8.2c0.2-3.1,0.4-6.4,0.6-9.9
				c0.2-3.5,0.4-6.8,0.6-9.9c0.2-3.1,0.2-5.9,0.2-8.4c0-2.4-0.2-4.2-0.6-5.2c-0.3-0.9,0.3-1.6,1.7-2.1c0.8-0.3,1.7-0.4,2.8-0.3
				c1,0.1,2,0.3,2.9,0.6c0.9,0.3,1.8,0.7,2.5,1.2C243.9,126.7,244.3,127.2,244.5,127.7z M261,122c0.3,0.8,0.4,2.3,0.3,4.4
				c-0.1,2.2-0.2,4.7-0.4,7.7c-0.2,2.9-0.4,6-0.7,9.3c-0.3,3.3-0.5,6.5-0.7,9.5c-0.2,3-0.3,5.7-0.3,8c0,2.3,0.2,4,0.5,5
				c0.2,0.6,0.3,1.1,0.2,1.4c-0.1,0.4-0.4,0.7-1,0.9c-0.9,0.3-1.9,0.6-3,0.8c-1.1,0.2-2.1,0.3-3,0.3c-0.9,0-1.8-0.1-2.5-0.4
				c-0.7-0.3-1.2-0.8-1.5-1.5c-0.3-0.9-0.5-2.6-0.5-5c0-2.4,0.1-5.1,0.3-8.2c0.2-3.1,0.4-6.4,0.6-9.9c0.2-3.5,0.4-6.8,0.6-9.9
				c0.2-3.1,0.2-5.9,0.2-8.4c0-2.4-0.2-4.2-0.6-5.2c-0.3-0.9,0.3-1.6,1.7-2.1c0.8-0.3,1.7-0.4,2.8-0.3c1,0.1,2,0.3,2.9,0.6
				c0.9,0.3,1.8,0.7,2.5,1.2C260.4,121,260.8,121.5,261,122z M91.3,207.1c-2.5,0.9-4.3,2.4-5.4,4.6c-1.1,2.2-1.1,4.9,0,7.9
				c0.9,2.7,2.7,5,5.4,7c2.7,1.9,5.5,3.9,8.6,5.9c3.1,2,6.1,4.3,8.9,6.8c2.9,2.5,5,5.7,6.3,9.7s1.8,7.8,1.4,11.5
				c-0.4,3.7-1.6,7.1-3.5,10.3c-1.9,3.2-4.3,6-7.4,8.4s-6.6,4.4-10.5,5.7c-2.9,1-5.9,1.6-8.9,1.8c-3,0.2-5.8-0.1-8.4-0.7
				c-2.6-0.7-4.9-1.7-6.8-3.2c-1.9-1.5-3.3-3.3-4.1-5.7c-0.8-2.3-0.9-4.7-0.4-7.1c0.6-2.4,1.5-4.7,2.8-6.8c1.3-2.2,3-4,4.9-5.7
				c1.9-1.6,3.9-2.8,5.9-3.5c0.5-0.2,1.1-0.2,1.6-0.2c0.5,0.1,0.8,0.4,1,0.8c0.2,0.5,0.1,1.1-0.2,1.9c-0.3,0.8-0.5,1.8-0.8,3
				c-0.2,1.2-0.3,2.7-0.3,4.3c0,1.7,0.4,3.6,1.2,5.9c1,2.9,2.6,5,4.8,6.2c2.2,1.2,4.6,1.3,7.4,0.4c2.6-0.9,4.3-2.6,5.3-5.3
				c1-2.6,0.9-5.6-0.2-8.8c-1.2-3.6-3.3-6.5-6.1-8.9c-2.9-2.4-5.9-4.6-9-6.7c-3.1-2.1-6.1-4.2-9-6.5c-2.8-2.3-4.8-5.1-6-8.5
				c-1-2.9-1.3-6.1-0.9-9.4c0.4-3.3,1.5-6.5,3.2-9.5c1.7-3,4-5.8,7-8.3c2.9-2.5,6.3-4.4,10.3-5.8c3.6-1.3,6.8-1.9,9.6-2
				c2.8,0,5.1,0.3,7.1,1c2,0.7,3.6,1.8,4.8,3c1.2,1.3,2,2.7,2.5,4.1c0.7,2,0.8,4.1,0.2,6.3c-0.6,2.2-1.5,4.3-2.7,6.2
				c-1.2,1.9-2.6,3.6-4.2,5.1c-1.6,1.5-3,2.4-4.3,2.9c-1.2,0.4-2.1,0-2.5-1.2c-0.2-0.5-0.2-1.1-0.2-1.8c0.1-0.7,0.1-1.6,0-2.7
				c0-1.1-0.2-2.4-0.4-3.9c-0.2-1.5-0.7-3.2-1.3-5.1s-1.6-3.2-2.8-3.7C94.2,206.5,92.9,206.6,91.3,207.1z M136,241.9
				c0.4,1.2,0.6,2.5,0.5,3.9c-0.1,1.4-0.2,2.9-0.3,4.3c-0.1,1.5-0.2,2.9-0.3,4.3c-0.1,1.4,0.1,2.6,0.5,3.8c0.4,1.1,1.1,1.4,2.1,1.1
				c1.3-0.5,2.4-1.7,3.2-3.7c0.8-2,1.4-4.3,1.7-7c0.3-2.6,0.4-5.4,0.1-8.2c-0.2-2.8-0.7-5.3-1.4-7.4c-0.3-1,0.1-1.7,1.3-2.2
				c1.3-0.5,2.6-0.7,4-0.7c1.4,0,2.6,0.1,3.8,0.4c1.2,0.3,2.2,0.7,3,1.3c0.9,0.6,1.4,1.2,1.7,1.9c0.2,0.7,0.3,1.9,0.1,3.6
				c-0.2,1.7-0.4,3.6-0.6,5.7c-0.2,2.2-0.3,4.4-0.2,6.8c0,2.3,0.4,4.5,1.1,6.4c0.3,0.8,0.5,1.4,0.7,1.8c0.2,0.4,0.4,0.8,0.6,1
				c0.2,0.2,0.3,0.4,0.5,0.6c0.1,0.2,0.2,0.4,0.3,0.7c0.2,0.7-0.1,1.2-1,1.5c-1.8,0.6-3.4,0.9-4.8,0.8c-1.4-0.1-2.7-0.3-3.7-0.6
				c-1-0.3-1.9-0.7-2.5-1.1c-0.6-0.4-1-0.5-1.2-0.5c-0.2,0.1-0.6,0.5-1.1,1.3c-0.5,0.8-1.2,1.7-2.2,2.7c-0.9,1-2,2-3.4,3.1
				c-1.4,1-3,1.9-4.8,2.5c-2.1,0.7-4,0.7-5.9,0.1c-1.9-0.7-3.2-2.2-4-4.5c-0.6-1.6-0.8-3.5-0.8-5.8c0.1-2.2,0.2-4.6,0.4-7
				c0.2-2.4,0.3-4.8,0.3-7.1c0-2.3-0.3-4.4-0.9-6.2c-0.3-1,0.3-1.8,2.1-2.4c1.1-0.4,2.2-0.5,3.4-0.4c1.2,0.1,2.4,0.3,3.4,0.8
				c1,0.4,2,1,2.8,1.8C135.1,240.2,135.7,241,136,241.9z M182.5,248.3c-0.6-1.8-1-3.7-1.1-5.8c-0.1-2.1-0.1-4,0-5.9
				c0.1-1.9,0.2-3.6,0.3-5.2c0.1-1.6,0-2.8-0.3-3.7c-0.3-0.9-1-1.3-1.9-0.9c-0.7,0.2-1.5,1.1-2.4,2.5c-1,1.4-1.8,3.4-2.4,5.8
				c-0.3,1.5-0.6,3.2-0.9,4.9s-0.5,3.5-0.6,5.3c-0.1,1.7-0.2,3.4-0.1,4.9c0.1,1.5,0.3,2.7,0.6,3.7c0.2,0.7,0.3,1.2,0.2,1.7
				c-0.1,0.5-0.5,0.8-1.2,1.1c-1.1,0.4-2.2,0.7-3.4,0.9c-1.2,0.3-2.4,0.4-3.4,0.4c-1.1,0-2.1-0.1-2.9-0.4c-0.8-0.3-1.4-0.9-1.7-1.7
				c-0.6-1.6-0.8-3.7-0.8-6.3c0-2.6,0.2-5.2,0.4-8c0.2-2.8,0.3-5.5,0.3-8.2c0-2.7-0.3-4.9-0.9-6.7c-0.3-1,0.3-1.8,2-2.4
				c2-0.7,3.6-0.9,5-0.6c1.4,0.3,2.5,0.7,3.3,1.3c0.8,0.6,1.5,1.2,1.8,1.9c0.4,0.6,0.6,0.9,0.8,0.9c0.1,0,0.4-0.5,0.9-1.5
				c0.5-0.9,1.3-2,2.3-3.3c1-1.2,2.2-2.5,3.7-3.8c1.5-1.3,3.2-2.2,5.2-2.9c2.3-0.8,4.1-0.8,5.6-0.2c1.5,0.7,2.6,1.9,3.2,3.7
				c0.5,1.5,0.7,3.3,0.6,5.3c-0.1,2-0.3,4.1-0.6,6.3c-0.3,2.2-0.4,4.5-0.4,6.8c0,2.3,0.3,4.6,1.1,6.7c0.6,1.6,1.7,2.8,3.4,3.6
				c1.7,0.8,3.7,0.8,5.9,0c3.6-1.2,6.5-3.3,8.8-6.2c2.3-2.9,4-6.2,5.2-9.8c1.2-3.7,1.7-7.4,1.7-11.2c0-3.8-0.5-7.3-1.6-10.4
				c-1.1-3.1-2.5-5.6-4.1-7.5c-1.6-1.9-3.5-3.2-5.6-4c-2.1-0.8-4.4-1-7-0.8c-2.6,0.2-5.3,0.8-8.2,1.9c-4,1.4-7.9,3.2-11.6,5.5
				c-3.7,2.2-7.5,4.6-11.3,7.1c-3.8,2.5-7.9,5-12.1,7.4c-4.2,2.4-8.8,4.5-13.9,6.2c-2.7,0.9-5.4,1.5-8,1.6c-2.6,0.1-5-0.2-7.2-0.9
				c-2.2-0.7-4.1-1.9-5.8-3.4c-1.7-1.5-2.9-3.5-3.7-5.9c-0.8-2.4-1.1-4.8-0.9-7.2c0.3-2.3,0.8-4.5,1.8-6.6c0.9-2.1,2.1-4,3.5-5.7
				c1.4-1.8,2.8-3.3,4.3-4.7c1.5-1.4,2.9-2.5,4.2-3.4c1.3-0.9,2.4-1.4,3.1-1.7c0.8-0.3,1.3-0.2,1.5,0.3c0.2,0.5-0.1,1.2-0.8,1.9
				c-0.7,0.8-1.6,1.8-2.5,3c-0.9,1.2-1.8,2.6-2.5,4.2c-0.7,1.6-1.1,3.4-1.3,5.4c-0.2,2,0.1,4.2,1,6.5c0.7,1.9,1.5,3.5,2.6,4.9
				c1.1,1.4,2.4,2.4,4.1,3c1.7,0.6,3.7,0.9,6.1,0.8c2.4-0.1,5.3-0.8,8.6-1.9c4.1-1.4,8-3.3,11.7-5.6s7.4-4.7,11.2-7.3
				c3.8-2.6,7.7-5.1,11.7-7.5c4-2.4,8.4-4.5,13.2-6.1c3.1-1.1,6.2-1.7,9.1-1.8c2.9-0.1,5.6,0.3,8.1,1.3c2.5,0.9,4.6,2.4,6.5,4.3
				c1.9,1.9,3.3,4.3,4.3,7.2c1.2,3.4,1.8,6.9,1.8,10.6c0,3.7-0.4,7.3-1.3,10.9c-0.9,3.6-2.2,7.1-3.9,10.5c-1.7,3.4-3.7,6.5-5.9,9.3
				c-2.3,2.8-4.8,5.3-7.6,7.3c-2.8,2.1-5.6,3.6-8.6,4.7c-2.3,0.8-4.5,1.3-6.6,1.5c-2.1,0.2-4.1,0.1-5.8-0.4
				c-1.8-0.4-3.3-1.3-4.6-2.4C184.2,251.8,183.2,250.3,182.5,248.3z"/>
		</defs>
		<use xlink:href="#SVGID_1_"  style="overflow:visible;"/>
		<clipPath id="SVGID_2_">
			<use xlink:href="#SVGID_1_"  style="overflow:visible;"/>
		</clipPath>
	</g>
</g>
<g id="Layer_3">
	<defs>
		<path id="SVGID_3_" d="M306.3,118.9c-12.3,6.3-24.6,12.5-36.9,18.8c0.2,0.4,0.4,0.7,0.6,1.1c12.3-6.3,24.6-12.5,36.9-18.8
			C306.7,119.7,306.5,119.3,306.3,118.9z M306.3,119c-12.3,6.3-24.6,12.5-36.9,18.8c0.5,0.1,1.1,0.3,1.6,0.4
			c-0.2-0.4-0.4-0.7-0.6-1.1c-0.1,0.5-0.3,1.1-0.4,1.6c12.3-6.3,24.6-12.5,36.9-18.8c-0.5-0.1-1.1-0.3-1.6-0.4
			c0.2,0.4,0.4,0.8,0.6,1.1c0.7,1.4,2.8,0.2,2.1-1.2c-0.2-0.4-0.4-0.8-0.6-1.1c-0.3-0.6-1.1-0.7-1.6-0.4
			c-12.3,6.3-24.6,12.5-36.9,18.8c-0.6,0.3-0.7,1.1-0.4,1.6c0.2,0.4,0.4,0.7,0.6,1.1c0.3,0.6,1.1,0.7,1.6,0.4
			c12.3-6.3,24.6-12.5,36.9-18.8C308.9,120.4,307.6,118.3,306.3,119z M322.2,169.7c-13.9,1.5-27.8,3-41.8,4.4c0,0.4,0.1,0.8,0.1,1.2
			c13.9-1.5,27.9-2.9,41.8-4.4C322.3,170.5,322.3,170.1,322.2,169.7z M322.4,169.7c-4.2,0.4-39.3,2.5-39.5,4.8
			c-0.1,1,6.7-0.1,8.1-0.2c3.5-0.4,7-0.7,10.4-1.1c1.9-0.2,19.8-2.1,19.8-2.2c0.2,1.5,2.6,1.5,2.4,0c-0.1-0.4-0.1-0.8-0.2-1.2
			c-0.1-0.6-0.5-1.3-1.2-1.2c-13.9,1.5-27.8,3-41.8,4.4c-0.6,0.1-1.3,0.5-1.2,1.2c0,0.4,0.1,0.8,0.1,1.2c0.1,0.6,0.5,1.3,1.2,1.2
			c13.9-1.5,27.9-2.9,41.8-4.4C323.9,171.9,323.9,169.5,322.4,169.7z M299.4,114c-10.9,6.3-21.8,12.6-32.7,18.9
			c0.2,0.4,0.4,0.7,0.6,1.1c10.9-6.3,21.8-12.6,32.7-18.9C299.9,114.8,299.7,114.4,299.4,114z M299.5,114.1
			c-10.9,6.3-21.8,12.6-32.7,18.9c0.5,0.1,1.1,0.3,1.6,0.4c-0.2-0.4-0.4-0.7-0.6-1.1c-0.1,0.5-0.3,1.1-0.4,1.6
			c10.9-6.3,21.8-12.6,32.7-18.9c-0.5-0.1-1.1-0.3-1.6-0.4c0.2,0.4,0.4,0.7,0.6,1.1c0.8,1.3,2.9,0.1,2.1-1.2
			c-0.2-0.4-0.4-0.7-0.6-1.1c-0.3-0.6-1.1-0.8-1.6-0.4c-10.9,6.3-21.8,12.6-32.7,18.9c-0.6,0.3-0.8,1.1-0.4,1.6
			c0.2,0.4,0.4,0.7,0.6,1.1c0.3,0.6,1.1,0.8,1.6,0.4c10.9-6.3,21.8-12.6,32.7-18.9C302,115.4,300.8,113.3,299.5,114.1z M169.9,325.6
			c0.6-11.9,1.2-23.7,1.9-35.6c-0.4,0-0.8,0-1.2-0.1c-0.6,11.8-1.2,23.7-1.9,35.5C169.1,325.6,169.5,325.6,169.9,325.6z
			 M169.9,325.5c0.3-5.5,0.6-11.1,0.9-16.6c0.2-3.2,0.3-6.3,0.5-9.5c0.1-1.2,0.9-7.1-0.2-7.1c-1.7,0.1-1.6,32-2.3,31.9
			c-1.5-0.1-1.5,2.3,0,2.4c0.4,0,0.8,0.1,1.2,0.1c0.7,0,1.2-0.6,1.2-1.2c0.6-11.9,1.2-23.7,1.9-35.6c0-0.7-0.6-1.2-1.2-1.2
			c-0.4,0-0.8,0-1.2-0.1c-0.7,0-1.2,0.6-1.2,1.2c-0.6,11.8-1.2,23.7-1.9,35.5C167.4,327.1,169.8,327.1,169.9,325.5z M311.4,156.4
			c-11,2.3-21.9,4.7-32.9,7c0.1,0.4,0.2,0.8,0.3,1.2c10.9-2.3,21.9-4.6,32.8-7C311.6,157.2,311.5,156.8,311.4,156.4z M311.3,156.5
			c-10.9,2.3-21.9,4.6-32.8,7c0.5,0.3,1,0.6,1.5,0.8c-0.1-0.4-0.2-0.8-0.3-1.2c-0.3,0.5-0.6,1-0.8,1.5c11-2.3,21.9-4.7,32.9-7
			c-0.5-0.3-1-0.6-1.5-0.8c0.1,0.4,0.1,0.8,0.2,1.2c0.2,1.5,2.6,0.9,2.3-0.6c-0.1-0.4-0.1-0.8-0.2-1.2c-0.1-0.7-0.9-1-1.5-0.8
			c-11,2.3-21.9,4.7-32.9,7c-0.7,0.1-1,0.9-0.8,1.5c0.1,0.4,0.2,0.8,0.3,1.2c0.1,0.7,0.9,1,1.5,0.8c10.9-2.3,21.9-4.6,32.8-7
			C313.5,158.5,312.8,156.1,311.3,156.5z M276.3,154c10.6-3.4,21.1-6.8,31.7-10.3c-0.1-0.4-0.3-0.8-0.4-1.2
			c-10.6,3.4-21.1,6.8-31.7,10.3C276,153.2,276.2,153.6,276.3,154z M276.2,154c10.6-3.4,21.1-6.8,31.7-10.3c-0.5-0.3-1-0.6-1.5-0.8
			c0.1,0.4,0.3,0.8,0.4,1.2c0.3-0.5,0.6-1,0.8-1.5c-10.6,3.4-21.1,6.8-31.7,10.3c0.5,0.3,1,0.6,1.5,0.8c-0.1-0.4-0.3-0.8-0.4-1.2
			c-0.5-1.5-2.8-0.8-2.3,0.6c0.1,0.4,0.3,0.8,0.4,1.2c0.2,0.6,0.8,1,1.5,0.8c10.6-3.4,21.1-6.8,31.7-10.3c0.6-0.2,1-0.8,0.8-1.5
			c-0.1-0.4-0.3-0.8-0.4-1.2c-0.2-0.6-0.8-1-1.5-0.8c-10.6,3.4-21.1,6.8-31.7,10.3C274.1,152.2,274.8,154.5,276.2,154z M187,289.5
			c1.1,10.7,2.3,21.3,3.4,32c0.4,0,0.8-0.1,1.2-0.1c-1.1-10.7-2.2-21.3-3.4-32C187.8,289.4,187.4,289.4,187,289.5z M187,289.4
			c0.3,3.2,1.9,29.5,3.7,29.7c1.2,0.1,0-5.6-0.1-6.8c-0.2-2.3-0.5-4.6-0.7-6.8c-0.1-1.4-1.5-14.9-1.7-14.9c1.5-0.2,1.5-2.6,0-2.4
			c-0.4,0-0.8,0.1-1.2,0.1c-0.6,0.1-1.3,0.5-1.2,1.2c1.1,10.7,2.3,21.3,3.4,32c0.1,0.6,0.5,1.3,1.2,1.2c0.4,0,0.8-0.1,1.2-0.1
			c0.6-0.1,1.3-0.5,1.2-1.2c-1.1-10.7-2.2-21.3-3.4-32C189.2,287.8,186.8,287.8,187,289.4z M250.5,260.6
			c7.6,7.5,15.2,15.1,22.8,22.6c0.3-0.3,0.6-0.6,0.8-0.8c-7.6-7.5-15.2-15.1-22.8-22.6C251.1,260,250.8,260.3,250.5,260.6z
			 M250.4,260.5c2.3,2.3,20.1,21.7,21.7,20.7c1-0.6-3.5-4.3-4.4-5.2c-1.6-1.6-3.3-3.2-4.9-4.8c-1-1-10.6-10.6-10.7-10.5
			c1.1-1.1-0.4-3-1.5-1.9c-0.3,0.3-0.6,0.6-0.9,0.9c-0.4,0.4-0.7,1.2-0.2,1.7c7.6,7.5,15.2,15.1,22.8,22.6c0.4,0.4,1.2,0.7,1.7,0.2
			c0.3-0.3,0.6-0.6,0.8-0.8c0.4-0.4,0.7-1.2,0.2-1.7c-7.6-7.5-15.2-15.1-22.8-22.6C251.2,257.9,249.3,259.4,250.4,260.5z
			 M312.6,177.8c-10.5,0.6-20.9,1.1-31.4,1.7c0,0.4,0,0.8,0.1,1.2c10.5-0.6,20.9-1.2,31.4-1.7C312.6,178.6,312.6,178.2,312.6,177.8z
			 M312.6,177.8c-3.1,0.2-29.1,0.7-29.2,2.2c-0.1,1,28-0.9,28-1c0.1,1.5,2.5,1.6,2.4,0c0-0.4,0-0.8-0.1-1.1c0-0.6-0.5-1.2-1.2-1.2
			c-10.5,0.6-20.9,1.1-31.4,1.7c-0.6,0-1.2,0.5-1.2,1.2c0,0.4,0,0.8,0.1,1.2c0,0.6,0.5,1.2,1.2,1.2c10.5-0.6,20.9-1.2,31.4-1.7
			C314.2,180.1,314.2,177.7,312.6,177.8z M165.2,289.3c-1.1,10.2-2.1,20.5-3.2,30.7c0.4,0,0.8,0.1,1.2,0.1
			c1.1-10.2,2.2-20.4,3.2-30.7C166,289.4,165.6,289.4,165.2,289.3z M165.2,289.4c-0.5,4.7-1,9.4-1.5,14.2c-0.2,2.4-0.5,4.7-0.7,7.1
			c-0.1,1.2-1.3,7.1-0.1,7c1.9-0.2,2.6-27.2,3.6-27.1c1.5,0.2,1.5-2.2,0-2.4c-0.4,0-0.8-0.1-1.2-0.1c-0.7-0.1-1.1,0.6-1.2,1.2
			c-1.1,10.2-2.1,20.5-3.2,30.7c-0.1,0.7,0.6,1.1,1.2,1.2c0.4,0,0.8,0.1,1.2,0.1c0.7,0.1,1.1-0.6,1.2-1.2
			c1.1-10.2,2.2-20.4,3.2-30.7C167.7,287.9,165.3,287.9,165.2,289.4z M214.2,283.3c3.7,9.6,7.3,19.2,11,28.8
			c0.4-0.1,0.7-0.3,1.1-0.4c-3.6-9.6-7.3-19.2-10.9-28.8C215,283.1,214.6,283.2,214.2,283.3z M214.3,283.5c1.7,4.4,3.4,8.9,5,13.3
			c0.8,2.2,1.7,4.4,2.5,6.7c0.4,1.1,2.1,6.9,3,6.3c1.6-1-9.9-25.4-9-25.8c1.5-0.5,0.4-2.7-1.1-2.1c-0.4,0.1-0.8,0.3-1.1,0.4
			c-0.7,0.2-0.7,1.1-0.5,1.6c3.7,9.6,7.3,19.2,11,28.8c0.2,0.6,1.1,0.7,1.6,0.5c0.4-0.1,0.7-0.3,1.1-0.4c0.7-0.3,0.7-1.1,0.5-1.6
			c-3.6-9.6-7.3-19.2-10.9-28.8C215.9,280.9,213.7,282,214.3,283.5z M307.5,220c-9.8-2.6-19.6-5.3-29.5-7.9
			c-0.1,0.4-0.2,0.8-0.3,1.2c9.8,2.6,19.5,5.2,29.3,7.9C307.2,220.7,307.4,220.3,307.5,220z M307.3,219.9
			c-9.8-2.6-19.5-5.2-29.3-7.9c0.3,0.5,0.6,1,0.8,1.5c0.1-0.4,0.2-0.8,0.3-1.2c-0.5,0.3-1,0.6-1.5,0.8c9.8,2.6,19.6,5.3,29.5,7.9
			c-0.2-0.6-0.5-1.2-0.7-1.8c-0.2,0.4-0.3,0.8-0.5,1.1c-0.6,1.4,1.5,2.6,2.1,1.2c0.2-0.4,0.3-0.8,0.5-1.1c0.3-0.7,0.1-1.5-0.7-1.8
			c-9.8-2.6-19.6-5.3-29.5-7.9c-0.6-0.2-1.3,0.2-1.5,0.8c-0.1,0.4-0.2,0.8-0.3,1.2c-0.2,0.6,0.2,1.3,0.8,1.5
			c9.8,2.6,19.5,5.2,29.3,7.9C308.2,222.7,308.8,220.3,307.3,219.9z M293.8,253.2c-8.8-5.1-17.5-10.3-26.3-15.4
			c-0.2,0.3-0.4,0.7-0.6,1c8.7,5.1,17.4,10.2,26.1,15.3C293.3,253.8,293.6,253.5,293.8,253.2z M293.7,253.1
			c-8.7-5.1-17.4-10.2-26.1-15.3c0.1,0.6,0.3,1.1,0.4,1.7c0.2-0.3,0.4-0.7,0.6-1c-0.6,0.1-1.1,0.3-1.7,0.4
			c8.8,5.1,17.5,10.3,26.3,15.4c-0.1-0.6-0.1-1.3-0.2-1.9c-0.3,0.3-0.5,0.6-0.8,1c-1,1.2,0.7,2.9,1.7,1.7c0.3-0.3,0.5-0.6,0.8-1
			c0.5-0.6,0.5-1.5-0.2-1.9c-8.8-5.1-17.5-10.3-26.3-15.4c-0.6-0.3-1.3-0.1-1.7,0.4c-0.2,0.3-0.4,0.7-0.6,1
			c-0.3,0.6-0.1,1.3,0.4,1.7c8.7,5.1,17.4,10.2,26.1,15.3C293.8,256,295,253.9,293.7,253.1z M130.2,308.9c3.2-8.5,6.5-16.9,9.7-25.4
			c-0.4-0.1-0.8-0.3-1.1-0.4c-3.2,8.5-6.5,16.9-9.7,25.4C129.4,308.6,129.8,308.8,130.2,308.9z M130.2,308.8
			c3.2-8.5,6.5-16.9,9.7-25.4c-0.5,0.3-1,0.6-1.5,0.8c0.4,0.1,0.8,0.3,1.1,0.4c-0.3-0.5-0.6-1-0.8-1.5c-3.2,8.5-6.5,16.9-9.7,25.4
			c0.5-0.3,1-0.6,1.5-0.8c-0.4-0.1-0.8-0.3-1.2-0.4c-1.4-0.6-2.1,1.8-0.6,2.3c0.4,0.1,0.8,0.3,1.2,0.4c0.6,0.2,1.3-0.3,1.5-0.8
			c3.2-8.5,6.5-16.9,9.7-25.4c0.2-0.6-0.3-1.3-0.8-1.5c-0.4-0.1-0.8-0.3-1.1-0.4c-0.6-0.2-1.3,0.3-1.5,0.8
			c-3.2,8.5-6.5,16.9-9.7,25.4C127.3,309.6,129.7,310.2,130.2,308.8z M306.7,164.3c-9,1.4-17.9,2.9-26.9,4.3
			c0.1,0.4,0.1,0.8,0.2,1.2c9-1.4,17.9-2.9,26.9-4.3C306.8,165.1,306.8,164.7,306.7,164.3z M306.6,164.4c-9,1.4-17.9,2.9-26.9,4.3
			c0.5,0.3,1,0.6,1.5,0.8c-0.1-0.4-0.1-0.8-0.2-1.2c-0.3,0.5-0.6,1-0.8,1.5c9-1.4,17.9-2.9,26.9-4.3c-0.5-0.3-1-0.6-1.5-0.8
			c0.1,0.4,0.1,0.8,0.2,1.2c0.2,1.5,2.6,0.9,2.3-0.6c-0.1-0.4-0.1-0.8-0.2-1.2c-0.1-0.7-0.9-0.9-1.5-0.8c-9,1.4-17.9,2.9-26.9,4.3
			c-0.7,0.1-0.9,0.9-0.8,1.5c0.1,0.4,0.1,0.8,0.2,1.2c0.1,0.7,0.9,0.9,1.5,0.8c9-1.4,17.9-2.9,26.9-4.3
			C308.7,166.4,308.1,164.1,306.6,164.4z M295.5,132.1c-7.9,3.5-15.9,7.1-23.8,10.6c0.2,0.4,0.3,0.8,0.5,1.1
			c7.9-3.5,15.9-7.1,23.8-10.6C295.8,132.8,295.7,132.5,295.5,132.1z M295.4,132.2c-7.9,3.5-15.9,7.1-23.8,10.6
			c0.5,0.1,1.1,0.3,1.6,0.4c-0.2-0.4-0.3-0.8-0.5-1.1c-0.1,0.5-0.3,1.1-0.4,1.6c7.9-3.5,15.9-7.1,23.8-10.6
			c-0.5-0.1-1.1-0.3-1.6-0.4c0.2,0.4,0.3,0.8,0.5,1.1c0.6,1.4,2.7,0.2,2.1-1.2c-0.2-0.4-0.3-0.8-0.5-1.1c-0.3-0.6-1.1-0.7-1.6-0.4
			c-7.9,3.5-15.9,7.1-23.8,10.6c-0.6,0.3-0.7,1.1-0.4,1.6c0.2,0.4,0.3,0.8,0.5,1.1c0.3,0.6,1.1,0.7,1.6,0.4
			c7.9-3.5,15.9-7.1,23.8-10.6C298,133.6,296.8,131.6,295.4,132.2z M280.7,197.2c8.7,0.9,17.3,1.8,26,2.7c0-0.4,0.1-0.8,0.1-1.2
			c-8.7-0.9-17.3-1.8-26-2.7C280.8,196.4,280.8,196.8,280.7,197.2z M280.8,197.2c8.7,0.9,17.3,1.8,26,2.7c-0.4-0.4-0.8-0.8-1.2-1.2
			c0,0.4-0.1,0.8-0.1,1.2c0.4-0.4,0.8-0.8,1.2-1.2c-8.7-0.9-17.3-1.8-26-2.7c0.4,0.4,0.8,0.8,1.2,1.2c0-0.4,0.1-0.8,0.1-1.2
			c0.1-1.5-2.3-1.5-2.4,0c0,0.4-0.1,0.8-0.1,1.2c-0.1,0.7,0.6,1.1,1.2,1.2c8.7,0.9,17.3,1.8,26,2.7c0.7,0.1,1.1-0.6,1.2-1.2
			c0-0.4,0.1-0.8,0.1-1.2c0.1-0.7-0.6-1.1-1.2-1.2c-8.7-0.9-17.3-1.8-26-2.7C279.3,194.7,279.3,197.1,280.8,197.2z M181.7,290.1
			c0.4,8.5,0.9,16.9,1.3,25.4c0.4,0,0.8,0,1.2-0.1c-0.5-8.4-0.9-16.9-1.4-25.3C182.5,290,182.1,290,181.7,290.1z M181.7,290
			c0.5,8.4,0.9,16.9,1.4,25.3c0.4-0.4,0.8-0.8,1.2-1.2c-0.4,0-0.8,0-1.2,0.1c0.4,0.4,0.8,0.8,1.2,1.2c-0.4-8.5-0.9-16.9-1.3-25.4
			c-0.4,0.4-0.8,0.8-1.2,1.2c0.4,0,0.8,0,1.2,0c1.5,0,1.6-2.4,0-2.4c-0.4,0-0.8,0-1.2,0c-0.6,0-1.2,0.5-1.2,1.2
			c0.4,8.5,0.9,16.9,1.3,25.4c0,0.6,0.5,1.2,1.2,1.2c0.4,0,0.8,0,1.2-0.1c0.6,0,1.2-0.5,1.2-1.2c-0.5-8.4-0.9-16.9-1.4-25.3
			C184,288.5,181.6,288.5,181.7,290z M157,314c1.3-8.3,2.6-16.7,3.9-25c-0.4-0.1-0.8-0.1-1.2-0.2c-1.3,8.3-2.7,16.7-4,25
			C156.2,313.9,156.6,314,157,314z M157,314.1c1.3-8.3,2.7-16.7,4-25c-0.5,0.3-1,0.6-1.5,0.8c0.4,0.1,0.8,0.1,1.2,0.2
			c-0.3-0.5-0.6-1-0.8-1.5c-1.3,8.3-2.6,16.7-3.9,25c0.5-0.3,1-0.6,1.5-0.8c-0.4-0.1-0.8-0.1-1.2-0.2c-1.5-0.3-2.2,2-0.6,2.3
			c0.4,0.1,0.8,0.1,1.2,0.2c0.6,0.1,1.4-0.2,1.5-0.8c1.3-8.3,2.6-16.7,3.9-25c0.1-0.6-0.1-1.4-0.8-1.5c-0.4-0.1-0.8-0.1-1.2-0.2
			c-0.6-0.1-1.4,0.1-1.5,0.8c-1.3,8.3-2.7,16.7-4,25C154.4,315,156.7,315.7,157,314.1z M253,289.5c-4.7-6.5-9.5-13-14.2-19.6
			c-0.3,0.3-0.7,0.5-1,0.8c4.7,6.5,9.5,13,14.2,19.6C252.3,290,252.6,289.8,253,289.5z M253,289.7c-4.7-6.5-9.5-13-14.2-19.6
			c-0.1,0.5-0.3,1.1-0.4,1.6c0.3-0.3,0.7-0.5,1-0.8c-0.5-0.1-1.1-0.3-1.6-0.4c4.7,6.5,9.5,13,14.2,19.6c0.1-0.5,0.3-1.1,0.4-1.6
			c-0.3,0.2-0.7,0.5-1,0.7c-1.2,0.9,0,3,1.2,2.1c0.3-0.2,0.7-0.5,1-0.7c0.5-0.3,0.8-1.1,0.4-1.6c-4.7-6.5-9.5-13-14.2-19.6
			c-0.4-0.5-1.1-0.8-1.6-0.4c-0.3,0.3-0.7,0.5-1,0.8c-0.5,0.4-0.8,1.1-0.4,1.6c4.7,6.5,9.5,13,14.2,19.6
			C251.8,292.1,253.9,290.9,253,289.7z M285.4,255.3c-6.9-4.2-13.8-8.3-20.7-12.5c-0.2,0.4-0.4,0.7-0.7,1.1
			c6.9,4.1,13.8,8.3,20.7,12.4C284.9,256,285.1,255.6,285.4,255.3z M285.4,255.4c-6.9-4.1-13.8-8.3-20.7-12.4
			c0.1,0.6,0.2,1.1,0.2,1.7c0.2-0.4,0.4-0.7,0.7-1.1c-0.6,0.1-1.1,0.2-1.7,0.2c6.9,4.2,13.8,8.3,20.7,12.5c-0.1-0.6-0.2-1.1-0.2-1.7
			c-0.2,0.4-0.4,0.7-0.7,1.1c-0.8,1.3,1.1,2.8,1.9,1.4c0.2-0.4,0.4-0.7,0.7-1.1c0.3-0.5,0.4-1.3-0.2-1.7
			c-6.9-4.2-13.8-8.3-20.7-12.5c-0.5-0.3-1.3-0.4-1.7,0.2c-0.2,0.4-0.4,0.7-0.7,1.1c-0.3,0.5-0.4,1.3,0.2,1.7
			c6.9,4.1,13.8,8.3,20.7,12.4C285.3,258.1,286.7,256.2,285.4,255.4z M274.4,148.8c7.4-2.9,14.9-5.7,22.3-8.6
			c-0.1-0.4-0.3-0.8-0.4-1.1c-7.4,2.8-14.8,5.7-22.3,8.5C274.1,148,274.2,148.4,274.4,148.8z M274.3,148.8
			c7.4-2.8,14.8-5.7,22.3-8.5c-0.5-0.3-1-0.6-1.5-0.8c0.1,0.4,0.3,0.8,0.4,1.1c0.3-0.5,0.6-1,0.8-1.5c-7.4,2.9-14.9,5.7-22.3,8.6
			c0.5,0.3,1,0.6,1.5,0.8c-0.1-0.4-0.3-0.8-0.4-1.2c-0.5-1.4-2.8-0.8-2.3,0.6c0.1,0.4,0.3,0.8,0.4,1.2c0.2,0.6,0.8,1.1,1.5,0.8
			c7.4-2.9,14.9-5.7,22.3-8.6c0.6-0.2,1.1-0.8,0.8-1.5c-0.1-0.4-0.3-0.8-0.4-1.1c-0.2-0.6-0.8-1.1-1.5-0.8
			c-7.4,2.8-14.8,5.7-22.3,8.5C272.2,147,272.8,149.3,274.3,148.8z M292,236.2c-6.6-2.9-13.1-5.8-19.7-8.7c-0.2,0.4-0.3,0.7-0.5,1.1
			c6.6,2.9,13.1,5.8,19.7,8.8C291.6,236.9,291.8,236.5,292,236.2z M292.1,236.3c-6.6-2.9-13.1-5.8-19.7-8.8c0.1,0.5,0.3,1.1,0.4,1.6
			c0.2-0.4,0.3-0.7,0.5-1.1c-0.5,0.1-1.1,0.3-1.6,0.4c6.6,2.9,13.1,5.8,19.7,8.7c-0.1-0.5-0.3-1.1-0.4-1.6c-0.2,0.4-0.3,0.8-0.5,1.2
			c-0.6,1.4,1.5,2.6,2.1,1.2c0.2-0.4,0.3-0.8,0.5-1.2c0.2-0.5,0.2-1.4-0.4-1.6c-6.6-2.9-13.1-5.8-19.7-8.7c-0.5-0.2-1.4-0.2-1.6,0.4
			c-0.2,0.4-0.3,0.7-0.5,1.1c-0.2,0.5-0.2,1.4,0.4,1.6c6.6,2.9,13.1,5.8,19.7,8.8C292.3,239,293.5,236.9,292.1,236.3z M300.6,211.5
			c-7-1.6-14-3.2-21-4.8c-0.1,0.4-0.2,0.8-0.3,1.2c7,1.6,14,3.2,21,4.8C300.4,212.3,300.5,211.9,300.6,211.5z M300.7,211.5
			c-7-1.6-14-3.2-21-4.8c0.2,0.5,0.5,1,0.7,1.5c0.1-0.4,0.2-0.8,0.3-1.2c-0.5,0.2-1,0.5-1.5,0.7c7,1.6,14,3.2,21,4.8
			c-0.2-0.5-0.5-1-0.7-1.5c-0.1,0.4-0.2,0.8-0.3,1.2c-0.3,1.5,2,2.3,2.3,0.8c0.1-0.4,0.2-0.8,0.3-1.2c0.1-0.6,0-1.4-0.7-1.5
			c-7-1.6-14-3.2-21-4.8c-0.6-0.1-1.4,0.1-1.5,0.7c-0.1,0.4-0.2,0.8-0.3,1.2c-0.1,0.6,0.1,1.4,0.7,1.5c7,1.6,14,3.2,21,4.8
			C301.4,214.2,302.2,211.9,300.7,211.5z M143.9,284.8c-2.2,6.8-4.4,13.6-6.6,20.4c0.4,0.1,0.8,0.2,1.1,0.4
			c2.2-6.8,4.4-13.6,6.6-20.4C144.7,285,144.3,284.9,143.9,284.8z M143.9,284.8c-2.2,6.8-4.4,13.6-6.6,20.4c0.5-0.3,1-0.6,1.5-0.8
			c-0.4-0.1-0.8-0.2-1.1-0.4c0.3,0.5,0.6,1,0.8,1.5c2.2-6.8,4.4-13.6,6.6-20.4c-0.5,0.3-1,0.6-1.5,0.8c0.4,0.1,0.8,0.2,1.2,0.3
			c1.5,0.4,2.1-1.9,0.6-2.3c-0.4-0.1-0.8-0.2-1.2-0.3c-0.6-0.2-1.3,0.2-1.5,0.8c-2.2,6.8-4.4,13.6-6.6,20.4
			c-0.2,0.6,0.2,1.3,0.8,1.5c0.4,0.1,0.8,0.2,1.1,0.4c0.6,0.2,1.3-0.2,1.5-0.8c2.2-6.8,4.4-13.6,6.6-20.4
			C146.7,284,144.4,283.3,143.9,284.8z M203.1,306.8c-1.4-6.4-2.7-12.9-4.1-19.3c-0.4,0.1-0.8,0.2-1.2,0.2
			c1.4,6.4,2.7,12.9,4.1,19.3C202.3,307,202.7,306.9,203.1,306.8z M203.1,306.7c-1.4-6.4-2.7-12.9-4.1-19.3c-0.3,0.5-0.6,1-0.8,1.5
			c0.4-0.1,0.8-0.2,1.2-0.2c-0.5-0.3-1-0.6-1.5-0.8c1.4,6.4,2.7,12.9,4.1,19.3c0.3-0.5,0.6-1,0.8-1.5c-0.4,0.1-0.8,0.1-1.2,0.2
			c-1.5,0.3-0.9,2.6,0.6,2.3c0.4-0.1,0.8-0.1,1.2-0.2c0.7-0.1,1-0.9,0.8-1.5c-1.4-6.4-2.7-12.9-4.1-19.3c-0.1-0.7-0.9-1-1.5-0.8
			c-0.4,0.1-0.8,0.2-1.2,0.2c-0.7,0.1-1,0.9-0.8,1.5c1.4,6.4,2.7,12.9,4.1,19.3C201.1,308.9,203.4,308.3,203.1,306.7z M227.9,297.7
			c-2.5-5.7-5-11.4-7.5-17c-0.4,0.2-0.7,0.3-1.1,0.5c2.5,5.7,5,11.3,7.5,17C227.1,298,227.5,297.9,227.9,297.7z M227.7,297.6
			c-2.5-5.7-5-11.3-7.5-17c-0.1,0.5-0.3,1.1-0.4,1.6c0.4-0.2,0.7-0.3,1.1-0.5c-0.5-0.1-1.1-0.3-1.6-0.4c2.5,5.7,5,11.4,7.5,17
			c0.2-0.6,0.5-1.2,0.7-1.8c-0.4,0.1-0.8,0.3-1.2,0.4c-1.4,0.5-0.8,2.9,0.6,2.3c0.4-0.1,0.8-0.3,1.2-0.4c0.8-0.3,1.1-1,0.7-1.8
			c-2.5-5.7-5-11.4-7.5-17c-0.3-0.6-1.1-0.7-1.6-0.4c-0.4,0.2-0.7,0.3-1.1,0.5c-0.6,0.3-0.7,1.1-0.4,1.6c2.5,5.7,5,11.3,7.5,17
			C226.3,300.2,228.4,299,227.7,297.6z M295.3,153.3c-5.9,1.6-11.9,3.2-17.8,4.8c0.1,0.4,0.2,0.8,0.3,1.2c5.9-1.6,11.9-3.2,17.8-4.8
			C295.5,154.1,295.4,153.7,295.3,153.3z M295.3,153.3c-5.9,1.6-11.9,3.2-17.8,4.8c0.5,0.3,1,0.6,1.5,0.8c-0.1-0.4-0.2-0.8-0.3-1.2
			c-0.3,0.5-0.6,1-0.8,1.5c5.9-1.6,11.9-3.2,17.8-4.8c-0.5-0.3-1-0.6-1.5-0.8c0.1,0.4,0.2,0.8,0.3,1.2c0.4,1.5,2.7,0.9,2.3-0.6
			c-0.1-0.4-0.2-0.8-0.3-1.2c-0.2-0.6-0.9-1-1.5-0.8c-5.9,1.6-11.9,3.2-17.8,4.8c-0.6,0.2-1,0.9-0.8,1.5c0.1,0.4,0.2,0.8,0.3,1.2
			c0.2,0.6,0.9,1,1.5,0.8c5.9-1.6,11.9-3.2,17.8-4.8C297.4,155.2,296.8,152.9,295.3,153.3z M133.8,280.7c-2.5,5.6-5,11.1-7.4,16.7
			c0.4,0.2,0.8,0.3,1.1,0.5c2.5-5.6,4.9-11.1,7.4-16.7C134.5,281,134.2,280.9,133.8,280.7z M133.9,280.6c-2.5,5.6-4.9,11.1-7.4,16.7
			c0.5-0.1,1.1-0.3,1.6-0.4c-0.4-0.2-0.8-0.3-1.1-0.5c0.1,0.5,0.3,1.1,0.4,1.6c2.5-5.6,5-11.1,7.4-16.7c-0.5,0.1-1.1,0.3-1.6,0.4
			c0.4,0.2,0.7,0.3,1.1,0.5c1.4,0.6,2.6-1.5,1.2-2.1c-0.4-0.2-0.7-0.3-1.1-0.5c-0.5-0.2-1.4-0.2-1.6,0.4c-2.5,5.6-5,11.1-7.4,16.7
			c-0.2,0.5-0.2,1.4,0.4,1.6c0.4,0.2,0.8,0.3,1.1,0.5c0.5,0.2,1.4,0.2,1.6-0.4c2.5-5.6,4.9-11.1,7.4-16.7
			C136.6,280.4,134.5,279.2,133.9,280.6z M233.3,274c3.5,5,6.9,10,10.4,15c0.3-0.2,0.7-0.5,1-0.7c-3.5-5-7-10-10.4-15
			C234,273.5,233.7,273.7,233.3,274z M233.3,273.8c3.5,5,7,10,10.4,15c0.2-0.5,0.3-1.1,0.5-1.6c-0.3,0.2-0.7,0.5-1,0.7
			c0.5,0.2,1.1,0.3,1.6,0.5c-3.5-5-6.9-10-10.4-15c-0.2,0.5-0.3,1.1-0.5,1.6c0.3-0.2,0.7-0.5,1-0.7c1.3-0.9,0.1-3-1.1-2.1
			c-0.3,0.2-0.7,0.5-1,0.7c-0.5,0.3-0.9,1-0.5,1.6c3.5,5,6.9,10,10.4,15c0.3,0.5,1.1,0.9,1.6,0.5c0.3-0.2,0.7-0.5,1-0.7
			c0.5-0.3,0.9-1.1,0.5-1.6c-3.5-5-7-10-10.4-15C234.5,271.4,232.4,272.6,233.3,273.8z M275.9,218.6c5.6,1.8,11.2,3.6,16.8,5.4
			c0.1-0.4,0.2-0.7,0.4-1.1c-5.6-1.8-11.2-3.7-16.8-5.5C276.1,217.8,276,218.2,275.9,218.6z M275.9,218.5c5.6,1.8,11.2,3.7,16.8,5.5
			c-0.3-0.5-0.6-1-0.8-1.5c-0.1,0.4-0.2,0.7-0.4,1.1c0.5-0.3,1-0.6,1.5-0.8c-5.6-1.8-11.2-3.6-16.8-5.4c0.3,0.5,0.6,1,0.8,1.5
			c0.1-0.4,0.2-0.8,0.4-1.2c0.4-1.5-1.9-2.1-2.3-0.6c-0.1,0.4-0.2,0.8-0.4,1.2c-0.2,0.6,0.2,1.3,0.8,1.5c5.6,1.8,11.2,3.6,16.8,5.4
			c0.6,0.2,1.3-0.2,1.5-0.8c0.1-0.4,0.2-0.7,0.4-1.1c0.2-0.6-0.2-1.3-0.8-1.5c-5.6-1.8-11.2-3.7-16.8-5.5
			C275.1,215.7,274.5,218,275.9,218.5z M254.5,256.7c4.2,3.7,8.4,7.5,12.5,11.2c0.3-0.3,0.5-0.6,0.8-0.9c-4.2-3.8-8.3-7.5-12.5-11.3
			C255.1,256,254.8,256.4,254.5,256.7z M254.5,256.6c4.2,3.8,8.3,7.5,12.5,11.3c0-0.6,0-1.1,0-1.7c-0.3,0.3-0.5,0.6-0.8,0.9
			c0.6,0,1.1,0,1.7,0c-4.2-3.7-8.4-7.5-12.5-11.2c0,0.6,0,1.1,0,1.7c0.3-0.3,0.6-0.7,0.8-1c1-1.2-0.7-2.9-1.7-1.7
			c-0.3,0.3-0.6,0.7-0.8,1c-0.4,0.5-0.5,1.2,0,1.7c4.2,3.7,8.4,7.5,12.5,11.2c0.5,0.4,1.3,0.5,1.7,0c0.3-0.3,0.5-0.6,0.8-0.9
			c0.4-0.5,0.5-1.2,0-1.7c-4.2-3.8-8.3-7.5-12.5-11.3C255,253.8,253.3,255.5,254.5,256.6z M152.1,304.8c1.2-5.7,2.4-11.3,3.6-17
			c-0.4-0.1-0.8-0.2-1.1-0.3c-1.2,5.6-2.4,11.2-3.6,16.8C151.3,304.5,151.7,304.7,152.1,304.8z M152.1,304.7
			c1.2-5.6,2.4-11.2,3.6-16.8c-0.5,0.3-1,0.6-1.5,0.8c0.4,0.1,0.8,0.2,1.1,0.3c-0.3-0.5-0.6-1-0.8-1.5c-1.2,5.7-2.4,11.3-3.6,17
			c0.5-0.3,1-0.6,1.5-0.8c-0.4-0.1-0.8-0.3-1.2-0.4c-1.5-0.5-2.1,1.8-0.6,2.3c0.4,0.1,0.8,0.3,1.2,0.4c0.6,0.2,1.4-0.2,1.5-0.8
			c1.2-5.7,2.4-11.3,3.6-17c0.1-0.6-0.2-1.3-0.8-1.5c-0.4-0.1-0.8-0.2-1.1-0.3c-0.6-0.1-1.3,0.2-1.5,0.8c-1.2,5.6-2.4,11.2-3.6,16.8
			C149.5,305.6,151.8,306.2,152.1,304.7z M281.6,185.9c6.2,0,12.4,0,18.6,0c0-0.2,0-0.4,0-0.5c-6.2,0-12.4,0-18.6,0
			C281.6,185.5,281.6,185.7,281.6,185.9z M281.6,186.5c6.2,0,12.4,0,18.6,0c-0.4-0.4-0.8-0.8-1.2-1.2c0,0.2,0,0.4,0,0.5
			c0.4-0.4,0.8-0.8,1.2-1.2c-6.2,0-12.4,0-18.6,0c0.4,0.4,0.8,0.8,1.2,1.2c0-0.2,0-0.4,0-0.5c-0.1-1.5-2.5-1.6-2.4,0
			c0,0.2,0,0.4,0,0.5c0,0.7,0.5,1.2,1.2,1.2c6.2,0,12.4,0,18.6,0c0.6,0,1.2-0.6,1.2-1.2c0-0.2,0-0.4,0-0.5c0-0.7-0.5-1.2-1.2-1.2
			c-6.2,0-12.4,0-18.6,0C280,184.1,280,186.5,281.6,186.5z M232,292.1c-2.1-4.6-4.2-9.3-6.3-13.9c-0.4,0.2-0.8,0.3-1.1,0.5
			c2.1,4.6,4.2,9.3,6.3,13.9C231.3,292.5,231.6,292.3,232,292.1z M231.9,292.1c-2.1-4.6-4.2-9.3-6.3-13.9c-0.2,0.5-0.3,1.1-0.5,1.6
			c0.4-0.2,0.8-0.3,1.1-0.5c-0.5-0.2-1.1-0.3-1.6-0.5c2.1,4.6,4.2,9.3,6.3,13.9c0.2-0.5,0.3-1.1,0.5-1.6c-0.4,0.2-0.8,0.3-1.1,0.5
			c-1.4,0.6-0.3,2.8,1.1,2.1c0.4-0.2,0.8-0.3,1.1-0.5c0.6-0.3,0.8-1.1,0.5-1.6c-2.1-4.6-4.2-9.3-6.3-13.9c-0.3-0.6-1.1-0.8-1.6-0.5
			c-0.4,0.2-0.8,0.3-1.1,0.5c-0.6,0.3-0.8,1.1-0.5,1.6c2.1,4.6,4.2,9.3,6.3,13.9C230.4,294.6,232.6,293.5,231.9,292.1z M261.3,248.2
			c3.9,2.6,7.8,5.1,11.7,7.7c0.2-0.4,0.5-0.7,0.7-1.1c-3.9-2.5-7.8-5.1-11.7-7.6C261.8,247.5,261.5,247.8,261.3,248.2z M261.5,248.2
			c3.9,2.5,7.8,5.1,11.7,7.6c-0.2-0.5-0.3-1.1-0.5-1.6c-0.2,0.4-0.5,0.7-0.7,1.1c0.5-0.2,1.1-0.3,1.6-0.5c-3.9-2.6-7.8-5.1-11.7-7.7
			c0.2,0.5,0.3,1.1,0.5,1.6c0.2-0.4,0.5-0.7,0.7-1.1c0.9-1.3-1.3-2.4-2.1-1.1c-0.2,0.4-0.5,0.7-0.7,1.1c-0.4,0.6,0,1.3,0.5,1.6
			c3.9,2.6,7.8,5.1,11.7,7.7c0.6,0.4,1.3,0,1.6-0.5c0.2-0.4,0.5-0.7,0.7-1.1c0.4-0.6,0-1.3-0.5-1.6c-3.9-2.5-7.8-5.1-11.7-7.6
			C261.3,245.2,260.2,247.3,261.5,248.2z M280.2,202.7c5,0.8,9.9,1.5,14.9,2.3c0.1-0.4,0.1-0.7,0.2-1.1c-4.9-0.8-9.9-1.6-14.8-2.4
			C280.4,201.9,280.3,202.3,280.2,202.7z M280.1,202.6c4.9,0.8,9.9,1.6,14.8,2.4c-0.3-0.5-0.6-1-0.8-1.5c-0.1,0.4-0.1,0.7-0.2,1.1
			c0.5-0.3,1-0.6,1.5-0.8c-5-0.8-9.9-1.5-14.9-2.3c0.3,0.5,0.6,1,0.8,1.5c0.1-0.4,0.2-0.8,0.2-1.2c0.3-1.5-2-2.2-2.3-0.6
			c-0.1,0.4-0.2,0.8-0.2,1.2c-0.1,0.6,0.2,1.4,0.8,1.5c5,0.8,9.9,1.5,14.9,2.3c0.6,0.1,1.4-0.1,1.5-0.8c0.1-0.4,0.1-0.7,0.2-1.1
			c0.1-0.6-0.1-1.4-0.8-1.5c-4.9-0.8-9.9-1.6-14.8-2.4C279.2,200.1,278.6,202.4,280.1,202.6z M128.8,278.3c-2.2,4.3-4.4,8.7-6.5,13
			c0.4,0.2,0.7,0.4,1.1,0.5c2.2-4.3,4.4-8.7,6.6-13C129.6,278.7,129.2,278.5,128.8,278.3z M129,278.2c-2.2,4.3-4.4,8.7-6.6,13
			c0.5-0.1,1.1-0.3,1.6-0.4c-0.4-0.2-0.7-0.4-1.1-0.5c0.1,0.5,0.3,1.1,0.4,1.6c2.2-4.3,4.4-8.7,6.5-13c-0.5,0.1-1.1,0.3-1.6,0.4
			c0.4,0.2,0.8,0.3,1.2,0.5c1.4,0.6,2.6-1.5,1.2-2.1c-0.4-0.2-0.8-0.3-1.2-0.5c-0.6-0.2-1.3-0.2-1.6,0.4c-2.2,4.3-4.4,8.7-6.5,13
			c-0.3,0.5-0.2,1.4,0.4,1.6c0.4,0.2,0.7,0.4,1.1,0.5c0.6,0.3,1.3,0.2,1.6-0.4c2.2-4.3,4.4-8.7,6.6-13
			C131.7,278.1,129.7,276.9,129,278.2z M192.5,289c0.7,4.4,1.4,8.8,2.1,13.3c0.4-0.1,0.8-0.1,1.1-0.2c-0.7-4.4-1.4-8.8-2.1-13.2
			C193.3,288.9,192.9,289,192.5,289z M192.5,289.2c0.7,4.4,1.4,8.8,2.1,13.2c0.3-0.5,0.6-1,0.8-1.5c-0.4,0.1-0.8,0.1-1.1,0.2
			c0.5,0.3,1,0.6,1.5,0.8c-0.7-4.4-1.4-8.8-2.1-13.3c-0.4,0.5-0.8,1-1.2,1.5c0.4,0,0.8-0.1,1.2-0.1c1.5-0.2,1.5-2.6,0-2.4
			c-0.4,0-0.8,0.1-1.2,0.1c-0.8,0.1-1.3,0.7-1.2,1.5c0.7,4.4,1.4,8.8,2.1,13.3c0.1,0.7,0.9,0.9,1.5,0.8c0.4-0.1,0.8-0.1,1.1-0.2
			c0.7-0.1,0.9-0.9,0.8-1.5c-0.7-4.4-1.4-8.8-2.1-13.2C194.6,287,192.3,287.7,192.5,289.2z M246.8,264c2.9,3.4,5.7,6.9,8.6,10.3
			c0.3-0.3,0.6-0.5,0.9-0.8c-2.9-3.4-5.7-6.9-8.6-10.3C247.4,263.5,247.1,263.8,246.8,264z M246.9,264.2c2.9,3.4,5.7,6.9,8.6,10.3
			c0-0.6,0-1.1,0-1.7c-0.3,0.3-0.6,0.5-0.9,0.8c0.6,0,1.1,0,1.7,0c-2.9-3.4-5.7-6.9-8.6-10.3c-0.1,0.6-0.1,1.3-0.2,1.9
			c0.3-0.2,0.6-0.5,0.9-0.7c1.2-0.9,0-3-1.2-2.1c-0.3,0.2-0.6,0.5-0.9,0.7c-0.7,0.5-0.8,1.2-0.2,1.9c2.9,3.4,5.7,6.9,8.6,10.3
			c0.4,0.5,1.3,0.3,1.7,0c0.3-0.3,0.6-0.5,0.9-0.8c0.5-0.5,0.3-1.2,0-1.7c-2.9-3.4-5.7-6.9-8.6-10.3
			C247.5,261.2,245.9,263,246.9,264.2z M208.6,285.3c1.4,4.2,2.9,8.5,4.3,12.7c0.4-0.1,0.7-0.3,1.1-0.4c-1.4-4.2-2.9-8.5-4.3-12.7
			C209.4,285.1,209,285.2,208.6,285.3z M208.7,285.5c1.4,4.2,2.9,8.5,4.3,12.7c0.2-0.5,0.4-1.1,0.6-1.6c-0.4,0.1-0.7,0.3-1.1,0.4
			c0.5,0.2,1.1,0.4,1.6,0.6c-1.4-4.2-2.9-8.5-4.3-12.7c-0.3,0.6-0.6,1.1-0.9,1.7c0.4-0.1,0.8-0.2,1.1-0.3c1.5-0.4,1.1-2.8-0.4-2.4
			c-0.4,0.1-0.8,0.2-1.1,0.3c-0.8,0.2-1.2,0.9-0.9,1.7c1.4,4.2,2.9,8.5,4.3,12.7c0.2,0.7,1,0.8,1.6,0.6c0.4-0.1,0.7-0.3,1.1-0.4
			c0.7-0.2,0.8-1,0.6-1.6c-1.4-4.2-2.9-8.5-4.3-12.7C210.4,283,208.2,284,208.7,285.5z M274,223.6c3.3,1.3,6.7,2.6,10,3.9
			c0.1-0.4,0.3-0.7,0.4-1.1c-3.3-1.3-6.7-2.6-10-3.9C274.3,222.9,274.2,223.3,274,223.6z M274.1,223.7c3.3,1.3,6.7,2.6,10,3.9
			c-0.3-0.5-0.6-1-0.8-1.5c-0.1,0.4-0.3,0.7-0.4,1.1c0.5-0.3,1-0.6,1.5-0.8c-3.3-1.3-6.7-2.6-10-3.9c0.3,0.5,0.6,1,0.8,1.5
			c0.1-0.4,0.3-0.7,0.4-1.1c0.6-1.4-1.8-2.1-2.3-0.6c-0.1,0.4-0.3,0.7-0.4,1.1c-0.2,0.6,0.3,1.3,0.8,1.5c3.3,1.3,6.7,2.6,10,3.9
			c0.6,0.2,1.3-0.3,1.5-0.8c0.1-0.4,0.3-0.7,0.4-1.1c0.2-0.6-0.3-1.3-0.8-1.5c-3.3-1.3-6.7-2.6-10-3.9
			C273.3,220.8,272.7,223.1,274.1,223.7z M269.4,233.6c2.7,1.4,5.4,2.8,8.1,4.2c0.2-0.4,0.4-0.8,0.6-1.1c-2.7-1.4-5.4-2.7-8.1-4.1
			C269.7,232.8,269.6,233.2,269.4,233.6z M269.3,233.5c2.7,1.4,5.4,2.7,8.1,4.1c-0.1-0.5-0.3-1.1-0.4-1.6c-0.2,0.4-0.4,0.8-0.6,1.1
			c0.5-0.1,1.1-0.3,1.6-0.4c-2.7-1.4-5.4-2.8-8.1-4.2c0.1,0.5,0.3,1.1,0.4,1.6c0.2-0.4,0.4-0.7,0.5-1.1c0.7-1.4-1.4-2.6-2.1-1.2
			c-0.2,0.4-0.4,0.7-0.5,1.1c-0.3,0.6-0.2,1.3,0.4,1.6c2.7,1.4,5.4,2.8,8.1,4.2c0.5,0.3,1.3,0.2,1.6-0.4c0.2-0.4,0.4-0.8,0.6-1.1
			c0.3-0.6,0.2-1.3-0.4-1.6c-2.7-1.4-5.4-2.7-8.1-4.1C269.1,230.7,267.9,232.8,269.3,233.5z M149.2,286.4c-0.8,3-1.6,6-2.4,8.9
			c0.4,0.1,0.8,0.2,1.2,0.3c0.8-3,1.6-6,2.4-9C149.9,286.6,149.5,286.5,149.2,286.4z M149.1,286.4c-0.8,3-1.6,6-2.4,9
			c0.5-0.3,1-0.6,1.5-0.8c-0.4-0.1-0.8-0.2-1.2-0.3c0.3,0.5,0.6,1,0.8,1.5c0.8-3,1.6-6,2.4-8.9c-0.5,0.3-1,0.6-1.5,0.8
			c0.4,0.1,0.7,0.2,1.1,0.3c1.5,0.4,2.1-1.9,0.6-2.3c-0.4-0.1-0.7-0.2-1.1-0.3c-0.6-0.2-1.3,0.2-1.5,0.8c-0.8,3-1.6,6-2.4,8.9
			c-0.2,0.6,0.2,1.3,0.8,1.5c0.4,0.1,0.8,0.2,1.2,0.3c0.6,0.2,1.3-0.2,1.5-0.8c0.8-3,1.6-6,2.4-9
			C151.8,285.5,149.5,284.9,149.1,286.4z M203.3,286.8c0.8,3,1.7,6.1,2.5,9.1c0.4-0.1,0.8-0.2,1.2-0.3c-0.8-3-1.6-6.1-2.5-9.1
			C204,286.6,203.7,286.7,203.3,286.8z M203.3,286.8c0.8,3,1.6,6.1,2.5,9.1c0.3-0.5,0.6-1,0.8-1.5c-0.4,0.1-0.8,0.2-1.2,0.3
			c0.5,0.3,1,0.6,1.5,0.8c-0.8-3-1.7-6.1-2.5-9.1c-0.3,0.5-0.6,1-0.8,1.5c0.4-0.1,0.8-0.2,1.2-0.3c1.5-0.4,0.9-2.7-0.6-2.3
			c-0.4,0.1-0.8,0.2-1.2,0.3c-0.6,0.2-1,0.9-0.8,1.5c0.8,3,1.7,6.1,2.5,9.1c0.2,0.6,0.9,1,1.5,0.8c0.4-0.1,0.8-0.2,1.2-0.3
			c0.6-0.2,1-0.9,0.8-1.5c-0.8-3-1.6-6.1-2.5-9.1C205.2,284.6,202.9,285.3,203.3,286.8z M176.4,290.5c-0.1,3.2-0.2,6.3-0.2,9.5
			c0.4,0,0.8,0,1.2,0c0.1-3.1,0.2-6.3,0.2-9.4C177.2,290.5,176.8,290.5,176.4,290.5z M176.4,290.5c-0.1,3.1-0.2,6.3-0.2,9.4
			c0.4-0.4,0.8-0.8,1.2-1.2c-0.4,0-0.8,0-1.2,0c0.4,0.4,0.8,0.8,1.2,1.2c0.1-3.2,0.2-6.3,0.2-9.5c-0.4,0.4-0.8,0.8-1.2,1.2
			c0.4,0,0.8,0,1.2,0c1.5,0.1,1.6-2.4,0.1-2.4c-0.4,0-0.8,0-1.2,0c-0.7,0-1.2,0.5-1.2,1.2c-0.1,3.2-0.2,6.3-0.2,9.5
			c0,0.6,0.5,1.2,1.2,1.2c0.4,0,0.8,0,1.2,0c0.7,0,1.2-0.5,1.2-1.2c0.1-3.1,0.2-6.3,0.2-9.4C178.9,289,176.5,289,176.4,290.5z
			 M242.2,267.4c1.5,1.8,3,3.7,4.5,5.5c0.3-0.2,0.6-0.5,0.9-0.7c-1.5-1.8-3-3.7-4.4-5.5C242.8,266.9,242.5,267.2,242.2,267.4z
			 M242.3,267.5c1.5,1.8,3,3.7,4.4,5.5c0-0.6,0-1.1,0-1.7c-0.3,0.2-0.6,0.5-0.9,0.7c0.6,0,1.1,0,1.7,0c-1.5-1.8-3-3.7-4.5-5.5
			c-0.1,0.6-0.2,1.3-0.2,1.9c0.3-0.2,0.7-0.5,1-0.7c1.2-0.9,0-3-1.2-2.1c-0.3,0.2-0.7,0.5-1,0.7c-0.7,0.5-0.8,1.2-0.2,1.9
			c1.5,1.8,3,3.7,4.5,5.5c0.4,0.5,1.2,0.4,1.7,0c0.3-0.2,0.6-0.5,0.9-0.7c0.5-0.4,0.4-1.2,0-1.7c-1.5-1.8-3-3.7-4.4-5.5
			C243,264.6,241.3,266.4,242.3,267.5z M229.1,276.5c1.2,2,2.5,4,3.7,6.1c0.3-0.2,0.7-0.4,1-0.6c-1.2-2-2.4-4-3.6-6.1
			C229.8,276.1,229.4,276.3,229.1,276.5z M229.2,276.6c1.2,2,2.4,4,3.6,6.1c0.1-0.6,0.2-1.1,0.2-1.7c-0.3,0.2-0.7,0.4-1,0.6
			c0.6,0.1,1.1,0.2,1.7,0.2c-1.2-2-2.5-4-3.7-6.1c-0.2,0.6-0.3,1.2-0.5,1.8c0.4-0.2,0.7-0.4,1.1-0.6c1.3-0.7,0.4-3-0.9-2.2
			c-0.4,0.2-0.7,0.4-1.1,0.6c-0.7,0.4-0.9,1.1-0.5,1.8c1.2,2,2.5,4,3.7,6.1c0.4,0.6,1.2,0.5,1.7,0.2c0.3-0.2,0.7-0.4,1-0.6
			c0.6-0.4,0.5-1.2,0.2-1.7c-1.2-2-2.4-4-3.6-6.1C230.3,273.9,228.4,275.3,229.2,276.6z M281.5,191.7c2.5,0.1,5,0.3,7.6,0.4
			c0-0.4,0-0.7,0.1-1.1c-2.5,0-5,0-7.6,0C281.5,191.3,281.5,191.5,281.5,191.7z M281.5,192.3c2.5,0,5,0,7.6,0
			c-0.4-0.4-0.8-0.8-1.2-1.2c0,0.4,0,0.7-0.1,1.1c0.4-0.4,0.8-0.8,1.2-1.2c-2.5-0.1-5-0.3-7.6-0.4c0.4,0.4,0.8,0.8,1.2,1.2
			c0-0.2,0-0.4,0-0.7c0.1-1.5-2.3-1.5-2.4,0c0,0.2,0,0.4,0,0.7c-0.1,0.7,0.6,1.2,1.2,1.2c2.5,0.1,5,0.3,7.6,0.4
			c0.7,0,1.2-0.6,1.2-1.2c0-0.4,0-0.7,0.1-1.1c0-0.7-0.6-1.2-1.2-1.2c-2.5,0-5,0-7.6,0C280,189.9,280,192.3,281.5,192.3z
			 M302.9,104.7c-11.8,7.2-27.2,16.2-38.9,23.4c0.2,0.4,0.4,0.7,0.7,1.1c11.8-7.2,27.2-16.2,39-23.4
			C303.3,105.4,303.1,105,302.9,104.7z M302.9,104.8c-11.8,7.2-27.2,16.2-39,23.4c0.6,0.1,1.1,0.2,1.7,0.3c-0.2-0.4-0.4-0.7-0.7-1.1
			c-0.1,0.6-0.2,1.1-0.3,1.7c11.8-7.2,27.2-16.2,38.9-23.4c-0.6-0.1-1.1-0.2-1.7-0.3c0.2,0.4,0.5,0.7,0.7,1.1c0.8,1.3,2.8-0.1,2-1.4
			c-0.2-0.4-0.5-0.7-0.7-1.1c-0.4-0.6-1.1-0.6-1.7-0.3c-11.8,7.2-27.2,16.2-38.9,23.4c-0.6,0.4-0.6,1.1-0.3,1.7
			c0.2,0.4,0.4,0.7,0.7,1.1c0.4,0.6,1.1,0.6,1.7,0.3c11.8-7.2,27.2-16.2,39-23.4C305.6,106,304.2,104,302.9,104.8z M258.2,252.7
			c2.5,1.9,5,3.9,7.5,5.8c0.2-0.3,0.5-0.6,0.7-1c-2.5-1.9-5-3.9-7.4-5.8C258.7,252.1,258.5,252.4,258.2,252.7z M258.3,252.7
			c2.5,1.9,5,3.9,7.4,5.8c-0.1-0.6-0.1-1.1-0.2-1.7c-0.2,0.3-0.5,0.6-0.7,1c0.6-0.1,1.1-0.1,1.7-0.2c-2.5-1.9-5-3.9-7.5-5.8
			c0.1,0.6,0.1,1.1,0.2,1.7c0.3-0.3,0.5-0.6,0.8-0.9c1-1.2-0.9-2.7-1.9-1.5c-0.3,0.3-0.5,0.6-0.8,0.9c-0.4,0.5-0.3,1.3,0.2,1.7
			c2.5,1.9,5,3.9,7.5,5.8c0.5,0.4,1.3,0.3,1.7-0.2c0.2-0.3,0.5-0.6,0.7-1c0.4-0.5,0.3-1.3-0.2-1.7c-2.5-1.9-5-3.9-7.4-5.8
			C258.5,249.9,257,251.8,258.3,252.7z"/>
	</defs>
	<use xlink:href="#SVGID_3_"  style="overflow:visible;"/>
	<clipPath id="SVGID_4_">
		<use xlink:href="#SVGID_3_"  style="overflow:visible;"/>
	</clipPath>
</g>
<g id="Layer_2">
	<defs>
		<path id="SVGID_5_" d="M176.8,34.5c0,15.6,0,31.1,0,46.7c-0.2,0-0.4,0-0.6,0c0-15.6,0-31.1,0-46.7
			C176.3,34.5,176.6,34.5,176.8,34.5z M175.6,34.5c0,7.8,0,15.6,0,23.3c0,3.5,0,7,0,10.5c0,1.9,0,3.9,0,5.8c0,1.5-0.9,7.4,0.9,7.5
			c1.7,0,0.9-10.1,0.9-12.1c0-3.9,0-7.8,0-11.7c0-2,0.5-22.1-0.6-22.1c1.5,0,1.6-2.4,0-2.4c-0.2,0-0.4,0-0.6,0
			c-0.7,0-1.2,0.6-1.2,1.2c0,15.6,0,31.1,0,46.7c0,0.7,0.6,1.2,1.2,1.2c0.2,0,0.4,0,0.6,0c0.7,0,1.2-0.6,1.2-1.2
			c0-15.6,0-31.1,0-46.7C178,32.9,175.6,32.9,175.6,34.5z M160.7,82c-2.7-16.9-5.4-33.7-8-50.6c-0.4,0.1-0.8,0.1-1.2,0.2
			c2.7,16.9,5.4,33.7,8,50.6C159.9,82.1,160.3,82,160.7,82z M160.6,81.8c-2.7-16.9-5.4-33.7-8-50.6c-0.3,0.5-0.6,1-0.8,1.5
			c0.4-0.1,0.8-0.1,1.2-0.2c-0.5-0.3-1-0.6-1.5-0.8c2.7,16.9,5.4,33.7,8,50.6c0.3-0.5,0.6-1,0.8-1.5c-0.4,0.1-0.8,0.1-1.2,0.2
			c-1.5,0.2-0.9,2.6,0.6,2.3c0.4-0.1,0.8-0.1,1.2-0.2c0.7-0.1,0.9-0.9,0.8-1.5c-2.7-16.9-5.4-33.7-8-50.6c-0.1-0.7-0.9-0.9-1.5-0.8
			c-0.4,0.1-0.8,0.1-1.2,0.2c-0.7,0.1-0.9,0.9-0.8,1.5c2.7,16.9,5.4,33.7,8,50.6C158.6,84,160.9,83.4,160.6,81.8z M86.5,132.6
			c-14.1-8.2-28.3-16.3-42.4-24.5c-0.2,0.4-0.4,0.7-0.6,1.1c14.1,8.2,28.3,16.3,42.4,24.5C86.1,133.3,86.3,133,86.5,132.6z
			 M86.5,132.7c-14.1-8.2-28.3-16.3-42.4-24.5c0.1,0.5,0.3,1.1,0.4,1.6c0.2-0.4,0.4-0.7,0.6-1.1c-0.5,0.1-1.1,0.3-1.6,0.4
			c14.1,8.2,28.3,16.3,42.4,24.5c-0.1-0.5-0.3-1.1-0.4-1.6c-0.2,0.4-0.4,0.7-0.6,1.1c-0.8,1.3,1.3,2.6,2.1,1.2
			c0.2-0.4,0.4-0.7,0.6-1.1c0.3-0.6,0.1-1.3-0.4-1.6c-14.1-8.2-28.3-16.3-42.4-24.5c-0.6-0.3-1.3-0.1-1.6,0.4
			c-0.2,0.4-0.4,0.7-0.6,1.1c-0.3,0.6-0.1,1.3,0.4,1.6c14.1,8.2,28.3,16.3,42.4,24.5C86.6,135.5,87.9,133.5,86.5,132.7z
			 M115.8,100.6c-9.2-12.7-18.4-25.4-27.6-38.1c-0.3,0.2-0.7,0.5-1,0.7c9.1,12.8,18.4,25.4,27.6,38.1
			C115.1,101.1,115.5,100.8,115.8,100.6z M115.8,100.7C106.6,88,97.3,75.4,88.2,62.6c-0.1,0.5-0.3,1.1-0.4,1.6
			c0.3-0.2,0.7-0.5,1-0.7c-0.5-0.1-1.1-0.3-1.6-0.4c9.2,12.7,18.4,25.4,27.6,38.1c0.1-0.5,0.3-1.1,0.4-1.6c-0.3,0.2-0.7,0.5-1,0.7
			c-1.2,0.9,0,3,1.2,2.1c0.3-0.2,0.7-0.5,1-0.7c0.5-0.4,0.8-1.1,0.4-1.6c-9.2-12.7-18.4-25.4-27.6-38.1c-0.4-0.5-1.1-0.8-1.6-0.4
			c-0.3,0.2-0.7,0.5-1,0.7c-0.5,0.4-0.8,1.1-0.4,1.6c9.1,12.8,18.4,25.4,27.6,38.1C114.6,103.2,116.7,102,115.8,100.7z M124.9,94.7
			c-7.7-13.4-15.5-26.8-23.2-40.2c-0.4,0.2-0.7,0.4-1.1,0.6c7.7,13.4,15.5,26.8,23.2,40.2C124.2,95.1,124.6,94.9,124.9,94.7z
			 M124.9,94.7c-7.7-13.4-15.5-26.8-23.2-40.2c-0.1,0.5-0.3,1.1-0.4,1.6c0.4-0.2,0.7-0.4,1.1-0.6c-0.5-0.1-1.1-0.3-1.6-0.4
			c7.7,13.4,15.5,26.8,23.2,40.2c0.1-0.5,0.3-1.1,0.4-1.6c-0.4,0.2-0.7,0.4-1.1,0.6c-1.3,0.8-0.1,2.9,1.2,2.1
			c0.4-0.2,0.7-0.4,1.1-0.6c0.6-0.3,0.8-1.1,0.4-1.6c-7.7-13.4-15.5-26.8-23.2-40.2c-0.3-0.6-1.1-0.8-1.6-0.4
			c-0.4,0.2-0.7,0.4-1.1,0.6c-0.6,0.3-0.8,1.1-0.4,1.6c7.7,13.4,15.5,26.8,23.2,40.2C123.6,97.3,125.6,96.1,124.9,94.7z M122.2,46.1
			c5.4,14,10.8,28.1,16.2,42.1c0.4-0.1,0.8-0.3,1.2-0.4c-5.4-14-10.8-28-16.2-42.1C123,45.8,122.6,45.9,122.2,46.1z M122.3,46
			c5.4,14,10.8,28,16.2,42.1c0.3-0.5,0.6-1,0.8-1.5c-0.4,0.1-0.8,0.3-1.2,0.4c0.5,0.3,1,0.6,1.5,0.8c-5.4-14-10.8-28.1-16.2-42.1
			c-0.3,0.5-0.6,1-0.8,1.5c0.4-0.1,0.8-0.3,1.2-0.4c1.4-0.5,0.8-2.9-0.6-2.3c-0.4,0.1-0.8,0.3-1.2,0.4c-0.6,0.2-1.1,0.8-0.8,1.5
			c5.4,14,10.8,28.1,16.2,42.1c0.2,0.6,0.8,1.1,1.5,0.8c0.4-0.1,0.8-0.3,1.2-0.4c0.6-0.2,1.1-0.8,0.8-1.5c-5.4-14-10.8-28-16.2-42.1
			C124,43.9,121.7,44.5,122.3,46z M134.6,89.8c-5.4-12.2-10.9-24.4-16.3-36.6c-0.4,0.2-0.8,0.3-1.1,0.5
			c5.4,12.2,10.8,24.4,16.2,36.6C133.8,90.1,134.2,90,134.6,89.8z M134.4,89.6c-5.4-12.2-10.8-24.4-16.2-36.6
			c-0.1,0.5-0.3,1.1-0.4,1.6c0.4-0.2,0.8-0.3,1.1-0.5c-0.5-0.1-1.1-0.3-1.6-0.4c5.4,12.2,10.9,24.4,16.3,36.6
			c0.2-0.6,0.5-1.2,0.7-1.8c-0.4,0.1-0.8,0.3-1.2,0.4c-1.4,0.5-0.8,2.9,0.6,2.3c0.4-0.1,0.8-0.3,1.2-0.4c0.8-0.3,1.1-1,0.7-1.8
			c-5.4-12.2-10.9-24.4-16.3-36.6c-0.3-0.6-1.1-0.7-1.6-0.4c-0.4,0.2-0.8,0.3-1.1,0.5c-0.6,0.3-0.7,1.1-0.4,1.6
			c5.4,12.2,10.8,24.4,16.2,36.6C133,92.3,135.1,91,134.4,89.6z M72.7,173.9c-13.9-1.5-27.9-2.9-41.8-4.4c0,0.4-0.1,0.8-0.1,1.2
			c13.9,1.5,27.9,2.9,41.8,4.4C72.7,174.7,72.7,174.3,72.7,173.9z M72.7,173.9c-6.6-0.7-13.2-1.4-19.7-2.1c-3.5-0.4-7-0.7-10.5-1.1
			c-1.5-0.2-9.3-1.2-9.2-0.4c0.3,2.7,38.3,2.9,38.2,4.7c-0.1,1.5,2.3,1.5,2.4,0c0-0.4,0-0.8,0.1-1.2c0-0.7-0.6-1.1-1.2-1.2
			c-13.9-1.5-27.9-2.9-41.8-4.4c-0.7-0.1-1.1,0.6-1.2,1.2c0,0.4-0.1,0.8-0.1,1.2c-0.1,0.7,0.6,1.1,1.2,1.2
			c13.9,1.5,27.9,2.9,41.8,4.4C74.2,176.4,74.2,174,72.7,173.9z M72,185.1c-15.1,0-30.3,0-45.4,0c0,0.2,0,0.4,0,0.6
			c15.1,0,30.3,0,45.4,0C72,185.5,72,185.3,72,185.1z M72,184.5c-7.2,0-14.3,0-21.5,0c-4,0-8,0-11.9,0c-1.9,0-9.6-0.6-9.6,0.9
			c0,1.6,7.9,0.9,9.6,0.9c3.6,0,7.2,0,10.8,0c1.9,0,21.5,0.5,21.5-0.6c0,1.5,2.4,1.6,2.4,0c0-0.2,0-0.4,0-0.6c0-0.7-0.6-1.2-1.2-1.2
			c-15.1,0-30.3,0-45.4,0c-0.7,0-1.2,0.6-1.2,1.2c0,0.2,0,0.4,0,0.6c0,0.7,0.6,1.2,1.2,1.2c15.1,0,30.3,0,45.4,0
			C73.6,186.9,73.6,184.5,72,184.5z M182.6,81.1c0.7-13.3,1.4-26.7,2.1-40c-0.4,0-0.8,0-1.2-0.1c-0.7,13.3-1.4,26.7-2.1,40
			C181.8,81.1,182.2,81.1,182.6,81.1z M182.6,81.1c0.3-6.3,0.7-12.6,1-18.8c0.2-3.1,0.3-6.3,0.5-9.4c0.1-1.5,0.8-9.4-0.1-9.4
			c-1.8,0.1-1.9,36.5-2.6,36.4c-1.5-0.1-1.5,2.3,0,2.4c0.4,0,0.8,0.1,1.2,0.1c0.7,0,1.2-0.6,1.2-1.2c0.7-13.3,1.4-26.7,2.1-40
			c0-0.7-0.6-1.2-1.2-1.2c-0.4,0-0.8,0-1.2-0.1c-0.7,0-1.2,0.6-1.2,1.2c-0.7,13.3-1.4,26.7-2.1,40C180.1,82.6,182.5,82.6,182.6,81.1
			z M73.4,168.4c-12.8-2-25.5-4-38.3-6c-0.1,0.4-0.1,0.8-0.2,1.2c12.8,2,25.5,4,38.3,6.1C73.3,169.2,73.3,168.8,73.4,168.4z
			 M73.5,168.5c-12.8-2-25.5-4-38.3-6.1c0.3,0.5,0.6,1,0.8,1.5c0.1-0.4,0.1-0.8,0.2-1.2c-0.5,0.3-1,0.6-1.5,0.8
			c12.8,2,25.5,4,38.3,6c-0.3-0.5-0.6-1-0.8-1.5c-0.1,0.4-0.1,0.8-0.2,1.2c-0.2,1.5,2.1,2.2,2.3,0.6c0.1-0.4,0.1-0.8,0.2-1.2
			c0.1-0.6-0.1-1.4-0.8-1.5c-12.8-2-25.5-4-38.3-6c-0.6-0.1-1.4,0.1-1.5,0.8c-0.1,0.4-0.1,0.8-0.2,1.2c-0.1,0.6,0.1,1.4,0.8,1.5
			c12.8,2,25.5,4,38.3,6.1C74.4,171,75,168.7,73.5,168.5z M131.8,50.3c3.9,12,7.8,24,11.7,36c0.4-0.1,0.8-0.3,1.2-0.4
			c-3.9-12-7.8-24-11.7-36C132.6,50.1,132.2,50.2,131.8,50.3z M131.9,50.2c3.9,12,7.8,24,11.7,36c0.3-0.5,0.6-1,0.8-1.5
			c-0.4,0.1-0.8,0.3-1.2,0.4c0.5,0.3,1,0.6,1.5,0.8c-3.9-12-7.8-24-11.7-36c-0.3,0.5-0.6,1-0.8,1.5c0.4-0.1,0.8-0.3,1.2-0.4
			c1.5-0.5,0.8-2.8-0.6-2.3c-0.4,0.1-0.8,0.3-1.2,0.4c-0.6,0.2-1,0.8-0.8,1.5c3.9,12,7.8,24,11.7,36c0.2,0.6,0.8,1,1.5,0.8
			c0.4-0.1,0.8-0.3,1.2-0.4c0.6-0.2,1-0.8,0.8-1.5c-3.9-12-7.8-24-11.7-36C133.7,48.1,131.4,48.8,131.9,50.2z M42.9,142.6
			c11.4,3.7,22.7,7.4,34.1,11.1c0.1-0.4,0.3-0.8,0.4-1.2c-11.4-3.7-22.7-7.4-34.1-11C43.1,141.9,43,142.2,42.9,142.6z M43,142.6
			c11.4,3.7,22.7,7.4,34.1,11c-0.3-0.5-0.6-1-0.8-1.5c-0.1,0.4-0.3,0.8-0.4,1.2c0.5-0.3,1-0.6,1.5-0.8c-11.4-3.7-22.7-7.4-34.1-11.1
			c0.3,0.5,0.6,1,0.8,1.5c0.1-0.4,0.3-0.8,0.4-1.2c0.5-1.5-1.8-2.1-2.3-0.6c-0.1,0.4-0.3,0.8-0.4,1.2c-0.2,0.6,0.2,1.3,0.8,1.5
			c11.4,3.7,22.7,7.4,34.1,11.1c0.6,0.2,1.3-0.2,1.5-0.8c0.1-0.4,0.3-0.8,0.4-1.2c0.2-0.6-0.2-1.3-0.8-1.5
			c-11.4-3.7-22.7-7.4-34.1-11C42.1,139.8,41.5,142.1,43,142.6z M68.8,99.1c8.7,7.1,17.5,14.1,26.2,21.2c0.3-0.3,0.5-0.7,0.8-1
			c-8.7-7.1-17.5-14.2-26.2-21.2C69.3,98.4,69.1,98.7,68.8,99.1z M68.7,98.9c8.7,7.1,17.5,14.2,26.2,21.2c0-0.6,0-1.1,0-1.7
			c-0.3,0.3-0.5,0.7-0.8,1c0.6,0,1.1,0,1.7,0c-2.2-1.7-25.6-20.3-25.2-20.8c0.9-1.2-1.1-2.4-2.1-1.2c-0.3,0.3-0.5,0.7-0.8,1
			c-0.3,0.4-0.2,1.2,0.2,1.5c8.7,7.1,17.5,14.1,26.2,21.2c0.5,0.4,1.3,0.5,1.7,0c0.3-0.3,0.5-0.7,0.8-1c0.4-0.5,0.5-1.3,0-1.7
			c-8.7-7.1-17.5-14.2-26.2-21.2C69.2,96.2,67.5,97.9,68.7,98.9z M83.8,137.5C73.5,132.2,63.3,127,53,121.8
			c-0.2,0.4-0.4,0.7-0.6,1.1c10.3,5.2,20.5,10.5,30.8,15.7C83.4,138.2,83.6,137.8,83.8,137.5z M83.9,137.5
			c-10.3-5.2-20.5-10.5-30.8-15.7c0.1,0.5,0.3,1.1,0.4,1.6c0.2-0.4,0.4-0.7,0.6-1.1c-0.5,0.1-1.1,0.3-1.6,0.4
			c10.3,5.2,20.5,10.5,30.8,15.7c-0.1-0.5-0.3-1.1-0.4-1.6c-0.2,0.4-0.4,0.7-0.6,1.1c-0.7,1.4,1.4,2.6,2.1,1.2
			c0.2-0.4,0.4-0.7,0.6-1.1c0.3-0.6,0.2-1.3-0.4-1.6c-10.3-5.2-20.5-10.5-30.8-15.7c-0.6-0.3-1.3-0.2-1.6,0.4
			c-0.2,0.4-0.4,0.7-0.6,1.1c-0.3,0.6-0.2,1.3,0.4,1.6c10.3,5.2,20.5,10.5,30.8,15.7C84,140.3,85.2,138.2,83.9,137.5z M34.8,178.6
			c12.4,0.6,24.7,1.3,37.1,1.9c0-0.4,0-0.8,0.1-1.2c-12.3-0.6-24.7-1.3-37-1.9C34.9,177.8,34.9,178.2,34.8,178.6z M34.9,178.6
			c6.2,0.3,12.3,0.6,18.5,1c2.1,0.1,16.2,1.2,16.2,0.2c-0.1-1.7-33.5-1.8-33.5-2.4c0.1-1.5-2.3-1.5-2.4,0c0,0.4-0.1,0.8-0.1,1.2
			c-0.1,0.7,0.6,1.2,1.2,1.2c12.4,0.6,24.7,1.3,37.1,1.9c0.7,0,1.2-0.6,1.2-1.2c0-0.4,0-0.8,0.1-1.2c0-0.7-0.6-1.2-1.2-1.2
			c-12.3-0.6-24.7-1.3-37-1.9C33.4,176.1,33.4,178.5,34.9,178.6z M161.1,45.9c1.3,11.9,2.5,23.8,3.8,35.6c0.4,0,0.8-0.1,1.2-0.1
			c-1.3-11.9-2.5-23.8-3.8-35.6C161.9,45.9,161.5,45.9,161.1,45.9z M161.1,45.8c0.4,3.5,2.2,33.1,4.1,33.3c1.1,0.1,0-5.9-0.2-7.1
			c-0.3-2.8-0.6-5.5-0.9-8.3c-0.2-1.4-1.7-16.8-1.9-16.8c1.5-0.2,1.5-2.6,0-2.4c-0.4,0-0.8,0.1-1.2,0.1c-0.6,0.1-1.3,0.5-1.2,1.2
			c1.3,11.9,2.5,23.8,3.8,35.6c0.1,0.6,0.5,1.3,1.2,1.2c0.4,0,0.8-0.1,1.2-0.1c0.6-0.1,1.3-0.5,1.2-1.2c-1.3-11.9-2.5-23.8-3.8-35.6
			C163.4,44.3,161,44.3,161.1,45.8z M89.4,128.1c-9.4-6.1-18.8-12.2-28.3-18.3c-0.2,0.4-0.5,0.7-0.7,1.1
			c9.4,6.1,18.8,12.2,28.2,18.3C88.9,128.8,89.1,128.5,89.4,128.1z M89.2,128.1c-9.4-6.1-18.8-12.2-28.2-18.3
			c0.1,0.5,0.3,1.1,0.4,1.6c0.2-0.4,0.5-0.7,0.7-1.1c-0.5,0.1-1.1,0.3-1.6,0.4c9.4,6.1,18.8,12.2,28.3,18.3
			c-0.1-0.5-0.3-1.1-0.4-1.6c-0.2,0.4-0.5,0.7-0.7,1.1c-0.9,1.3,1.2,2.5,2.1,1.2c0.2-0.4,0.5-0.7,0.7-1.1c0.4-0.6,0.1-1.3-0.4-1.6
			c-9.4-6.1-18.8-12.2-28.3-18.3c-0.6-0.4-1.3-0.1-1.6,0.4c-0.2,0.4-0.5,0.7-0.7,1.1c-0.4,0.6-0.1,1.3,0.4,1.6
			c9.4,6.1,18.8,12.2,28.2,18.3C89.3,131.1,90.5,129,89.2,128.1z M41.8,157.3c10.9,2.3,21.7,4.6,32.6,6.9c0.1-0.4,0.2-0.8,0.3-1.2
			c-10.9-2.3-21.7-4.6-32.6-6.9C42,156.5,41.9,156.9,41.8,157.3z M41.8,157.3c10.9,2.3,21.7,4.6,32.6,6.9c-0.3-0.5-0.6-1-0.8-1.5
			c-0.1,0.4-0.2,0.8-0.3,1.2c0.5-0.3,1-0.6,1.5-0.8c-10.9-2.3-21.7-4.6-32.6-6.9c0.3,0.5,0.6,1,0.8,1.5c0.1-0.4,0.2-0.8,0.3-1.2
			c0.3-1.5-2-2.2-2.3-0.6c-0.1,0.4-0.2,0.8-0.3,1.2c-0.1,0.6,0.2,1.3,0.8,1.5c10.9,2.3,21.7,4.6,32.6,6.9c0.6,0.1,1.3-0.2,1.5-0.8
			c0.1-0.4,0.2-0.8,0.3-1.2c0.1-0.6-0.2-1.3-0.8-1.5c-10.9-2.3-21.7-4.6-32.6-6.9C40.9,154.7,40.3,157,41.8,157.3z M190.4,48.1
			c-1.2,11.1-2.3,22.2-3.5,33.4c0.4,0,0.8,0.1,1.2,0.1c1.2-11.1,2.4-22.2,3.5-33.4C191.2,48.2,190.8,48.1,190.4,48.1z M190.4,48.2
			c-0.6,5.6-1.2,11.1-1.8,16.7c-0.3,2.4-0.5,4.8-0.8,7.1c-0.1,1.2-1.3,7.2-0.1,7.1c2.1-0.2,2.7-29.8,3.9-29.7c1.5,0.2,1.5-2.2,0-2.4
			c-0.4,0-0.8-0.1-1.2-0.1c-0.7-0.1-1.1,0.6-1.2,1.2c-1.2,11.1-2.3,22.2-3.5,33.4c-0.1,0.7,0.6,1.1,1.2,1.2c0.4,0,0.8,0.1,1.2,0.1
			c0.7,0.1,1.1-0.6,1.2-1.2c1.2-11.1,2.4-22.2,3.5-33.4C192.9,46.7,190.5,46.7,190.4,48.2z M92.5,123.5
			c-8.4-6.1-16.8-12.2-25.2-18.3c-0.2,0.3-0.5,0.7-0.7,1c8.4,6.1,16.8,12.2,25.2,18.3C92,124.2,92.2,123.9,92.5,123.5z M92.3,123.5
			c-8.4-6.1-16.8-12.2-25.2-18.3c0.1,0.5,0.3,1.1,0.4,1.6c0.2-0.3,0.5-0.7,0.7-1c-0.5,0.1-1.1,0.3-1.6,0.4
			c8.4,6.1,16.8,12.2,25.2,18.3c-0.1-0.5-0.3-1.1-0.4-1.6c-0.2,0.4-0.5,0.7-0.7,1.1c-0.9,1.3,1.2,2.5,2.1,1.2
			c0.2-0.4,0.5-0.7,0.7-1.1c0.4-0.6,0.1-1.3-0.4-1.6c-8.4-6.1-16.8-12.2-25.2-18.3c-0.6-0.4-1.3-0.1-1.6,0.4c-0.2,0.3-0.5,0.7-0.7,1
			c-0.4,0.6-0.1,1.3,0.4,1.6c8.4,6.1,16.8,12.2,25.2,18.3C92.4,126.5,93.6,124.4,92.3,123.5z M92.5,123.5
			c-8.4-6.1-16.8-12.2-25.2-18.3c-0.2,0.3-0.5,0.7-0.7,1c8.4,6.1,16.8,12.2,25.2,18.3C92,124.2,92.2,123.9,92.5,123.5z M92.3,123.5
			c-8.4-6.1-16.8-12.2-25.2-18.3c0.1,0.5,0.3,1.1,0.4,1.6c0.2-0.3,0.5-0.7,0.7-1c-0.5,0.1-1.1,0.3-1.6,0.4
			c8.4,6.1,16.8,12.2,25.2,18.3c-0.1-0.5-0.3-1.1-0.4-1.6c-0.2,0.4-0.5,0.7-0.7,1.1c-0.9,1.3,1.2,2.5,2.1,1.2
			c0.2-0.4,0.5-0.7,0.7-1.1c0.4-0.6,0.1-1.3-0.4-1.6c-8.4-6.1-16.8-12.2-25.2-18.3c-0.6-0.4-1.3-0.1-1.6,0.4c-0.2,0.3-0.5,0.7-0.7,1
			c-0.4,0.6-0.1,1.3,0.4,1.6c8.4,6.1,16.8,12.2,25.2,18.3C92.4,126.5,93.6,124.4,92.3,123.5z M197.1,50.7
			c-1.6,10.4-3.3,20.8-4.9,31.2c0.4,0.1,0.8,0.1,1.2,0.2c1.7-10.4,3.3-20.8,5-31.2C198,50.8,197.5,50.8,197.1,50.7z M197.2,50.6
			c-1.7,10.4-3.3,20.8-5,31.2c0.5-0.3,1-0.6,1.5-0.8c-0.4-0.1-0.8-0.1-1.2-0.2c0.3,0.5,0.6,1,0.8,1.5c1.6-10.4,3.3-20.8,4.9-31.2
			c-0.5,0.3-1,0.6-1.5,0.8c0.4,0.1,0.8,0.1,1.2,0.2c1.5,0.2,2.2-2.1,0.6-2.3c-0.4-0.1-0.8-0.1-1.2-0.2c-0.6-0.1-1.4,0.1-1.5,0.8
			c-1.6,10.4-3.3,20.8-4.9,31.2c-0.1,0.6,0.1,1.4,0.8,1.5c0.4,0.1,0.8,0.1,1.2,0.2c0.6,0.1,1.4-0.1,1.5-0.8
			c1.7-10.4,3.3-20.8,5-31.2C199.8,49.7,197.4,49.1,197.2,50.6z M210.6,54.9c-2.6,9.9-5.2,19.7-7.8,29.6c0.4,0.1,0.8,0.2,1.2,0.3
			c2.6-9.9,5.3-19.7,7.9-29.6C211.4,55.1,211,55,210.6,54.9z M210.7,54.9c-2.6,9.9-5.3,19.7-7.9,29.6c0.5-0.3,1-0.6,1.5-0.8
			c-0.4-0.1-0.8-0.2-1.2-0.3c0.3,0.5,0.6,1,0.8,1.5c2.6-9.9,5.2-19.7,7.8-29.6c-0.5,0.3-1,0.6-1.5,0.8c0.4,0.1,0.8,0.2,1.2,0.3
			c1.5,0.4,2.1-2,0.6-2.3c-0.4-0.1-0.8-0.2-1.2-0.3c-0.6-0.2-1.3,0.2-1.5,0.8c-2.6,9.9-5.2,19.7-7.8,29.6c-0.2,0.6,0.2,1.3,0.8,1.5
			c0.4,0.1,0.8,0.2,1.2,0.3c0.6,0.2,1.3-0.2,1.5-0.8c2.6-9.9,5.3-19.7,7.9-29.6C213.4,54,211.1,53.4,210.7,54.9z M115.2,66.8
			c4.4,8.6,8.8,17.2,13.2,25.8c0.4-0.2,0.7-0.4,1.1-0.6c-4.4-8.6-8.8-17.2-13.2-25.9C116,66.4,115.6,66.6,115.2,66.8z M115.3,66.8
			c4.4,8.6,8.8,17.2,13.2,25.9c0.1-0.5,0.3-1.1,0.4-1.6c-0.4,0.2-0.7,0.4-1.1,0.6c0.5,0.1,1.1,0.3,1.6,0.4
			c-4.4-8.6-8.8-17.2-13.2-25.8c-0.1,0.5-0.3,1.1-0.4,1.6c0.4-0.2,0.8-0.4,1.1-0.6c1.4-0.7,0.2-2.8-1.2-2.1
			c-0.4,0.2-0.8,0.4-1.1,0.6c-0.6,0.3-0.7,1.1-0.4,1.6c4.4,8.6,8.8,17.2,13.2,25.8c0.3,0.6,1.1,0.7,1.6,0.4c0.4-0.2,0.7-0.4,1.1-0.6
			c0.6-0.3,0.7-1.1,0.4-1.6c-4.4-8.6-8.8-17.2-13.2-25.9C116.7,64.2,114.6,65.4,115.3,66.8z M120.3,97.6
			c-5.1-7.8-10.1-15.6-15.2-23.3c-0.4,0.2-0.7,0.5-1.1,0.7c5.1,7.8,10.1,15.6,15.2,23.3C119.6,98.1,119.9,97.8,120.3,97.6z
			 M120.3,97.7c-5.1-7.8-10.1-15.6-15.2-23.3c-0.1,0.5-0.3,1.1-0.4,1.6c0.4-0.2,0.7-0.5,1.1-0.7c-0.5-0.1-1.1-0.3-1.6-0.4
			c5.1,7.8,10.1,15.6,15.2,23.3c0.1-0.5,0.3-1.1,0.4-1.6c-0.3,0.2-0.7,0.5-1,0.7c-1.3,0.8-0.1,2.9,1.2,2.1c0.3-0.2,0.7-0.5,1-0.7
			c0.5-0.3,0.8-1.1,0.4-1.6c-5.1-7.8-10.1-15.6-15.2-23.3c-0.3-0.5-1.1-0.8-1.6-0.4c-0.4,0.2-0.7,0.5-1.1,0.7
			c-0.5,0.3-0.8,1.1-0.4,1.6c5.1,7.8,10.1,15.6,15.2,23.3C119,100.2,121.1,99,120.3,97.7z M53.2,138.7c8.5,3.3,17.1,6.6,25.6,9.8
			c0.1-0.4,0.3-0.8,0.4-1.2c-8.5-3.3-17.1-6.5-25.6-9.8C53.5,138,53.3,138.4,53.2,138.7z M53.3,138.8c8.5,3.3,17.1,6.5,25.6,9.8
			c-0.3-0.5-0.6-1-0.8-1.5c-0.1,0.4-0.3,0.8-0.4,1.2c0.5-0.3,1-0.6,1.5-0.8c-8.5-3.3-17.1-6.6-25.6-9.8c0.3,0.5,0.6,1,0.8,1.5
			c0.1-0.4,0.3-0.8,0.4-1.1c0.6-1.4-1.8-2.1-2.3-0.6c-0.1,0.4-0.3,0.8-0.4,1.1c-0.2,0.6,0.3,1.3,0.8,1.5c8.5,3.3,17.1,6.6,25.6,9.8
			c0.6,0.2,1.3-0.3,1.5-0.8c0.1-0.4,0.3-0.8,0.4-1.2c0.2-0.6-0.3-1.3-0.8-1.5c-8.5-3.3-17.1-6.5-25.6-9.8
			C52.5,135.9,51.9,138.2,53.3,138.8z M72.1,190.2c-9.6,0.5-19.2,1-28.8,1.5c0,0.4,0,0.8,0.1,1.2c9.6-0.5,19.2-1,28.8-1.5
			C72.2,191,72.1,190.6,72.1,190.2z M72.2,190.2c-9.6,0.5-19.2,1-28.8,1.5c0.4,0.4,0.8,0.8,1.2,1.2c0-0.4,0-0.8-0.1-1.2
			c-0.4,0.4-0.8,0.8-1.2,1.2c9.6-0.5,19.2-1,28.8-1.5c-0.4-0.4-0.8-0.8-1.2-1.2c0,0.4,0,0.8,0.1,1.2c0.1,1.5,2.5,1.6,2.4,0
			c0-0.4,0-0.8-0.1-1.2c0-0.6-0.5-1.2-1.2-1.2c-9.6,0.5-19.2,1-28.8,1.5c-0.6,0-1.2,0.5-1.2,1.2c0,0.4,0,0.8,0.1,1.2
			c0,0.6,0.5,1.2,1.2,1.2c9.6-0.5,19.2-1,28.8-1.5C73.7,192.5,73.7,190.1,72.2,190.2z M171.7,81c-0.5-9.4-1-18.8-1.4-28.1
			c-0.4,0-0.8,0-1.2,0.1c0.5,9.4,1,18.8,1.5,28.2C170.9,81.1,171.3,81,171.7,81z M171.7,81.1c-0.5-9.4-1-18.8-1.5-28.2
			c-0.4,0.4-0.8,0.8-1.2,1.2c0.4,0,0.8,0,1.2-0.1c-0.4-0.4-0.8-0.8-1.2-1.2c0.5,9.4,1,18.8,1.4,28.1c0.4-0.4,0.8-0.8,1.2-1.2
			c-0.4,0-0.8,0.1-1.2,0.1c-1.5,0.1-1.5,2.5,0,2.4c0.4,0,0.8-0.1,1.2-0.1c0.6,0,1.2-0.5,1.2-1.2c-0.5-9.4-1-18.8-1.4-28.1
			c0-0.6-0.5-1.2-1.2-1.2c-0.4,0-0.8,0-1.2,0.1c-0.6,0-1.2,0.5-1.2,1.2c0.5,9.4,1,18.8,1.5,28.2C169.3,82.6,171.8,82.6,171.7,81.1z
			 M49.7,152c8.6,2.3,17.1,4.6,25.7,6.9c0.1-0.4,0.2-0.8,0.3-1.2c-8.6-2.3-17.1-4.6-25.7-6.9C49.9,151.2,49.8,151.6,49.7,152z
			 M49.7,152c8.6,2.3,17.1,4.6,25.7,6.9c-0.3-0.5-0.6-1-0.8-1.5c-0.1,0.4-0.2,0.8-0.3,1.2c0.5-0.3,1-0.6,1.5-0.8
			c-8.6-2.3-17.1-4.6-25.7-6.9c0.3,0.5,0.6,1,0.8,1.5c0.1-0.4,0.2-0.8,0.3-1.2c0.4-1.5-1.9-2.1-2.3-0.6c-0.1,0.4-0.2,0.8-0.3,1.2
			c-0.2,0.6,0.2,1.3,0.8,1.5c8.6,2.3,17.1,4.6,25.7,6.9c0.6,0.2,1.3-0.2,1.5-0.8c0.1-0.4,0.2-0.8,0.3-1.2c0.2-0.6-0.2-1.3-0.8-1.5
			c-8.6-2.3-17.1-4.6-25.7-6.9C48.9,149.3,48.2,151.6,49.7,152z M79.6,99.1c6.3,5.7,12.6,11.3,18.9,17c0.3-0.3,0.6-0.6,0.8-0.9
			c-6.3-5.7-12.6-11.3-18.9-17C80.1,98.4,79.9,98.7,79.6,99.1z M79.6,98.9c6.3,5.7,12.6,11.3,18.9,17c0-0.6,0-1.1,0-1.7
			c-0.3,0.3-0.6,0.6-0.8,0.9c0.6,0,1.1,0,1.7,0c-6.3-5.7-12.6-11.3-18.9-17c0,0.6,0,1.1,0,1.7c0.3-0.3,0.6-0.7,0.9-1
			c1-1.2-0.7-2.9-1.7-1.7c-0.3,0.3-0.6,0.7-0.9,1c-0.4,0.5-0.5,1.2,0,1.7c6.3,5.7,12.6,11.3,18.9,17c0.5,0.4,1.3,0.5,1.7,0
			c0.3-0.3,0.6-0.6,0.8-0.9c0.4-0.5,0.5-1.2,0-1.7c-6.3-5.7-12.6-11.3-18.9-17C80.1,96.2,78.4,97.9,79.6,98.9z M150,84.3
			c-2.3-8.5-4.6-17-6.9-25.4c-0.4,0.1-0.8,0.2-1.2,0.3c2.3,8.5,4.6,17,6.9,25.5C149.2,84.6,149.6,84.5,150,84.3z M150,84.4
			c-2.3-8.5-4.6-17-6.9-25.5c-0.3,0.5-0.6,1-0.8,1.5c0.4-0.1,0.8-0.2,1.2-0.3c-0.5-0.3-1-0.6-1.5-0.8c2.3,8.5,4.6,17,6.9,25.4
			c0.3-0.5,0.6-1,0.8-1.5c-0.4,0.1-0.8,0.2-1.2,0.4c-1.5,0.4-0.8,2.8,0.6,2.3c0.4-0.1,0.8-0.2,1.2-0.4c0.6-0.2,1-0.8,0.8-1.5
			c-2.3-8.5-4.6-17-6.9-25.4c-0.2-0.6-0.9-1-1.5-0.8c-0.4,0.1-0.8,0.2-1.2,0.3c-0.6,0.2-1,0.8-0.8,1.5c2.3,8.5,4.6,17,6.9,25.5
			C148,86.5,150.4,85.9,150,84.4z M198.7,83.3c1.4-6.7,2.8-13.3,4.2-20c-0.4-0.1-0.8-0.2-1.2-0.2c-1.4,6.7-2.8,13.3-4.2,20
			C197.9,83.2,198.3,83.3,198.7,83.3z M198.7,83.4c1.4-6.7,2.8-13.3,4.2-20c-0.5,0.3-1,0.6-1.5,0.8c0.4,0.1,0.8,0.2,1.2,0.2
			c-0.3-0.5-0.6-1-0.8-1.5c-1.4,6.7-2.8,13.3-4.2,20c0.5-0.3,1-0.6,1.5-0.8c-0.4-0.1-0.8-0.2-1.2-0.2c-1.5-0.3-2.2,2-0.6,2.3
			c0.4,0.1,0.8,0.2,1.2,0.2c0.6,0.1,1.3-0.2,1.5-0.8c1.4-6.7,2.8-13.3,4.2-20c0.1-0.6-0.2-1.3-0.8-1.5c-0.4-0.1-0.8-0.2-1.2-0.2
			c-0.6-0.1-1.3,0.2-1.5,0.8c-1.4,6.7-2.8,13.3-4.2,20C196,84.3,198.3,84.9,198.7,83.4z M111.4,103.9c-2-2.4-3.9-4.7-5.9-7.1
			c-0.3,0.3-0.6,0.5-0.9,0.8c2,2.4,3.9,4.8,5.9,7.2C110.7,104.5,111,104.2,111.4,103.9z M111.2,103.9c-2-2.4-3.9-4.8-5.9-7.2
			c0,0.6,0,1.1,0,1.7c0.3-0.3,0.6-0.5,0.9-0.8c-0.6,0-1.1,0-1.7,0c2,2.4,3.9,4.7,5.9,7.1c0-0.6,0-1.1,0-1.7c-0.3,0.3-0.6,0.6-1,0.8
			c-1.2,1,0.5,2.7,1.7,1.7c0.3-0.3,0.6-0.6,1-0.8c0.5-0.5,0.4-1.2,0-1.7c-2-2.4-3.9-4.7-5.9-7.1c-0.4-0.5-1.2-0.4-1.7,0
			c-0.3,0.3-0.6,0.5-0.9,0.8c-0.5,0.5-0.4,1.2,0,1.7c2,2.4,3.9,4.8,5.9,7.2C110.5,106.8,112.2,105.1,111.2,103.9z M155.8,83.2
			c-1.5-6.6-3-13.3-4.5-19.9c-0.4,0.1-0.8,0.2-1.2,0.3c1.5,6.6,3,13.3,4.5,19.9C155,83.4,155.4,83.3,155.8,83.2z M155.8,83.3
			c-1.5-6.6-3-13.3-4.5-19.9c-0.3,0.5-0.7,0.9-1,1.4c0.4-0.1,0.8-0.2,1.2-0.3c-0.5-0.3-0.9-0.7-1.4-1c1.5,6.6,3,13.3,4.5,19.9
			c0.3-0.5,0.7-0.9,1-1.4c-0.4,0.1-0.8,0.2-1.2,0.3c-1.5,0.3-1.1,2.7,0.4,2.4c0.4-0.1,0.8-0.2,1.2-0.3c0.6-0.1,1.1-0.7,1-1.4
			c-1.5-6.6-3-13.3-4.5-19.9c-0.1-0.6-0.7-1.1-1.4-1c-0.4,0.1-0.8,0.2-1.2,0.3c-0.6,0.1-1.1,0.7-1,1.4c1.5,6.6,3,13.3,4.5,19.9
			C153.7,85.2,156.1,84.8,155.8,83.3z M106.8,107.1c-4.6-5-9.3-10-13.9-15c-0.3,0.3-0.6,0.5-0.9,0.8c4.6,5,9.3,10,13.9,15
			C106.2,107.6,106.5,107.3,106.8,107.1z M106.9,107.1c-4.6-5-9.3-10-13.9-15c-0.1,0.6-0.1,1.1-0.2,1.7c0.3-0.3,0.6-0.5,0.9-0.8
			c-0.6-0.1-1.1-0.1-1.7-0.2c4.6,5,9.3,10,13.9,15c0.1-0.6,0.1-1.1,0.2-1.7c-0.3,0.3-0.6,0.6-0.9,0.8c-1.1,1.1,0.4,2.9,1.5,1.9
			c0.3-0.3,0.6-0.6,0.9-0.8c0.5-0.4,0.6-1.2,0.2-1.7c-4.6-5-9.3-10-13.9-15c-0.4-0.5-1.2-0.6-1.7-0.2c-0.3,0.3-0.6,0.5-0.9,0.8
			c-0.5,0.4-0.6,1.2-0.2,1.7c4.6,5,9.3,10,13.9,15C106.1,109.8,107.9,108.3,106.9,107.1z M103.1,110.8c-7.6-7-15.3-14-22.9-21
			c-0.3,0.3-0.6,0.6-0.9,1c7.6,7,15.3,14,22.9,21C102.5,111.4,102.8,111.1,103.1,110.8z M103,110.8c-7.6-7-15.3-14-22.9-21
			c0.1,0.6,0.2,1.1,0.2,1.7c0.3-0.3,0.6-0.6,0.9-1c-0.6,0.1-1.1,0.2-1.7,0.2c7.6,7,15.3,14,22.9,21c-0.1-0.6-0.2-1.1-0.2-1.7
			c-0.3,0.3-0.6,0.6-0.9,1c-1,1.2,0.9,2.6,1.9,1.4c0.3-0.3,0.6-0.6,0.9-1c0.5-0.5,0.2-1.3-0.2-1.7c-7.6-7-15.3-14-22.9-21
			c-0.5-0.5-1.3-0.2-1.7,0.2c-0.3,0.3-0.6,0.6-0.9,1c-0.5,0.5-0.2,1.3,0.2,1.7c7.6,7,15.3,14,22.9,21
			C102.7,113.8,104.1,111.8,103,110.8z M55,132.8c8.4,3.5,16.9,7,25.3,10.5c0.2-0.4,0.3-0.8,0.5-1.2c-8.5-3.5-16.9-7-25.4-10.5
			C55.3,132.1,55.2,132.4,55,132.8z M55.1,132.8c8.5,3.5,16.9,7,25.4,10.5c-0.3-0.5-0.5-1-0.8-1.5c-0.2,0.4-0.3,0.8-0.5,1.2
			c0.5-0.3,1-0.5,1.5-0.8c-8.4-3.5-16.9-7-25.3-10.5c0.3,0.5,0.5,1,0.8,1.5c0.2-0.4,0.3-0.8,0.5-1.1c0.6-1.4-1.7-2.1-2.3-0.7
			c-0.2,0.4-0.3,0.8-0.5,1.1c-0.3,0.6,0.2,1.3,0.8,1.5c8.4,3.5,16.9,7,25.3,10.5c0.6,0.3,1.3-0.2,1.5-0.8c0.2-0.4,0.3-0.8,0.5-1.2
			c0.3-0.6-0.2-1.3-0.8-1.5c-8.5-3.5-16.9-7-25.4-10.5C54.4,129.9,53.7,132.2,55.1,132.8z"/>
	</defs>
	<use xlink:href="#SVGID_5_"  style="overflow:visible;"/>
	<clipPath id="SVGID_6_">
		<use xlink:href="#SVGID_5_"  style="overflow:visible;"/>
	</clipPath>
</g>
</svg>
