<svg version="1.1" id="Layer_1" xmlns="http://www.w3.org/2000/svg" xmlns:xlink="http://www.w3.org/1999/xlink" x="0px" y="0px"
	 viewBox="0 0 156.4 88" style="enable-background:new 0 0 156.4 88;" xml:space="preserve">
<path d="M108.3,78.9c-1.2,0-2.1-0.9-2.1-2.1c0-15.4-12.5-27.9-27.9-27.9S50.4,61.4,50.4,76.7c0,1.2-0.9,2.1-2.1,2.1
	s-2.1-0.9-2.1-2.1c0-17.7,14.4-32.1,32.1-32.1s32.1,14.4,32.1,32.1C110.4,77.9,109.5,78.9,108.3,78.9z"/>
<path d="M39.4,74.5l-20.5-0.3c-0.5,0-0.9,0.2-1.2,0.5c-0.3,0.3-0.5,0.7-0.5,1.1v0.9c0,0.9,0.6,1.6,1.5,1.7h0.1l20.4,0.3
	c0.2,0,0.3,0,0.5-0.1c0.7-0.1,1.2-0.8,1.2-1.5v-0.8C40.9,75.4,40.3,74.6,39.4,74.5z"/>
<path d="M137.9,74.5l-20.5-0.3c-0.5,0-0.9,0.2-1.2,0.5c-0.3,0.3-0.5,0.7-0.5,1.1v0.9c0,0.9,0.6,1.6,1.5,1.7h0.1l20.4,0.3
	c0.2,0,0.3,0,0.5-0.1c0.7-0.1,1.2-0.8,1.2-1.5v-0.8C139.5,75.4,138.8,74.6,137.9,74.5z"/>
<path d="M46.6,56.6c0.7,0.5,1.7,0.4,2.3-0.3l0.5-0.6c0.6-0.7,0.5-1.7-0.2-2.3L29.4,36.1h-0.1c-0.6-0.4-1.4-0.4-1.9,0
	c-0.1,0.1-0.2,0.2-0.3,0.3L26.5,37c-0.3,0.3-0.4,0.7-0.4,1.1c0,0.5,0.2,0.9,0.6,1.2L46.6,56.6L46.6,56.6z"/>
<path d="M109.4,56.6l19.8-17.2c0.4-0.3,0.6-0.8,0.6-1.2s-0.1-0.8-0.4-1.1l-0.6-0.6c-0.1-0.1-0.2-0.2-0.3-0.3c-0.6-0.4-1.4-0.4-1.9,0
	h-0.1l-19.8,17.2c-0.7,0.6-0.8,1.6-0.2,2.3l0.6,0.6C107.6,57,108.6,57.1,109.4,56.6L109.4,56.6z"/>
<path d="M79.9,40.8c0.9,0,1.7-0.7,1.7-1.6V11.8c0-0.1,0-0.2,0-0.3c-0.1-0.8-0.7-1.4-1.5-1.4h-0.8l0,0c-0.9,0-1.7,0.7-1.7,1.6v27.4
	c0,0.1,0,0.2,0,0.3s0,0.1,0,0.2c0.1,0.7,0.8,1.3,1.5,1.3L79.9,40.8L79.9,40.8z"/>
<path d="M129.8,61.3c0.8-0.4,1.1-1.4,0.7-2.2l-0.4-0.8c-0.4-0.8-1.4-1.1-2.2-0.7l-6,2.6c-0.4,0.2-0.8,0.5-0.9,1
	c-0.1,0.3-0.1,0.6,0,0.9c0,0.1,0.1,0.3,0.1,0.4l0.4,0.8c0.4,0.8,1.4,1.1,2.2,0.7L129.8,61.3z"/>
<path d="M33.5,64L33.5,64c0.8,0.4,1.8,0.2,2.3-0.7l0.4-0.8c0.1-0.1,0.1-0.2,0.1-0.4c0.1-0.3,0.1-0.6,0-0.9c-0.1-0.5-0.4-0.8-0.9-1
	l-6-2.6c-0.8-0.4-1.8-0.1-2.2,0.7l-0.4,0.8c-0.4,0.8-0.1,1.8,0.7,2.2L33.5,64z"/>
<path d="M104.8,30.9c0.3-0.8-0.1-1.8-0.9-2.1l-0.8-0.3c-0.8-0.3-1.8,0.1-2.1,0.9l-2.7,5.9c-0.2,0.4-0.2,0.9,0,1.3
	c0.1,0.3,0.3,0.5,0.6,0.7c0.1,0.1,0.2,0.1,0.3,0.2l0.8,0.3c0.8,0.3,1.8-0.1,2.1-0.9L104.8,30.9z"/>
<path d="M56.4,36.8c0.3,0.8,1.3,1.3,2.1,0.9l0.8-0.3c0.1-0.1,0.2-0.1,0.3-0.2c0.3-0.2,0.5-0.4,0.6-0.7c0.2-0.4,0.2-0.9,0-1.3
	l-2.8-5.9c-0.3-0.8-1.3-1.2-2.1-0.9l-0.8,0.3c-0.8,0.4-1.2,1.3-0.9,2.1L56.4,36.8z"/>
</svg>
