<svg version="1.1" xmlns="http://www.w3.org/2000/svg" xmlns:xlink="http://www.w3.org/1999/xlink" x="0px" y="0px"
	 viewBox="0 0 156.4 88" style="enable-background:new 0 0 156.4 88;" xml:space="preserve">
<path id="sunFilled" class="sunFilled" d="M48.5,76.7c0-16.6,13.4-30.3,30-30.3s30,13.7,30,30.3 M41,76.3v0.8c0,0.8-0.5,1.4-1.2,1.5
	c-0.2,0-0.3,0.1-0.5,0.1l-20.4-0.3h-0.1c-0.8-0.1-1.5-0.8-1.5-1.7v-0.9c0-0.4,0.2-0.8,0.5-1.1c0.3-0.3,0.8-0.5,1.3-0.5l20.5,0.3
	C40.4,74.6,41,75.4,41,76.3z M139.6,76.3v0.8c0,0.8-0.5,1.4-1.2,1.5c-0.2,0-0.3,0.1-0.5,0.1l-20.4-0.3h-0.1
	c-0.8-0.1-1.5-0.8-1.5-1.7v-0.9c0-0.4,0.2-0.8,0.5-1.1c0.3-0.3,0.8-0.5,1.3-0.5l20.5,0.3C138.9,74.6,139.6,75.4,139.6,76.3z
	 M46.7,56.5L26.9,39.3c-0.3-0.3-0.6-0.8-0.6-1.2s0.1-0.8,0.4-1.1l0.6-0.6c0.1-0.1,0.2-0.2,0.3-0.3c0.6-0.4,1.3-0.4,1.9,0l0.1,0.1
	l19.8,17.2c0.7,0.6,0.8,1.7,0.2,2.3L49,56.3C48.4,57,47.4,57.1,46.7,56.5C46.7,56.6,46.7,56.6,46.7,56.5z M109.4,56.6
	c-0.7,0.5-1.7,0.4-2.3-0.3l-0.6-0.6c-0.6-0.7-0.5-1.7,0.2-2.3l19.8-17.2l0.1-0.1c0.6-0.5,1.3-0.5,1.9,0c0.1,0.1,0.2,0.2,0.3,0.3
	l0.6,0.6c0.3,0.3,0.4,0.7,0.4,1.1c0,0.5-0.3,0.9-0.6,1.2L109.4,56.6C109.5,56.6,109.4,56.6,109.4,56.6z M80.1,40.8h-0.9
	c-0.4,0-0.8-0.1-1.1-0.4c-0.2-0.2-0.4-0.5-0.4-0.8c0-0.1,0-0.1,0-0.2c0-0.1,0-0.2,0-0.3V11.7c0-1,0.9-1.6,1.7-1.6h0.9
	c0.8,0,1.4,0.6,1.5,1.4c0,0.1,0,0.2,0,0.3v27.4C81.8,40.2,80.9,40.8,80.1,40.8z M124,64c-0.8,0.3-1.8,0.2-2.2-0.7l-0.4-0.8
	c-0.1-0.1-0.1-0.2-0.1-0.4c-0.1-0.3-0.1-0.6,0-0.9c0.1-0.4,0.4-0.8,0.9-1l6-2.6c0.8-0.3,1.8-0.2,2.2,0.7l0.4,0.8
	c0.4,0.8,0.1,1.9-0.7,2.2L124,64z M27.7,61.4C26.9,61,26.6,60,27,59.2l0.4-0.8c0.4-0.9,1.4-1.1,2.2-0.7l6,2.6c0.5,0.2,0.8,0.6,0.9,1
	c0.1,0.3,0.1,0.6,0,0.9c0,0.1-0.1,0.3-0.1,0.4L36,63.4c-0.4,0.9-1.5,1-2.2,0.7L27.7,61.4z M102.3,36.9c-0.3,0.8-1.2,1.3-2.1,0.9
	l-0.8-0.4c-0.1-0.1-0.2-0.1-0.3-0.2c-0.3-0.2-0.5-0.4-0.6-0.7c-0.2-0.4-0.2-0.9,0-1.3l2.8-5.9c0.4-0.8,1.2-1.3,2.1-0.9l0.8,0.3
	c0.8,0.4,1.3,1.4,0.9,2.2L102.3,36.9z M53.8,30.9c-0.4-0.8,0.1-1.8,0.9-2.2l0.8-0.3c0.9-0.4,1.8,0.2,2.1,0.9l2.8,5.9
	c0.2,0.5,0.2,0.9,0,1.3c-0.1,0.3-0.3,0.5-0.6,0.7c-0.1,0.1-0.2,0.1-0.3,0.2l-0.8,0.4c-0.9,0.4-1.8-0.2-2.1-0.9L53.8,30.9z"/>
</svg>
